<svg width="195" height="36" viewBox="0 0 195 36" fill="none" xmlns="http://www.w3.org/2000/svg">
<g clip-path="url(#clip0_11672_41663)">
<path d="M59.4561 11.3924C59.4561 11.9209 59.3666 12.4201 59.1877 12.9193C59.0087 13.4185 58.7403 13.859 58.3525 14.27C57.9946 14.6811 57.5174 15.0041 56.9508 15.2684C56.3841 15.5327 55.7279 15.6501 54.9525 15.6501H48.9576V7.13465H54.8033C56.1455 7.13465 57.2788 7.48701 58.1438 8.19174C59.0087 8.89647 59.4561 9.98293 59.4561 11.3924ZM62.5281 7.9862C62.0211 7.01719 61.3649 6.19501 60.5894 5.57837C59.7842 4.96173 58.8894 4.49191 57.8455 4.19827C56.8315 3.90463 55.7876 3.75781 54.7139 3.75781H45.2891V28.9813H48.9576V19.027H55.2209C56.4735 19.027 57.6367 18.7921 58.621 18.3516C59.6052 17.9112 60.4701 17.3239 61.1561 16.6191C61.8421 15.9144 62.379 15.0922 62.7369 14.182C63.0948 13.2717 63.2737 12.3908 63.2737 11.5099C63.3035 10.1591 63.0351 8.9552 62.5281 7.9862Z" fill="#202A3B"/>
<path d="M66.9414 18.2047C67.0607 16.854 67.4485 15.7969 68.1046 15.0628C68.8204 14.2699 69.7152 13.9176 70.8784 13.9176C72.0415 13.9176 72.9661 14.2993 73.6521 15.0334C74.3083 15.7381 74.696 16.8246 74.7855 18.2047H66.9414ZM77.8575 15.2683C77.4697 14.2699 76.9329 13.4478 76.2767 12.743C75.6206 12.0677 74.8153 11.5391 73.9205 11.1868C73.0258 10.8344 72.0714 10.6582 71.0871 10.6582C70.1924 10.6582 69.2678 10.805 68.3432 11.128C67.4186 11.4217 66.5835 11.9502 65.8379 12.6843C65.0923 13.4184 64.4659 14.3874 64.0185 15.5913C63.5413 16.7952 63.3027 18.2928 63.3027 20.0253C63.3027 21.8752 63.5413 23.4021 63.9887 24.5766C64.4361 25.7806 65.0624 26.7202 65.8081 27.3956C66.5537 28.0709 67.4186 28.5701 68.3432 28.8344C69.2678 29.0987 70.1924 29.2161 71.1468 29.2161C72.2801 29.2161 73.3837 29.0399 74.4872 28.6876C75.5609 28.3352 76.575 27.7186 77.4399 26.9257L77.589 26.7789L77.6189 26.7496L77.589 26.7202L75.382 24.3124L75.3522 24.283L75.3223 24.3124L75.1732 24.4592C74.6065 24.9877 73.9504 25.3695 73.2047 25.6631C72.4889 25.9274 71.8328 26.0742 71.2959 26.0742C70.5801 26.0742 69.9239 25.9567 69.3871 25.6925C68.8502 25.4576 68.4029 25.1052 68.045 24.6647C67.6871 24.2243 67.4186 23.6957 67.2397 23.1084C67.0607 22.5212 66.9712 21.8752 66.9712 21.2292V21.1998H78.454V18.6452C78.4242 17.3825 78.2452 16.2373 77.8575 15.2683Z" fill="#202A3B"/>
<path d="M91.9353 19.4398C91.9353 20.3794 91.9055 21.1135 91.8756 21.6714C91.8458 22.2 91.7563 22.6992 91.637 23.0809C91.309 24.1086 90.8019 24.8427 90.0861 25.3125C89.3703 25.7824 88.565 26.0173 87.6404 26.0173C86.8053 26.0173 86.0895 25.8117 85.4632 25.43C84.8667 25.0189 84.3895 24.461 84.0614 23.7563C83.8228 23.2571 83.7035 22.7285 83.6439 22.1119C83.5842 21.4953 83.5544 20.8199 83.5544 20.0271C83.5842 19.293 83.614 18.5589 83.7035 17.9129C83.7632 17.2962 83.9421 16.709 84.1807 16.2098C84.5088 15.4757 85.0158 14.8884 85.672 14.5067C86.2983 14.0956 87.0738 13.89 87.9089 13.89C88.6843 13.89 89.43 14.0956 90.0563 14.4773C90.6826 14.859 91.1598 15.4757 91.4581 16.2979C91.637 16.709 91.7563 17.1494 91.816 17.6486C91.9055 18.1771 91.9353 18.7938 91.9353 19.4398ZM95.0968 16.1804C94.888 15.2408 94.5599 14.448 94.1424 13.7726C93.4862 12.8036 92.6511 12.0401 91.6072 11.5116C90.5633 10.983 89.3703 10.7188 88.0282 10.7188C86.4176 10.7188 85.0158 11.0711 83.8228 11.7758C82.6298 12.4806 81.7052 13.5083 81.0789 14.8297C80.721 15.5344 80.4824 16.3272 80.3631 17.1788C80.2438 18.0303 80.1543 18.97 80.1543 19.9683C80.1543 21.4072 80.2736 22.6404 80.4525 23.6682C80.6613 24.6959 81.0192 25.6356 81.5263 26.399C82.1824 27.3387 83.0474 28.0434 84.0912 28.4838C85.1351 28.9243 86.3281 29.1592 87.6404 29.1592C89.1019 29.1592 90.4142 28.8656 91.5476 28.3077C92.7108 27.7204 93.6055 26.8982 94.2617 25.8117C94.6792 25.107 94.9775 24.1967 95.1564 23.1396C95.3354 22.1119 95.4249 20.7905 95.4249 19.293C95.4249 18.1771 95.3056 17.1201 95.0968 16.1804Z" fill="#202A3B"/>
<path d="M108.638 19.9665C108.638 20.6712 108.578 21.3759 108.489 22.0806C108.4 22.7854 108.221 23.402 107.922 23.9599C107.654 24.4885 107.266 24.9583 106.759 25.2813C106.252 25.6337 105.536 25.7805 104.671 25.7805C103.806 25.7805 103.15 25.6043 102.643 25.2519C102.166 24.8996 101.778 24.4298 101.51 23.9012C101.241 23.3433 101.063 22.6973 101.003 21.9926C100.913 21.2878 100.884 20.5831 100.884 19.9371C100.884 19.2911 100.943 18.6157 101.033 17.911C101.122 17.2063 101.301 16.5603 101.599 16.0023C101.868 15.4444 102.285 14.9452 102.792 14.5929C103.299 14.2112 103.985 14.035 104.85 14.035C105.715 14.035 106.431 14.2112 106.908 14.5635C107.415 14.9159 107.773 15.3857 108.042 15.9436C108.28 16.5309 108.459 17.1769 108.519 17.8523C108.608 18.5864 108.638 19.2911 108.638 19.9665ZM111.979 16.5309C111.8 15.4444 111.442 14.4754 110.965 13.5945C110.457 12.7136 109.772 12.0089 108.907 11.4803C108.042 10.9518 106.938 10.6875 105.626 10.6875C104.701 10.6875 103.806 10.8637 102.942 11.216C102.226 11.5097 101.54 11.9795 100.884 12.5961V10.8637H97.4238V35.9991H100.884V27.7479C101.361 28.1883 101.898 28.5407 102.494 28.7462C103.24 29.0399 104.105 29.1867 105.029 29.1867C106.461 29.1867 107.654 28.893 108.608 28.3645C109.533 27.8066 110.279 27.0725 110.845 26.1916C111.382 25.3107 111.77 24.2829 111.949 23.1671C112.158 22.0513 112.247 20.9061 112.247 19.7609C112.277 18.7038 112.187 17.588 111.979 16.5309Z" fill="#202A3B"/>
<path d="M120.509 25.8105H119.436C118.362 25.8105 117.855 25.37 117.855 24.401V2.70117H114.365V24.6359C114.365 26.2216 114.813 27.3668 115.707 28.0128C116.572 28.6588 117.676 28.9818 119.048 28.9818H120.569V25.8398H120.509V25.8105Z" fill="#202A3B"/>
<path d="M124.833 18.2047C124.953 16.854 125.34 15.7969 126.026 15.0628C126.712 14.2993 127.637 13.9176 128.8 13.9176C129.963 13.9176 130.888 14.2993 131.574 15.0334C132.23 15.7381 132.618 16.8246 132.707 18.2047H124.833ZM135.75 15.2683C135.362 14.2699 134.825 13.4478 134.169 12.743C133.483 12.0677 132.707 11.5391 131.813 11.1868C130.918 10.8344 129.963 10.6582 129.009 10.6582C128.114 10.6582 127.19 10.805 126.265 11.128C125.34 11.4217 124.505 11.9502 123.76 12.6843C123.014 13.4184 122.388 14.3874 121.94 15.5913C121.463 16.7952 121.225 18.2928 121.225 20.0253C121.225 21.8752 121.463 23.4021 121.911 24.5766C122.358 25.7806 122.984 26.7202 123.73 27.3956C124.476 28.0709 125.34 28.5701 126.265 28.8344C127.19 29.0987 128.114 29.2161 129.069 29.2161C130.202 29.2161 131.306 29.0399 132.409 28.6876C133.513 28.3352 134.497 27.7186 135.362 26.9257L135.511 26.7789L135.541 26.7496L135.511 26.7202L133.304 24.3124L133.274 24.283L133.244 24.3124L133.095 24.4592C132.528 24.9877 131.872 25.3695 131.127 25.6631C130.411 25.9274 129.755 26.0742 129.218 26.0742C128.502 26.0742 127.846 25.9567 127.309 25.6925C126.772 25.4576 126.325 25.1052 125.967 24.6647C125.609 24.2243 125.34 23.6957 125.162 23.1084C124.983 22.5212 124.893 21.8752 124.893 21.2292V21.1998H136.316V18.6452C136.316 17.3825 136.137 16.2373 135.75 15.2683Z" fill="#202A3B"/>
<path d="M156.478 23.5495L153.137 21.9345L153.107 21.9051L153.077 21.9638L152.988 22.1987C152.6 23.2558 151.974 24.1367 151.109 24.7534C150.244 25.3994 149.2 25.7224 147.977 25.7224C147.053 25.7224 146.218 25.5462 145.532 25.1938C144.846 24.8415 144.279 24.3717 143.802 23.8137C143.354 23.2558 142.997 22.5805 142.758 21.8464C142.519 21.1123 142.4 20.3195 142.4 19.5266V13.096C142.4 12.3325 142.519 11.5984 142.758 10.8643C142.997 10.1302 143.325 9.48422 143.802 8.95567C144.249 8.39776 144.846 7.9573 145.532 7.60494C146.218 7.28193 147.053 7.10575 147.977 7.10575C149.2 7.10575 150.274 7.39939 151.109 8.01603C151.944 8.63267 152.57 9.45485 152.958 10.4532L153.048 10.6588L153.077 10.6881L153.107 10.6588L156.448 9.16122L156.478 9.13185L156.448 9.10249L156.358 8.92631C155.702 7.3113 154.628 5.98993 153.197 5.02092C151.765 4.05192 149.976 3.55273 147.888 3.55273C146.367 3.55273 145.025 3.81701 143.861 4.31619C142.728 4.81538 141.744 5.52011 140.968 6.37166C140.193 7.22321 139.626 8.25094 139.239 9.36676C138.881 10.4826 138.672 11.6865 138.672 12.9198V19.7322C138.672 20.9948 138.851 22.1987 139.239 23.3146C139.596 24.4597 140.193 25.4581 140.968 26.3097C141.744 27.1612 142.698 27.8366 143.861 28.3651C144.995 28.8643 146.367 29.1286 147.888 29.1286C149.976 29.1286 151.765 28.6588 153.227 27.6898C154.688 26.7501 155.762 25.3994 156.388 23.6963L156.448 23.5201V23.4907L156.478 23.5495Z" fill="#FF3200"/>
<path d="M160.564 18.2047C160.684 16.854 161.071 15.7969 161.728 15.0628C162.443 14.2699 163.338 13.9176 164.501 13.9176C165.665 13.9176 166.559 14.2993 167.275 15.0334C167.931 15.7381 168.319 16.8246 168.409 18.2047H160.564ZM171.451 15.2683C171.063 14.2993 170.526 13.4478 169.87 12.743C169.184 12.0677 168.409 11.5391 167.514 11.1868C166.619 10.8344 165.665 10.6582 164.71 10.6582C163.815 10.6582 162.891 10.805 161.966 11.128C161.042 11.4217 160.207 11.9502 159.461 12.6843C158.715 13.4184 158.089 14.3874 157.642 15.5913C157.164 16.7952 156.926 18.2928 156.926 20.0253C156.926 21.8752 157.164 23.4021 157.612 24.5766C158.059 25.7806 158.685 26.7202 159.431 27.3956C160.177 28.0709 161.042 28.5701 161.966 28.8344C162.891 29.0987 163.815 29.2161 164.77 29.2161C165.903 29.2161 167.007 29.0399 168.11 28.6876C169.214 28.3352 170.198 27.7186 171.063 26.9257L171.212 26.7789L171.242 26.7496L171.212 26.7202L169.005 24.3124L168.975 24.283L168.945 24.3124L168.796 24.4592C168.23 24.9877 167.573 25.3695 166.828 25.6631C166.112 25.9274 165.456 26.0742 164.919 26.0742C164.203 26.0742 163.547 25.9567 163.01 25.6925C162.473 25.4576 162.026 25.1052 161.668 24.6647C161.31 24.2243 161.042 23.6957 160.863 23.1084C160.684 22.5212 160.594 21.8752 160.594 21.2292V21.1998H172.077V18.6452C172.047 17.3825 171.838 16.2373 171.451 15.2683Z" fill="#FF3200"/>
<path d="M185.199 11.5684L185.05 11.4803C184.692 11.216 184.215 11.0399 183.678 10.893C183.141 10.7462 182.515 10.6875 181.889 10.6875C180.905 10.6875 179.98 10.8637 179.175 11.2454C178.489 11.5684 177.862 12.0676 177.296 12.7723V10.8637H173.836V28.9518H177.296V18.0578C177.296 16.7071 177.654 15.7087 178.369 15.0333C179.085 14.358 180.01 14.035 181.113 14.035C182.068 14.035 182.843 14.2405 183.499 14.681L183.708 14.8278L183.738 14.8572L183.768 14.7984L185.199 11.5978V11.5684Z" fill="#FF3200"/>
<path d="M194.594 25.8115H192.835C192.179 25.8115 191.791 25.6354 191.612 25.283C191.403 24.8425 191.314 24.3727 191.314 23.8735V13.8898H194.028V10.8654H191.314V6.51953H187.854V10.8654H185.736V13.8605H187.854V24.5783C187.854 25.9877 188.271 27.1035 189.077 27.8376C189.882 28.5717 190.956 28.9535 192.238 28.9535H194.624V25.8409H194.594V25.8115Z" fill="#FF3200"/>
<path d="M20.0869 26.4568C14.7183 24.3426 12.8393 20.0555 14.3604 15.3573C15.1657 12.832 16.8956 10.8352 19.1325 9.77814C22.622 8.10441 26.6783 10.3067 27.1853 14.0946C27.573 17.0604 26.6485 20.3197 25.3063 22.3458C24.4414 23.7259 23.3975 24.9886 22.2045 26.0457C21.6378 26.5742 20.8027 26.721 20.0869 26.4568ZM6.24794 17.0604C5.97951 11.0408 10.0656 5.78467 15.7324 4.25775C17.2535 3.84666 18.8939 4.02284 20.2658 4.75693H20.2957H20.0272C14.8675 5.1093 10.6919 8.63295 9.31995 13.2431C9.31995 13.2137 9.34977 13.1843 9.34977 13.155C9.29012 13.3018 9.23047 13.478 9.17082 13.6248C7.29183 19.4095 11.02 25.3997 17.1342 27.6901C17.7903 27.925 18.4465 28.1011 19.1325 28.2186H19.1027C17.9395 28.8352 16.5377 28.9821 15.285 28.6003C10.2445 27.044 6.48655 22.522 6.24794 17.0604ZM34.7013 20.9364C34.8504 19.7912 35.0294 18.5873 35.089 17.3246C35.089 7.75204 27.2151 0 17.4921 0C13.9429 0 10.4533 1.0571 7.53043 2.99511C6.72515 3.52365 5.97951 4.14029 5.26371 4.81566C4.5479 5.49103 3.92157 6.19576 3.32506 6.98858C2.72856 7.75204 2.22153 8.57423 1.77415 9.42578C1.26712 10.4241 0.849563 11.4812 0.55131 12.5677C0.253057 13.6542 0.0741049 14.77 0.0144543 15.9152C-0.0750216 17.9119 0.253057 19.938 0.939039 21.8173C1.65485 23.7847 2.75838 25.6346 4.16017 27.1615C4.36895 27.3964 4.57773 27.602 4.7865 27.8369C7.41113 30.4209 10.9007 32.124 14.599 32.6232C15.5833 32.77 16.5973 32.7993 17.6114 32.77C22.4133 32.5644 26.6783 30.3622 29.6608 27.0147C30.9731 30.0685 33.6872 32.6525 39.3242 32.0946C38.5786 31.8597 32.9416 31.8891 34.7013 20.9364Z" fill="#FF3200"/>
</g>
<defs>
<clipPath id="clip0_11672_41663">
<rect width="194.625" height="36" fill="white"/>
</clipPath>
</defs>
</svg>
