<svg xmlns:xlink="http://www.w3.org/1999/xlink" xmlns="http://www.w3.org/2000/svg" width="60" height="81" viewBox="0 0 60 81" fill="none"><path d="M56.9892 59.6721H43.19C42.3473 59.6721 41.6626 58.9874 41.6626 58.1447V50.4024C41.6626 49.5597 42.3473 48.875 43.19 48.875H56.9892C57.8319 48.875 58.5166 49.5597 58.5166 50.4024V58.1447C58.5166 58.9874 57.8319 59.6721 56.9892 59.6721Z" stroke="#344154" stroke-width="2px" stroke-miterlimit="10" stroke-linecap="round" stroke-linejoin="round" fill="none"></path><path d="M45.3491 55.9853V52.5092H54.8295V55.9853L54.4081 55.8273C51.6167 54.8266 48.5619 54.8266 45.7705 55.8273L45.3491 55.9853Z" fill="#EDA33A"></path><path d="M46.7715 48.8749V46.5048C46.7715 45.6095 47.5089 44.8721 48.4042 44.8721H51.8277C52.7231 44.8721 53.4604 45.6095 53.4604 46.5048V48.8749" stroke="#344154" stroke-width="2px" stroke-miterlimit="10" stroke-linecap="round" stroke-linejoin="round" fill="none"></path><path d="M15.083 15.083C17.8597 12.3063 17.8597 7.80439 15.083 5.02768C12.3063 2.25097 7.80438 2.25097 5.02768 5.02768C2.25097 7.80439 2.25097 12.3063 5.02768 15.083C7.80438 17.8597 12.3063 17.8597 15.083 15.083Z" stroke="#344154" stroke-width="2px" stroke-miterlimit="10" stroke-linecap="round" stroke-linejoin="round" fill="none"></path><path d="M15.1177 48.9803V73.6293" stroke="#344154" stroke-width="2px" stroke-miterlimit="10" stroke-linecap="round" stroke-linejoin="round" fill="none"></path><path d="M4.95215 73.2079V48.9803" stroke="#344154" stroke-width="2px" stroke-miterlimit="10" stroke-linecap="round" stroke-linejoin="round" fill="none"></path><path d="M10.061 28.0709V31.0204C10.061 33.9172 12.4311 36.2872 15.3279 36.2872H26.8624" stroke="#344154" stroke-width="2px" stroke-miterlimit="10" stroke-linecap="round" stroke-linejoin="round" fill="none"></path><path d="M19.5414 79.9496H4.95215V73.208H12.7998C16.5392 73.208 19.5414 76.2628 19.5414 79.9496Z" stroke="#344154" stroke-width="2px" stroke-miterlimit="10" stroke-linecap="round" stroke-linejoin="round" fill="none"></path><path d="M18.2774 32.4424V29.0189C18.2774 24.4894 14.5905 20.8026 10.061 20.8026C5.53152 20.8026 1.84473 24.4894 1.84473 29.0189V36.3926C1.84473 40.7641 2.95077 45.1356 5.00485 48.9804H10.061H15.1172C16.5393 46.2943 17.4873 43.3975 17.9613 40.448" stroke="#344154" stroke-width="2px" stroke-miterlimit="10" stroke-linecap="round" stroke-linejoin="round" fill="none"></path><path d="M52.0802 16.9466C55.9018 16.0442 58.2684 12.2146 57.366 8.39293C56.4636 4.57127 52.634 2.20475 48.8123 3.10715C44.9906 4.00955 42.6241 7.83915 43.5265 11.6608C44.4289 15.4825 48.2585 17.849 52.0802 16.9466Z" stroke="#344154" stroke-width="2px" stroke-miterlimit="10" stroke-linecap="round" stroke-linejoin="round" fill="none"></path><path d="M45.3491 63.3062V73.6292" stroke="#344154" stroke-width="2px" stroke-miterlimit="10" stroke-linecap="round" stroke-linejoin="round" fill="none"></path><path d="M55.5142 73.2079V63.3062" stroke="#344154" stroke-width="2px" stroke-miterlimit="10" stroke-linecap="round" stroke-linejoin="round" fill="none"></path><path d="M40.9775 79.9495H55.5668V73.2079H47.7191C43.9796 73.2079 40.9775 76.2627 40.9775 79.9495Z" stroke="#344154" stroke-width="2px" stroke-miterlimit="10" stroke-linecap="round" stroke-linejoin="round" fill="none"></path><path d="M43.3477 44.0822C42.6104 41.6068 42.2417 39.026 42.2417 36.3926V29.019C42.2417 24.4895 45.9285 20.8027 50.458 20.8027C54.9875 20.8027 58.6743 24.4895 58.6743 29.019V36.3926C58.6743 39.026 58.3056 41.6068 57.5683 44.0822" stroke="#344154" stroke-width="2px" stroke-miterlimit="10" stroke-linecap="round" stroke-linejoin="round" fill="none"></path><path d="M50.458 28.0709V44.8723" stroke="#344154" stroke-width="2px" stroke-miterlimit="10" stroke-linecap="round" stroke-linejoin="round" fill="none"></path><path d="M42.2417 36.3926H32.8667" stroke="#344154" stroke-width="2px" stroke-miterlimit="10" stroke-linecap="round" stroke-linejoin="round" fill="none"></path></svg>