<svg xmlns:xlink="http://www.w3.org/1999/xlink" xmlns="http://www.w3.org/2000/svg" width="77" height="73" viewBox="0 0 77 73" fill="none"><path d="M46.7379 58.8584C46.988 56.4075 45.5875 54.1066 43.2366 53.3062L46.988 44.0026L50.6895 48.1042C52.7403 50.3551 53.2905 53.6064 52.1901 56.4075L48.6887 63.5602C46.938 67.1617 49.439 71.5133 53.4906 71.5634C53.5406 71.5634 53.5406 71.5634 53.5906 71.5634H68.4464C71.7977 71.5634 74.7489 69.0624 74.999 65.7111C75.2491 62.5098 73.1482 59.7588 70.2471 59.0085C70.2471 58.8584 70.2971 58.6583 70.2971 58.5083C70.2971 56.3574 68.5465 54.5567 66.3456 54.5567C65.9955 54.5567 65.6453 54.6068 65.3452 54.7068V54.6568C65.3452 52.5059 63.6445 50.8053 61.4937 50.8053C60.3432 50.8053 59.2928 51.3055 58.5926 52.1558" stroke="#344154" stroke-width="2px" stroke-miterlimit="10" stroke-linecap="round" stroke-linejoin="round" fill="none"></path><path d="M45.5376 11.59C45.5376 11.59 42.8365 12.7905 38.0347 12.7905C33.2328 12.7905 30.5317 11.59 30.5317 11.59" stroke="#344154" stroke-width="2px" stroke-miterlimit="10" stroke-linecap="round" stroke-linejoin="round" fill="none"></path><path d="M42.8364 26.4459C42.8364 23.7948 40.6856 21.644 38.0345 21.644C35.3835 21.644 33.2327 23.7948 33.2327 26.4459C33.2327 29.0969 35.3835 31.2477 38.0345 31.2477C40.6856 31.2978 42.8364 29.1469 42.8364 26.4459Z" stroke="#344154" stroke-width="2px" stroke-miterlimit="10" stroke-linecap="round" stroke-linejoin="round" fill="none"></path><path d="M38.0346 27.7963C37.2843 27.7963 36.6841 27.1961 36.6841 26.4458C36.6841 25.6955 37.2843 25.0953 38.0346 25.0953C38.7849 25.0953 39.3851 25.6955 39.3851 26.4458C39.3851 27.1961 38.7849 27.7963 38.0346 27.7963Z" fill="#FFC524"></path><path d="M34.7835 56.4575C34.7334 60.1589 35.6338 65.0608 38.0347 71.6134C40.4357 65.1108 41.336 60.1589 41.286 56.4575" stroke="#344154" stroke-width="2px" stroke-miterlimit="10" stroke-linecap="round" stroke-linejoin="round" fill="none"></path><path d="M29.2812 58.8584C29.0311 56.4075 30.4317 54.1066 32.7826 53.3062L29.0311 44.0026L25.3297 48.1042C23.2789 50.3551 22.7287 53.6064 23.8291 56.4075L27.3305 63.5602C29.0811 67.1617 26.5802 71.5133 22.5286 71.5634C22.4786 71.5634 22.4786 71.5634 22.4286 71.5634H7.57275C4.22145 71.5634 1.27029 69.0624 1.02019 65.7111C0.770097 62.5098 2.87092 59.7588 5.77205 59.0085C5.77205 58.8584 5.72203 58.6583 5.72203 58.5083C5.72203 56.3574 7.47272 54.5567 9.67358 54.5567C10.0237 54.5567 10.3739 54.6068 10.674 54.7068V54.6568C10.674 52.5059 12.3746 50.8053 14.5255 50.8053C15.6759 50.8053 16.7263 51.3055 17.4266 52.1558" stroke="#344154" stroke-width="2px" stroke-miterlimit="10" stroke-linecap="round" stroke-linejoin="round" fill="none"></path><path d="M29.0311 44.0026C18.7271 18.9429 38.0347 1.43604 38.0347 1.43604C38.0347 1.43604 57.3422 18.8928 47.0382 44.0026" stroke="#344154" stroke-width="2px" stroke-miterlimit="10" stroke-linecap="round" stroke-linejoin="round" fill="none"></path><path d="M7.62275 68.112H22.4785H22.5786C23.4289 68.112 23.9291 67.5117 24.1292 67.1616C24.3293 66.8615 24.6794 66.0612 24.2292 65.1108L23.679 64.0104H4.77163C4.57156 64.4105 4.47152 64.9107 4.52154 65.4609C4.62157 66.9615 5.97211 68.112 7.62275 68.112Z" fill="#EDA33A"></path><path d="M68.3464 68.112H53.4906H53.3905C52.5402 68.112 52.04 67.5117 51.8399 67.1616C51.6399 66.8615 51.2897 66.0612 51.7399 65.1108L52.2901 64.0104H71.1975C71.3976 64.4105 71.4976 64.9107 71.4476 65.4609C71.2975 66.9615 69.947 68.112 68.3464 68.112Z" fill="#EDA33A"></path></svg>