<?xml version="1.0" encoding="UTF-8" standalone="no"?>
<!-- Created with Inkscape (http://www.inkscape.org/) -->

<svg
   width="650"
   height="650"
   viewBox="0 0 650 650"
   version="1.1"
   id="SVGRoot"
   sodipodi:docname="pari icon 233 x 233 wip v-O-1.svg"
   inkscape:version="1.1 (ce6663b3b7, 2021-05-25)"
   xmlns:inkscape="http://www.inkscape.org/namespaces/inkscape"
   xmlns:sodipodi="http://sodipodi.sourceforge.net/DTD/sodipodi-0.dtd"
   xmlns="http://www.w3.org/2000/svg"
   xmlns:svg="http://www.w3.org/2000/svg">
  <sodipodi:namedview
     id="namedview877"
     pagecolor="#ffffff"
     bordercolor="#666666"
     borderopacity="1.0"
     inkscape:pageshadow="2"
     inkscape:pageopacity="0.0"
     inkscape:pagecheckerboard="0"
     inkscape:document-units="px"
     showgrid="true"
     inkscape:zoom="0.50709218"
     inkscape:cx="158.74826"
     inkscape:cy="472.30071"
     inkscape:window-width="1920"
     inkscape:window-height="1016"
     inkscape:window-x="1366"
     inkscape:window-y="27"
     inkscape:window-maximized="1"
     inkscape:current-layer="layer1">
    <inkscape:grid
       type="xygrid"
       id="grid940" />
  </sodipodi:namedview>
  <defs
     id="defs872">
    <inkscape:path-effect
       effect="skeletal"
       id="path-effect12540"
       is_visible="true"
       lpeversion="1"
       pattern="m 783.87187,4.7904522 c 0,-10.4150948 8.45283,-18.8679252 18.86792,-18.8679252 10.4151,0 18.86793,8.4528304 18.86793,18.8679252 0,10.4150938 -8.45283,18.8679238 -18.86793,18.8679238 -10.41509,0 -18.86792,-8.45283 -18.86792,-18.8679238 z"
       copytype="single_stretched"
       prop_scale="1"
       scale_y_rel="false"
       spacing="0"
       normal_offset="0"
       tang_offset="0"
       prop_units="false"
       vertical_pattern="false"
       hide_knot="false"
       fuse_tolerance="0" />
    <linearGradient
       id="linear-gradient"
       x1="325"
       y1="581"
       x2="325"
       y2="69"
       gradientUnits="userSpaceOnUse">
      <stop
         offset="0"
         stop-color="#2274bb"
         id="stop2670" />
      <stop
         offset="1"
         stop-color="#05bbee"
         id="stop2672" />
    </linearGradient>
    <linearGradient
       id="linear-gradient-3"
       x1="325"
       y1="581"
       x2="325"
       y2="69"
       gradientUnits="userSpaceOnUse">
      <stop
         offset="0"
         stop-color="#2274bb"
         id="stop2670-6" />
      <stop
         offset="1"
         stop-color="#05bbee"
         id="stop2672-7" />
    </linearGradient>
  </defs>
  <g
     inkscape:groupmode="layer"
     id="layer2"
     inkscape:label="Layer 2"
     sodipodi:insensitive="true"
     style="display:inline">
    <g
       id="g8748"
       transform="translate(190.29998,-290.11)">
      <g
         id="Background"
         transform="translate(-190.29998,290.11)"
         style="display:inline">
        <rect
           id="color"
           width="650"
           height="650"
           fill="#212121"
           x="0"
           y="0" />
      </g>
      <g
         id="Grid_App_Icon"
         data-name="Grid App Icon"
         transform="translate(-190.29998,290.11)"
         style="display:inline">
        <rect
           id="back"
           x="69"
           y="69"
           width="512"
           height="512"
           rx="122.18"
           ry="122.18"
           fill="url(#linear-gradient)"
           style="fill:url(#linear-gradient-3)" />
        <path
           d="M 582.58,458 V 325.73 H 583 v -1.46 h -0.42 V 192 a 124.94,124.94 0 0 0 -35.2,-86.9 v -2.4 h 35.2 v -1.47 H 548.4 l 32.82,-33 -1,-1 -32.81,33 V 67.94 h -1.46 v 33.29 h -2.48 A 123.51,123.51 0 0 0 458.2,67 H 191.37 a 123.51,123.51 0 0 0 -85.23,34.23 h -2.49 V 67.94 h -1.45 v 32.26 l -32.81,-33 -1,1 32.81,33 H 69.08 v 1.46 h 33.12 v 2.44 A 124.91,124.91 0 0 0 67,192 v 266 a 124.91,124.91 0 0 0 35.2,86.9 v 2.44 H 69.08 v 1.46 h 32.09 l -32.81,33 1,1 32.81,-33 v 32.26 h 1.45 v -33.29 h 2.49 A 123.51,123.51 0 0 0 191.37,583 H 458.2 a 123.51,123.51 0 0 0 85.24,-34.23 h 2.48 v 33.29 h 1.46 V 549.8 l 32.81,33 1,-1 -32.82,-33 H 583 v -1.46 h -35.62 v -2.44 a 125,125 0 0 0 35.2,-86.9 z m -1.46,0 a 123.41,123.41 0 0 1 -33.74,84.78 V 417.45 H 580.6 V 416 h -33.22 v -90.27 h 33.74 z m -164.79,-42 -1,-1 q 2.49,-2.53 4.83,-5.2 v 6.2 z m 3.83,1.46 v 2.39 l -2.38,-2.39 z M 230.25,416 v -5.25 c 1.3,1.45 2.64,2.86 4,4.25 l -1,1 z m 1.55,1.46 -1.55,1.54 v -1.55 z m 1.45,-183.46 1,1 c -1.36,1.39 -2.7,2.81 -4,4.25 V 234 Z m -3,-1.46 V 231 l 1.55,1.55 z M 420.16,234 v 6.2 q -2.34,-2.67 -4.83,-5.2 l 1,-1 z m -2.38,-1.46 2.38,-2.39 v 2.39 z m 2.38,91.72 h -3.42 a 92.44,92.44 0 0 0 -26.42,-64.12 l 24,-24.1 q 3,3.07 5.86,6.37 z m 1.45,-80.12 a 126.35,126.35 0 0 1 29,80.12 h -29 z m -32.32,17 a 90.88,90.88 0 0 1 26,63.08 h -88.75 z m -63.77,62 V 234 a 89.92,89.92 0 0 1 62.74,26.12 z m -1.46,0 -62.75,-63.09 A 90,90 0 0 1 324.06,234 Z m -1,1 h -88.77 a 90.93,90.93 0 0 1 26,-63.08 z m 0,1.46 -62.75,63.08 a 90.93,90.93 0 0 1 -26,-63.08 z m 1,1 V 416 a 89.93,89.93 0 0 1 -62.75,-26.13 z m 1.46,0 62.74,63.08 A 89.89,89.89 0 0 1 325.52,416 Z m 1,-1 h 88.74 a 90.88,90.88 0 0 1 -26,63.08 z m 86.75,-90.6 -24,24.11 A 91.54,91.54 0 0 0 341,234 h 71.25 z m -87.75,-2.46 v -34.07 a 125.07,125.07 0 0 1 85.2,34.08 z m -1.46,0 h -85.2 a 125,125 0 0 1 85.2,-34.08 z M 308.57,234 a 91.61,91.61 0 0 0 -48.29,25.11 l -24,-24.11 1,-1 z m -73.29,2 24,24.1 a 92.35,92.35 0 0 0 -26.42,64.12 h -2.59 v -82.76 c 1.61,-1.85 3.28,-3.66 5.01,-5.41 z m -6.48,88.22 h -29.87 a 126.35,126.35 0 0 1 29.87,-81.11 z m 0,1.46 v 81.11 a 126.35,126.35 0 0 1 -29.87,-81.11 z m 1.45,0 h 2.59 a 92.31,92.31 0 0 0 26.42,64.11 l -24,24.11 c -1.73,-1.75 -3.4,-3.56 -5,-5.41 z m 6.06,89.32 24,-24.11 A 91.61,91.61 0 0 0 308.57,416 h -71.24 z m 87.75,2.46 v 34.08 a 125,125 0 0 1 -85.2,-34.08 z m 1.46,0 h 85.2 a 125.07,125.07 0 0 1 -85.2,34.08 z M 341,416 a 91.54,91.54 0 0 0 48.29,-25.11 l 24,24.11 -1,1 z m 73.3,-2 -24,-24.11 a 92.39,92.39 0 0 0 26.42,-64.11 h 3.42 v 81.85 q -2.8,3.24 -5.84,6.37 z m 7.31,-88.22 h 29 a 126.35,126.35 0 0 1 -29,80.12 z m 30.49,-1.46 A 127.81,127.81 0 0 0 421.61,241.94 V 234 h 76.9 a 196.83,196.83 0 0 1 22.13,90.26 z M 421.61,232.6 v -3.86 l 42.18,-42.39 a 197.46,197.46 0 0 1 33.95,46.25 z m 0,-5.92 v -72.86 a 196.59,196.59 0 0 1 41.15,31.44 z m -1.45,1.46 -4.43,4.46 h -2.89 A 126.53,126.53 0 0 0 325.52,197 V 128.12 A 194.06,194.06 0 0 1 420.16,153 Z M 324.06,197 a 126.51,126.51 0 0 0 -87.32,35.54 h -2.89 l -3.6,-3.62 v -76.4 a 194.09,194.09 0 0 1 93.81,-24.41 z m -95.26,30.47 -42,-42.21 a 196.81,196.81 0 0 1 42,-31.91 z m 0,2.07 v 3 h -77 a 197.18,197.18 0 0 1 33.95,-46.25 z m 0,4.47 v 6.9 a 127.87,127.87 0 0 0 -31.33,83.36 H 128.94 A 196.83,196.83 0 0 1 151.07,234 Z m -31.33,91.72 a 127.87,127.87 0 0 0 31.33,83.36 V 416 h -77.73 a 196.83,196.83 0 0 1 -22.13,-90.26 z m 31.33,91.72 v 3 l -43,43.23 a 197.18,197.18 0 0 1 -33.95,-46.25 z m 0,5.08 v 74.12 a 196.81,196.81 0 0 1 -42,-31.91 z m 1.45,-1.46 3.6,-3.62 h 2.89 A 126.51,126.51 0 0 0 324.06,453 v 68.9 A 194.21,194.21 0 0 1 230.25,497.48 Z M 325.52,453 a 126.53,126.53 0 0 0 87.32,-35.54 h 2.89 l 4.43,4.46 V 497 a 194.18,194.18 0 0 1 -94.64,24.89 z m 96.09,-29.62 41.15,41.37 a 197.19,197.19 0 0 1 -41.15,31.44 z m 0,-2.06 v -3.86 h 76.13 a 197.46,197.46 0 0 1 -33.95,46.25 z m 0,-5.32 v -7.88 a 127.81,127.81 0 0 0 30.49,-82.38 h 68.54 A 196.83,196.83 0 0 1 498.51,416 Z m 100.48,-90.26 h 23.83 V 416 h -45.77 a 198.3,198.3 0 0 0 21.94,-90.27 z m 0,-1.46 A 198.3,198.3 0 0 0 500.15,234 h 45.77 v 90.26 z M 499.38,232.56 A 199.21,199.21 0 0 0 464.82,185.27 L 545,104.7 l 0.07,0.06 c 0.3,0.31 0.6,0.64 0.9,1 v 126.79 z m 44.52,-128.87 -80.11,80.54 a 198.22,198.22 0 0 0 -42.18,-32.09 v -49.45 h 121.25 z m -123.74,47.64 a 195.65,195.65 0 0 0 -94.64,-24.68 v -24 h 94.64 z m -94.64,-50.1 V 68.46 h 94.64 v 32.77 z m -1.46,0 H 230.25 V 68.46 h 93.81 z m 0,1.46 v 24 a 195.63,195.63 0 0 0 -93.81,24.21 v -48.21 z m -95.26,49 a 197.85,197.85 0 0 0 -43,32.55 l -80.11,-80.54 1,-1 H 228.8 Z m -124.24,-46.93 0.06,-0.06 80.14,80.56 a 199,199 0 0 0 -34.57,47.29 H 103.65 V 105.72 c 0.35,-0.32 0.6,-0.65 0.91,-0.96 z M 149.43,234 a 198.3,198.3 0 0 0 -21.94,90.26 H 103.65 V 234 Z m -21.94,91.72 A 198.3,198.3 0 0 0 149.43,416 h -45.78 v -90.27 z m 22.7,91.72 a 199,199 0 0 0 34.57,47.29 l -80.14,80.57 -0.06,-0.06 c -0.31,-0.31 -0.6,-0.64 -0.91,-1 V 417.45 Z m -44.51,128.87 80.11,-80.54 a 198.21,198.21 0 0 0 43,32.56 v 49 H 106.72 Z m 124.57,-47.17 a 195.63,195.63 0 0 0 93.81,24.21 v 24 h -93.81 z m 93.81,49.63 v 32.77 h -93.81 v -32.77 z m 1.46,0 h 94.64 v 32.77 h -94.64 z m 0,-1.46 v -24 a 195.65,195.65 0 0 0 94.64,-24.68 v 48.64 z m 96.09,-49.45 a 198.22,198.22 0 0 0 42.18,-32.09 l 80.11,80.54 -1,1 H 421.61 Z M 545,545.24 544.93,545.3 464.8,464.74 a 199.21,199.21 0 0 0 34.56,-47.29 H 545.9 V 544.28 Z M 581.12,192 V 324.27 H 547.38 V 234 h 33.22 v -1.46 H 547.38 V 107.25 A 123.41,123.41 0 0 1 581.12,192 Z M 541.34,101.2 H 421.61 V 68.46 h 36.59 a 122.08,122.08 0 0 1 83.14,32.77 z m -350,-32.77 H 228.8 V 101.2 H 108.24 A 122.07,122.07 0 0 1 191.37,68.46 Z M 68.45,458 V 192 a 123.42,123.42 0 0 1 33.75,-84.78 v 125.3 H 69 V 234 h 33.2 v 90.26 H 68.88 v 1.46 H 102.2 V 416 H 69 v 1.46 h 33.2 v 125.3 A 123.42,123.42 0 0 1 68.45,458 Z m 39.79,90.8 H 228.8 v 32.77 h -37.43 a 122.07,122.07 0 0 1 -83.13,-32.8 z m 350,32.77 h -36.63 v -32.8 h 119.73 a 122.1,122.1 0 0 1 -83.14,32.77 z"
           fill="#8cd6f1"
           id="path2682" />
      </g>
    </g>
  </g>
  <g
     inkscape:label="Layer 1"
     inkscape:groupmode="layer"
     id="layer1"
     style="display:inline">
    <text
       xml:space="preserve"
       style="font-style:normal;font-variant:normal;font-weight:normal;font-stretch:normal;font-size:403.813px;line-height:1.25;font-family:'Mr De Haviland';-inkscape-font-specification:'Mr De Haviland';stroke-width:10.0953"
       x="345.0744"
       y="316.78015"
       id="text2342"><tspan
         sodipodi:role="line"
         id="tspan2340"
         x="345.0744"
         y="316.78015"
         style="font-style:normal;font-variant:normal;font-weight:normal;font-stretch:normal;font-family:'Ballet 16pt';-inkscape-font-specification:'Ballet 16pt';stroke-width:10.0953">p</tspan></text>
    <path
       style="fill:#000000;stroke:none;stroke-width:1px;stroke-linecap:butt;stroke-linejoin:miter;stroke-opacity:1"
       d="m 3.8718666,205.92253 c -1.0781931,-1.74515 4.987913,-8.20136 18.5427034,-16.87574 13.951676,-8.92837 34.354599,-19.03163 62.952739,-28.19127 28.962451,-9.31569 51.647131,-13.94593 88.568361,-23.11015 10.62909,-2.69854 22.94362,-7.66018 38.70476,-10.00506 15.10978,-1.901 27.44752,-0.74014 39.75809,-0.9748 50.55514,-1.05219 122.84222,-4.0594 184.95141,-2.11433 7.28592,0.26108 14.12581,1.12065 20.54377,2.1741 8.3926,1.33845 16.82728,3.12983 25.22794,5.44764 0.80359,0.2178 1.61058,0.44222 2.42063,0.67373 7.58507,2.16788 15.34119,4.93061 23.05567,8.65033 3.77283,1.81042 7.69253,4.04814 11.62836,6.84129 0,0 5e-5,3e-5 5e-5,3e-5 3.39376,2.32988 6.92801,5.52961 10.30809,9.726 2.55302,3.61439 3.97535,6.40381 4.48342,8.1954 0,0 2e-5,6e-5 2e-5,6e-5 1.02249,2.70268 1.74566,5.1334 2.26291,7.24948 1.32537,5.29022 2.19388,10.32118 2.84219,15.00352 0.68357,4.8075 1.21168,9.59631 1.60076,14.35401 0,0 10e-6,4e-5 10e-6,4e-5 0.2764,3.1276 0.53838,6.74432 0.53993,10.86199 0.0512,16.23079 1.26698,33.98278 -2.82672,53.85652 -3.56417,14.17291 -10.77929,25.35632 -18.72555,33.63624 -7.89295,8.55602 -16.21839,15.4272 -23.53198,21.44576 0.22929,-0.39302 -2.55816,3.71431 -10.30059,9.48681 -5.2567,2.66589 -8.91522,3.69612 -10.75016,3.55208 -1.84357,0.41518 -1.74861,0.11431 0.25667,-0.39848 -10.41167,4.10228 -22.60864,11.5171 -38.06755,15.76429 -9.13808,2.27962 -18.04791,4.39968 -26.93503,6.32757 -5.42101,1.17667 -10.80247,2.27638 -16.23992,3.24491 -4.45134,0.80611 -9.16892,1.5723 -14.26133,2.00615 -10.45971,0.77809 -20.20456,0.0429 -28.58236,-0.71804 -9.37656,-0.7649 -17.09106,-1.55918 -24.57879,-1.20981 -14.0534,0.67161 -26.75891,0.81528 -39.05984,0.15945 -1.61056,-0.10511 -3.39857,-0.15239 -5.24288,-0.21209 -3.34304,-0.11198 -6.41929,-0.21258 -9.60909,-0.32779 0,0 -2e-5,0 -2e-5,0 -9.59952,-0.34711 -18.09766,-0.74697 -25.97283,-1.25774 -10.22424,-0.66393 -18.28463,-1.40621 -25.41711,-2.44423 0,0 -2e-5,-1e-5 -2e-5,-1e-5 -3.43477,-0.49977 -6.30191,-1.00357 -9.00543,-1.67201 -1.0538,-0.25931 -2.06374,-0.53283 -3.08427,-0.88516 -0.46149,-0.10118 -1.40923,-0.45753 -2.5647,-1.15748 0,0 0,-10e-6 0,-10e-6 -2.04002,-1.80786 -3.12244,-3.73555 -3.57853,-4.73102 -0.52576,-1.14754 -0.64493,-1.95106 -0.31378,-2.37218 0.34232,-0.43535 1.15305,-0.47575 2.43146,-0.0974 1.26005,0.37297 2.91899,1.27759 4.70606,1.6674 0,0 1e-5,0 1e-5,0 -0.25952,-0.1732 -0.17811,-0.39614 0.49021,-0.30778 0.73485,-0.0551 1.56661,-0.15689 2.5463,-0.2545 2.43183,-0.25421 5.25497,-0.60523 8.55843,-0.97715 0,0 1e-5,-10e-6 1e-5,-10e-6 5.19304,-0.59192 16.59903,-1.84386 24.95071,-2.68592 7.42968,-0.75165 16.52641,-1.63377 25.72324,-2.4662 0,0 2e-5,0 2e-5,0 3.07901,-0.27889 6.33014,-0.56759 9.61513,-0.84138 1.74106,-0.15004 3.68502,-0.31816 5.76708,-0.42357 11.50087,-0.66072 23.21386,-1.96666 36.805,-3.78461 9.72619,-1.19615 18.87745,-1.11583 28.165,-0.96842 8.34824,0.0564 16.78528,0.19268 24.10801,-0.95943 3.44288,-0.49383 7.14111,-1.36957 11.33211,-2.35601 4.88666,-1.17287 9.83289,-2.48557 14.97617,-3.89832 8.41155,-2.31241 16.89355,-4.79603 25.7473,-7.45458 9.04278,-2.47731 19.16961,-9.74703 33.56145,-15.97931 4.55746,-1.57266 7.3917,-2.11616 8.30202,-2.0676 0.84178,-0.49901 -0.0579,0.0596 -3.01929,1.27716 -1.27437,1.69141 -0.12347,-1.34838 5.98456,-6.79858 7.2246,-6.48804 14.28787,-12.56025 19.55538,-18.80915 4.96366,-6.24332 9.19257,-12.24283 9.8127,-17.63084 2.89628,-12.81277 1.06828,-27.75771 1.11926,-46.27758 0.002,-2.03991 -0.25302,-4.56205 -0.51768,-7.60754 0,0 0,-3e-5 0,-3e-5 -0.38464,-4.07008 -0.87742,-8.13012 -1.49374,-12.16666 -0.63313,-4.03615 -1.28059,-7.7663 -2.17171,-11.07948 -0.37227,-1.3366 -0.65138,-2.345 -0.92706,-2.97507 0,0 -10e-6,-2e-5 -10e-6,-2e-5 -0.44028,-0.64295 -0.0869,-0.28446 0.85764,1.26346 -0.21734,-0.42563 -1.16437,-1.11183 -2.55613,-2.20896 0,0 -2e-5,-2e-5 -2e-5,-2e-5 -1.64778,-1.20539 -3.75076,-2.34344 -6.1884,-3.55261 -5.07033,-2.49638 -10.81188,-4.46384 -17.03736,-6.28084 -0.66475,-0.19402 -1.33412,-0.38606 -2.00769,-0.57658 -6.95547,-1.92684 -14.0462,-3.44375 -21.19452,-4.62042 -5.71117,-0.90951 -10.97123,-1.64941 -15.84061,-1.81457 -65.12688,-2.53504 -127.41793,-0.95904 -183.63439,-2.11433 -14.33289,-0.22326 -26.23842,-1.96612 -36.13658,-0.9748 -10.62417,0.70021 -22.6402,4.89698 -36.13457,7.3909 -34.3506,6.30457 -64.30681,10.45428 -89.125606,15.60622 -28.717942,5.99478 -47.827035,12.06165 -63.440377,17.47397 -14.551422,5.04421 -22.6113274,8.07626 -23.6895204,6.33111 z"
       id="path12538"
       inkscape:path-effect="#path-effect12540"
       inkscape:original-d="M 3.8718662,205.92253 C 57.042156,173.07275 117.81548,164.87426 177.03152,152.1283 c 12.51903,-2.69466 24.69835,-7.22983 37.41966,-8.69798 12.56571,-1.45018 25.29823,0 37.94734,0 61.33995,0 123.0106,-2.14892 184.2929,0 18.25707,0.64021 65.81718,9.34092 79.00462,26.28356 5.11837,6.57586 7.9909,36.37192 7.9909,44.11492 0,16.14908 1.4304,34.14969 -1.97299,50.06705 -4.10971,19.22076 -22.00368,33.88168 -35.81282,45.76101 -2.90991,2.50325 -4.89627,6.0944 -8.14256,8.14268 -2.29216,1.44626 -5.38629,0.92963 -7.88811,1.97202 -11.56659,4.8193 -23.62573,12.52659 -35.8145,15.8718 -10.95785,3.00738 -41.03661,11.15423 -54.74593,12.64377 -17.36852,1.88713 -35.31297,-1.56527 -52.71708,0 -12.68035,1.14044 -25.05317,1.97203 -37.93242,1.97203 -7.93766,0 -74.87814,2.57804 -79.27374,0 -2.01723,-1.18311 -3.67661,-2.89109 -5.51492,-4.33663" />
  </g>
</svg>
