<svg width="42" height="43" viewBox="0 0 42 43" fill="none" xmlns="http://www.w3.org/2000/svg">
<path d="M19.8887 42.6523L14.3564 37.1201L21.0972 30.3794C21.9028 29.5737 22.9502 28.6696 24.2393 27.667C25.5462 26.6465 26.8174 25.6976 28.0527 24.8203C26.9606 25.0173 25.8237 25.1963 24.6421 25.3574C23.4784 25.5007 22.4489 25.5723 21.5537 25.5723H0.875V17.4619H21.5537C22.4489 17.4619 23.4694 17.5425 24.6152 17.7036C25.779 17.8468 26.9069 18.0169 27.999 18.2139C26.8174 17.3545 25.5999 16.4414 24.3467 15.4746C23.0934 14.4899 22.0103 13.541 21.0972 12.6279L14.3296 5.86035L19.8618 0.328125L41.0508 21.4902L19.8887 42.6523Z" fill="black"/>
</svg>
