<svg xmlns:xlink="http://www.w3.org/1999/xlink" xmlns="http://www.w3.org/2000/svg" width="76" height="77" viewBox="0 0 76 77" fill="none"><path d="M51.1445 29.2883L59.6655 13.7956" stroke="#344154" stroke-width="2px" stroke-miterlimit="10" stroke-linecap="round" stroke-linejoin="round" fill="none"></path><path d="M61.2664 29.2882C59.7687 29.2882 58.5293 28.0487 58.5293 26.5511V24.6404C58.5293 23.1427 59.7687 21.9033 61.2664 21.9033C62.764 21.9033 64.0034 23.1427 64.0034 24.6404V26.5511C64.0034 28.0487 62.8156 29.2882 61.2664 29.2882Z" stroke="#344154" stroke-width="2px" stroke-miterlimit="10" stroke-linecap="round" stroke-linejoin="round" fill="none"></path><path d="M49.6984 21.2321C48.2008 21.2321 46.9614 19.9927 46.9614 18.495V16.5843C46.9614 15.0866 48.2008 13.8472 49.6984 13.8472C51.1961 13.8472 52.4355 15.0866 52.4355 16.5843V18.495C52.4355 19.9927 51.1961 21.2321 49.6984 21.2321Z" stroke="#344154" stroke-width="2px" stroke-miterlimit="10" stroke-linecap="round" stroke-linejoin="round" fill="none"></path><path d="M34.8257 8.21814C16.1828 8.21814 1 23.3493 1 42.0438C1 60.6866 16.1312 75.8695 34.8257 75.8695C53.4685 75.8695 68.6513 60.7383 68.6513 42.0438H34.8257V8.21814Z" stroke="#344154" stroke-width="2px" stroke-miterlimit="10" stroke-linecap="round" stroke-linejoin="round" fill="none"></path><path d="M41.0742 1.96948V35.7951H74.8999C74.8482 17.1007 59.7171 1.96948 41.0742 1.96948Z" stroke="#344154" stroke-width="2px" stroke-miterlimit="10" stroke-linecap="round" stroke-linejoin="round" fill="none"></path><path d="M31.1588 29.8047C25.8913 31.354 22.0698 36.26 22.0698 42.0439C22.0698 49.0672 27.8021 54.7995 34.8255 54.7995C40.6094 54.7995 45.4638 50.978 47.0647 45.7105" stroke="#344154" stroke-width="2px" stroke-miterlimit="10" stroke-linecap="round" stroke-linejoin="round" fill="none"></path><path d="M56.1023 47.3113C53.7268 56.8651 45.1025 63.9401 34.8257 63.9401C22.7414 63.9401 12.9294 54.1281 12.9294 42.0438C12.9294 31.9736 19.7462 23.5043 28.9901 20.9221V17.2039C17.7321 19.8377 9.31445 29.9596 9.31445 41.9922C9.31445 56.0389 20.7274 67.5034 34.8257 67.5034C47.0649 67.5034 57.3417 58.8275 59.7689 47.2597H56.1023V47.3113Z" fill="#EDA33A"></path></svg>