<?xml version="1.0" encoding="UTF-8" standalone="no"?>
<!-- Created with Inkscape (http://www.inkscape.org/) -->

<svg
   width="523"
   height="144"
   viewBox="0 0 523 144"
   version="1.1"
   id="SVGRoot"
   sodipodi:docname="pari logo  520 x 144 px transperant light v-O-1-artwork.svg"
   inkscape:version="1.2.2 (732a01da63, 2022-12-09)"
   inkscape:export-filename="pari logo  520 x 144 px transperant light v-O-1-artwork.webp"
   inkscape:export-xdpi="96"
   inkscape:export-ydpi="96"
   xmlns:inkscape="http://www.inkscape.org/namespaces/inkscape"
   xmlns:sodipodi="http://sodipodi.sourceforge.net/DTD/sodipodi-0.dtd"
   xmlns:xlink="http://www.w3.org/1999/xlink"
   xmlns="http://www.w3.org/2000/svg"
   xmlns:svg="http://www.w3.org/2000/svg">
  <sodipodi:namedview
     id="namedview1073"
     pagecolor="#ffffff"
     bordercolor="#666666"
     borderopacity="1.0"
     inkscape:pageshadow="2"
     inkscape:pageopacity="0.0"
     inkscape:pagecheckerboard="0"
     inkscape:document-units="px"
     showgrid="false"
     inkscape:zoom="2.8685466"
     inkscape:cx="299.28048"
     inkscape:cy="121.6644"
     inkscape:window-width="1920"
     inkscape:window-height="1017"
     inkscape:window-x="-8"
     inkscape:window-y="-8"
     inkscape:window-maximized="1"
     inkscape:current-layer="layer4"
     inkscape:showpageshadow="2"
     inkscape:deskcolor="#d1d1d1" />
  <defs
     id="defs1068">
    <inkscape:path-effect
       effect="powerstroke"
       id="path-effect2583"
       is_visible="true"
       lpeversion="1"
       offset_points="0.10429852,0.053938886 | 0.52828709,0.035416902 | 0.97389738,0.019952077"
       not_jump="false"
       sort_points="true"
       interpolator_type="Linear"
       interpolator_beta="0.23261391"
       start_linecap_type="round"
       linejoin_type="bevel"
       miter_limit="4"
       scale_width="8"
       end_linecap_type="round" />
    <linearGradient
       inkscape:collect="always"
       id="linearGradient64950">
      <stop
         style="stop-color:#42a6d8;stop-opacity:1;"
         offset="0"
         id="stop64946" />
      <stop
         style="stop-color:#ff3f6e;stop-opacity:1"
         offset="1"
         id="stop64948" />
    </linearGradient>
    <linearGradient
       inkscape:collect="always"
       id="linearGradient40335">
      <stop
         style="stop-color:#9139b4;stop-opacity:1"
         offset="0"
         id="stop40331" />
      <stop
         style="stop-color:#da6d73;stop-opacity:1"
         offset="1"
         id="stop40333" />
    </linearGradient>
    <linearGradient
       inkscape:collect="always"
       id="linearGradient57058">
      <stop
         style="stop-color:#42a6d8;stop-opacity:0.20503789"
         offset="0"
         id="stop57054" />
      <stop
         style="stop-color:#ff3f6e;stop-opacity:1"
         offset="1"
         id="stop57056" />
    </linearGradient>
    <inkscape:path-effect
       effect="powerstroke"
       id="path-effect55089"
       is_visible="true"
       lpeversion="1"
       offset_points="0.10429852,1.6370519 | 0.52828709,1.0749074 | 0.97389738,0.60554801"
       not_jump="false"
       sort_points="true"
       interpolator_type="Linear"
       interpolator_beta="0.23261391"
       start_linecap_type="round"
       linejoin_type="bevel"
       miter_limit="4"
       scale_width="8"
       end_linecap_type="round" />
    <linearGradient
       id="linear-gradient-3"
       x1="325"
       y1="581"
       x2="325"
       y2="69"
       gradientUnits="userSpaceOnUse"
       gradientTransform="matrix(0.99224807,0,0,0.99224807,-66.48062,-66.480619)">
      <stop
         offset="0"
         stop-color="#2274bb"
         id="stop19773" />
      <stop
         offset="1"
         stop-color="#05bbee"
         id="stop19775" />
    </linearGradient>
    <linearGradient
       inkscape:collect="always"
       id="linearGradient57444">
      <stop
         style="stop-color:#dcb687;stop-opacity:1"
         offset="0"
         id="stop57440" />
      <stop
         style="stop-color:#da6d73;stop-opacity:1"
         offset="1"
         id="stop57442" />
    </linearGradient>
    <inkscape:path-effect
       effect="powerstroke"
       id="path-effect254359"
       is_visible="true"
       lpeversion="1"
       offset_points="0.10429852,0.29715443 | 0.52828709,0.19511507 | 0.97389738,0.10991788"
       not_jump="false"
       sort_points="true"
       interpolator_type="Linear"
       interpolator_beta="0.23261391"
       start_linecap_type="round"
       linejoin_type="bevel"
       miter_limit="4"
       scale_width="8"
       end_linecap_type="round" />
    <linearGradient
       inkscape:collect="always"
       xlink:href="#linearGradient40335"
       id="linearGradient254367-2"
       gradientUnits="userSpaceOnUse"
       gradientTransform="matrix(1.3521116,-1.6996008,2.2285918,1.0311668,6.9372487,74.87068)"
       x1="11.558397"
       y1="1.422658"
       x2="33.345825"
       y2="29.588509" />
    <linearGradient
       inkscape:collect="always"
       xlink:href="#linearGradient57058"
       id="linearGradient254369-8"
       gradientUnits="userSpaceOnUse"
       gradientTransform="matrix(1.3521116,-1.6996008,2.2285918,1.0311668,6.9372487,74.87068)"
       x1="3.6307125"
       y1="16.017401"
       x2="36.339836"
       y2="16.017401" />
    <linearGradient
       inkscape:collect="always"
       xlink:href="#linearGradient57444"
       id="linearGradient2585"
       gradientUnits="userSpaceOnUse"
       x1="199.0811"
       y1="325.50281"
       x2="388.49496"
       y2="325.50281" />
    <linearGradient
       inkscape:collect="always"
       xlink:href="#linearGradient64950"
       id="linearGradient2587"
       gradientUnits="userSpaceOnUse"
       gradientTransform="matrix(0.29910576,0,0,0.29910576,-32.901419,-11.318746)"
       x1="1433.1198"
       y1="293.9957"
       x2="1749.756"
       y2="293.9957" />
  </defs>
  <g
     inkscape:groupmode="layer"
     id="layer4"
     inkscape:label="light 1">
    <g
       aria-label="pari"
       transform="scale(1.0020234,0.99798069)"
       id="text27397-7-7"
       style="font-size:103.776px;line-height:1.25;font-family:'Poiret One';-inkscape-font-specification:'Poiret One';letter-spacing:6.03217px;display:inline;fill:#f4f4f4;stroke:#f4f4f4;stroke-width:7.67236;stroke-linejoin:round;paint-order:markers stroke fill">
      <path
         d="M 174.4461,114.19766 V 46.743259 h 3.32084 v 11.41536 q 2.80195,-5.70768 8.71718,-9.132288 6.01901,-3.424608 12.45312,-3.424608 10.27382,0 17.43437,7.26432 7.26432,7.160544 7.26432,17.226816 0,10.066272 -7.26432,17.330592 -7.16055,7.160544 -17.43437,7.160544 -6.22656,0 -12.14179,-3.320832 -5.91523,-3.424608 -9.02851,-9.132288 v 32.066785 z m 3.11328,-44.001025 q 0,8.717184 6.33034,15.151296 6.43411,6.330336 15.1513,6.330336 8.82096,0 15.04752,-6.330336 6.22656,-6.434112 6.22656,-15.151296 0,-8.82096 -6.33034,-15.255072 -6.22656,-6.434112 -14.94374,-6.434112 -8.71719,0 -15.1513,6.537888 -6.33034,6.434112 -6.33034,15.151296 z"
         id="path7505" />
      <path
         d="m 286.12227,46.743259 v 46.6992 h -3.32083 V 81.819547 q -2.90573,5.915232 -8.71719,9.33984 -5.81145,3.424608 -12.45312,3.424608 -10.17004,0 -17.43436,-7.160544 -7.26432,-7.26432 -7.26432,-17.330592 0,-10.066272 7.26432,-17.226816 7.26432,-7.26432 17.43436,-7.26432 6.64167,0 12.66068,3.528384 6.12278,3.528384 8.50963,9.33984 V 46.743259 Z m -45.86899,23.453376 q 0,8.717184 6.33033,15.151296 6.43412,6.330336 15.1513,6.330336 8.82096,0 15.04752,-6.330336 6.22656,-6.434112 6.22656,-15.151296 0,-8.82096 -6.33034,-15.255072 -6.22656,-6.434112 -14.94374,-6.434112 -8.71718,0 -15.1513,6.537888 -6.33033,6.434112 -6.33033,15.151296 z"
         id="path7507" />
      <path
         d="m 331.90068,53.073595 q -4.56615,-4.566144 -10.06628,-4.566144 -5.50012,0 -9.75494,4.15104 -4.15104,4.15104 -4.15104,9.651168 v 31.1328 h -3.32083 v -46.6992 h 3.32083 v 6.952992 q 1.86797,-3.528384 5.81146,-5.811456 3.94348,-2.283072 8.82096,-2.283072 4.87747,0 9.33984,3.320832 z"
         id="path7509" />
      <path
         d="m 351.42367,46.847035 v 46.595424 h -3.32083 V 46.847035 Z m -1.66041,-11.41536 q -3.00951,0 -3.00951,-2.801952 0,-2.801952 3.00951,-2.801952 3.0095,0 3.0095,2.801952 0,2.801952 -3.0095,2.801952 z"
         id="path7511" />
    </g>
    <g
       aria-label="css"
       transform="scale(1.0023621,0.99764349)"
       id="text21510-5-9"
       style="font-size:81.6732px;line-height:1.25;font-family:'Poiret One';-inkscape-font-specification:'Poiret One';letter-spacing:2.39285px;display:inline;fill:url(#linearGradient2587);stroke-width:0.59018">
      <path
         d="m 415.43617,95.973624 h -0.73506 q -7.84063,0 -13.47608,-5.798797 -5.63545,-5.798797 -5.63545,-13.557751 0,-7.840628 5.71712,-13.476079 5.71713,-5.717124 14.0478,-5.717124 8.33066,0 14.21113,6.288837 v 4.165333 q -2.53187,-3.756967 -6.45218,-5.962144 -3.83864,-2.205176 -8.08565,-2.205176 -6.77887,0 -11.84261,5.063738 -4.98207,4.982065 -4.98207,11.924288 0,6.942222 4.98207,12.00596 5.06374,4.982066 11.84261,4.982066 4.24701,0 8.08565,-2.205177 3.92031,-2.205176 6.45218,-6.043817 v 4.247007 q -5.71712,6.288836 -14.12946,6.288836 z"
         id="path7538" />
      <path
         d="m 446.90466,59.465703 q -2.1235,0 -3.75696,1.388444 -1.63347,1.388445 -1.63347,3.430275 0,2.04183 1.79681,3.756967 1.87849,1.715137 4.41036,3.185255 2.61354,1.388445 5.22708,3.021909 2.61354,1.633464 4.41035,4.165333 1.87849,2.531869 1.87849,5.798797 0,4.818719 -3.6753,8.248994 -3.59362,3.348601 -8.73903,3.348601 -3.26693,0 -6.12549,-1.388444 -2.77689,-1.470118 -4.08366,-3.838641 v -3.920314 q 3.10358,6.860549 9.96413,6.860549 4.24701,0 7.10557,-2.613542 2.94023,-2.613543 2.94023,-5.798797 0,-3.266929 -1.87848,-5.472105 -1.79681,-2.205176 -4.41035,-3.756967 -2.61354,-1.551791 -5.22709,-3.021909 -2.53187,-1.551791 -4.41035,-3.675294 -1.79681,-2.205176 -1.79681,-5.063738 0,-2.940236 2.28685,-4.900393 2.36852,-2.04183 6.04382,-2.04183 3.67529,0 6.28883,2.858562 v 3.348602 q -2.61354,-3.920314 -6.61553,-3.920314 z"
         id="path7540" />
      <path
         d="m 477.39308,59.465703 q -2.1235,0 -3.75697,1.388444 -1.63346,1.388445 -1.63346,3.430275 0,2.04183 1.79681,3.756967 1.87848,1.715137 4.41035,3.185255 2.61355,1.388445 5.22709,3.021909 2.61354,1.633464 4.41035,4.165333 1.87849,2.531869 1.87849,5.798797 0,4.818719 -3.6753,8.248994 -3.59362,3.348601 -8.73903,3.348601 -3.26693,0 -6.12549,-1.388444 -2.77689,-1.470118 -4.08366,-3.838641 v -3.920314 q 3.10358,6.860549 9.96413,6.860549 4.24701,0 7.10557,-2.613542 2.94023,-2.613543 2.94023,-5.798797 0,-3.266929 -1.87848,-5.472105 -1.79681,-2.205176 -4.41035,-3.756967 -2.61355,-1.551791 -5.22709,-3.021909 -2.53187,-1.551791 -4.41035,-3.675294 -1.79681,-2.205176 -1.79681,-5.063738 0,-2.940236 2.28685,-4.900393 2.36852,-2.04183 6.04381,-2.04183 3.6753,0 6.28884,2.858562 v 3.348602 q -2.61354,-3.920314 -6.61553,-3.920314 z"
         id="path7542" />
    </g>
    <path
       id="path25853-6-3-2"
       style="display:inline;fill:#da6d73;stroke:#010000;stroke-width:0.496361;stroke-linecap:round;stroke-linejoin:round"
       transform="scale(1,-1)"
       d="m 380.71281,-90.701149 a 4.8788214,4.8558545 0 0 1 -4.87883,4.855855 4.8788214,4.8558545 0 0 1 -4.87882,-4.855855 4.8788214,4.8558545 0 0 1 4.87882,-4.855854 4.8788214,4.8558545 0 0 1 4.87883,4.855854 z" />
    <path
       fill="#fdd888"
       d="m 61.864723,33.168045 c 26.353091,-4.922401 51.205797,1.952051 55.502237,15.349837 4.30087,13.399902 -13.57585,28.248015 -39.927595,33.168733 -0.895169,0.167103 -1.782887,0.286506 -2.675214,0.427036 L 70.892745,70.051855 C 91.3887,66.225751 105.6832,55.884272 102.81262,46.952602 99.945677,38.020262 81.005429,33.881496 60.510841,37.705918 l 0.07652,-0.01574 -0.0774,0.01302 C 37.086336,42.074391 21.292182,55.577163 25.233717,67.857434 27.140066,73.796849 33.335441,78.342247 41.846753,80.980635 31.587328,78.228651 24.113827,73.124441 21.935398,66.331334 17.635369,52.934181 35.512086,38.086032 61.864723,33.168081 Z"
       id="path147895-1-8"
       style="display:inline;mix-blend-mode:normal;fill:url(#linearGradient254367-2);fill-opacity:1;stroke:url(#linearGradient254369-8);stroke-width:2.9509;stroke-linejoin:round;stroke-miterlimit:4;stroke-dasharray:none;stroke-opacity:1;paint-order:markers stroke fill" />
    <path
       style="display:inline;mix-blend-mode:normal;fill:#f4f4f4;fill-opacity:1;fill-rule:nonzero;stroke:none;stroke-width:0.59018px;stroke-linecap:butt;stroke-linejoin:miter;stroke-opacity:1"
       d="m 47.75576,75.10756 2.746615,5.801657 11.299311,23.521173 11.846597,24.73436 0.687391,1.45197 a 0.15961662,0.15961662 90 0 0 0.288532,-0.1366 L 73.936816,129.02815 62.31386,104.18792 51.282401,80.539938 48.535786,74.73828 a 0.43151109,0.43151109 90 0 0 -0.780026,0.36928 z"
       id="path55087-0-9"
       inkscape:path-effect="#path-effect2583"
       inkscape:original-d="m 48.145773,74.92292 26.334167,55.6255"
       sodipodi:nodetypes="cc"
       inkscape:transform-center-x="22.473619"
       inkscape:transform-center-y="-47.555627" />
    <path
       sodipodi:type="star"
       style="display:inline;mix-blend-mode:normal;fill:#dcb687;fill-opacity:1;fill-rule:evenodd;stroke:url(#linearGradient2585);stroke-width:9.5063;stroke-linejoin:round;stroke-miterlimit:4;stroke-dasharray:none;stroke-opacity:1;paint-order:markers stroke fill"
       id="path167453-2-7"
       inkscape:flatsided="false"
       sodipodi:sides="5"
       sodipodi:cx="286.63031"
       sodipodi:cy="327.55182"
       sodipodi:r1="95.596092"
       sodipodi:r2="40.153797"
       sodipodi:arg1="1.1872176"
       sodipodi:arg2="1.8243899"
       inkscape:rounded="0"
       inkscape:randomized="0"
       inkscape:transform-center-x="-6.5841106"
       inkscape:transform-center-y="-2.1421686"
       transform="matrix(0.31094988,-0.01123471,0.01128826,0.30947493,-12.776266,-22.471909)"
       d="m 322.40634,416.20106 -45.84998,-49.77968 -63.18109,22.54959 33.17487,-58.9887 -40.96996,-53.12058 66.35317,13.32267 37.86027,-55.37991 7.83365,67.22255 64.36888,18.89392 -61.51171,28.22315 z" />
  </g>
</svg>
