<svg xmlns:xlink="http://www.w3.org/1999/xlink" xmlns="http://www.w3.org/2000/svg" width="71" height="70" viewBox="0 0 71 70" fill="none"><path d="M63.3726 43.9747H6.73645C3.54953 43.9747 1 46.5697 1 49.7111V68.1953H10.2876C11.6534 68.1953 12.7916 67.1026 12.7916 65.6913V65.5091C12.7916 61.9125 15.7053 58.9987 19.302 58.9987H50.8981C54.4947 58.9987 57.4085 61.9125 57.4085 65.5091V65.6913C57.4085 67.0571 58.5011 68.1953 59.9125 68.1953H69.2001V49.7111C69.1545 46.5242 66.5595 43.9747 63.3726 43.9747Z" stroke="#344154" stroke-width="2px" stroke-miterlimit="10" stroke-linecap="round" stroke-linejoin="round" fill="none"></path><path d="M42.5664 31.5002V43.9747" stroke="#344154" stroke-width="2px" stroke-miterlimit="10" stroke-linecap="round" stroke-linejoin="round" fill="none"></path><path d="M27.3604 31.5002V43.9747" stroke="#344154" stroke-width="2px" stroke-miterlimit="10" stroke-linecap="round" stroke-linejoin="round" fill="none"></path><path d="M37.7657 16.5282C41.3664 15.0367 43.0763 10.9086 41.5848 7.30789C40.0933 3.70714 35.9652 1.99726 32.3645 3.48877C28.7637 4.98028 27.0538 9.10838 28.5453 12.7091C30.0369 16.3099 34.165 18.0198 37.7657 16.5282Z" stroke="#344154" stroke-width="2px" stroke-miterlimit="10" stroke-linecap="round" stroke-linejoin="round" fill="none"></path><path d="M21.624 43.9748V26.128C21.624 23.5785 23.6727 21.5297 26.2223 21.5297H43.9325C46.482 21.5297 48.5307 23.5785 48.5307 26.128V43.9748" stroke="#344154" stroke-width="2px" stroke-miterlimit="10" stroke-linecap="round" stroke-linejoin="round" fill="none"></path><path d="M35.0547 21.4841V29.6791" stroke="#344154" stroke-width="2px" stroke-miterlimit="10" stroke-linecap="round" stroke-linejoin="round" fill="none"></path><path d="M60.2764 27.2206V36.8269" stroke="#344154" stroke-width="2px" stroke-miterlimit="10" stroke-linecap="round" stroke-linejoin="round" fill="none"></path><path d="M59.8482 11.9201C60.5416 8.98364 58.7232 6.0411 55.7868 5.34772C52.8504 4.65435 49.9078 6.47271 49.2144 9.40914C48.5211 12.3456 50.3394 15.2881 53.2759 15.9815C56.2123 16.6749 59.1548 14.8565 59.8482 11.9201Z" stroke="#344154" stroke-width="2px" stroke-miterlimit="10" stroke-linecap="round" stroke-linejoin="round" fill="none"></path><path d="M48.5303 19.4809H61.3235C63.2812 19.4809 64.8746 21.0744 64.8746 23.032V36.8269" stroke="#344154" stroke-width="2px" stroke-miterlimit="10" stroke-linecap="round" stroke-linejoin="round" fill="none"></path><path d="M54.4941 19.4809V25.8092" stroke="#344154" stroke-width="2px" stroke-miterlimit="10" stroke-linecap="round" stroke-linejoin="round" fill="none"></path><path d="M9.69629 27.2206V36.8269" stroke="#344154" stroke-width="2px" stroke-miterlimit="10" stroke-linecap="round" stroke-linejoin="round" fill="none"></path><path d="M17.775 15.6863C20.5627 14.5316 21.8865 11.3356 20.7318 8.54794C19.5771 5.76026 16.3811 4.43649 13.5934 5.5912C10.8058 6.74592 9.48198 9.94187 10.6367 12.7295C11.7914 15.5172 14.9874 16.841 17.775 15.6863Z" stroke="#344154" stroke-width="2px" stroke-miterlimit="10" stroke-linecap="round" stroke-linejoin="round" fill="none"></path><path d="M5.23438 36.827V23.0322C5.23438 21.0745 6.82786 19.481 8.78554 19.481H22.125" stroke="#344154" stroke-width="2px" stroke-miterlimit="10" stroke-linecap="round" stroke-linejoin="round" fill="none"></path><path d="M15.6602 19.481V25.8093" stroke="#344154" stroke-width="2px" stroke-miterlimit="10" stroke-linecap="round" stroke-linejoin="round" fill="none"></path><path d="M65.9679 49.7111C65.9679 48.2998 64.8297 47.1161 63.3728 47.1161H6.7367C5.32535 47.1161 4.1416 48.2543 4.1416 49.7111V51.7144H65.9679V49.7111Z" fill="#EDA33A"></path></svg>