<?xml version="1.0" encoding="UTF-8" standalone="no"?>
<!-- Created with Inkscape (http://www.inkscape.org/) -->

<svg
   width="523.26965"
   height="144"
   viewBox="0 0 523.26965 144"
   version="1.1"
   id="SVGRoot"
   xmlns:xlink="http://www.w3.org/1999/xlink"
   xmlns="http://www.w3.org/2000/svg"
   xmlns:svg="http://www.w3.org/2000/svg">
  <defs
     id="defs1068">
    <linearGradient
       xlink:href="#linearGradient64950"
       id="linearGradient64952"
       x1="1433.1198"
       y1="293.9957"
       x2="1749.756"
       y2="293.9957"
       gradientUnits="userSpaceOnUse"
       gradientTransform="matrix(1.0741421,0,0,1.0741421,-127.15087,-9.0609849)" />
    <linearGradient
       id="linearGradient64950">
      <stop
         style="stop-color:#42a6d8;stop-opacity:1;"
         offset="0"
         id="stop64946" />
      <stop
         style="stop-color:#ff3f6e;stop-opacity:1"
         offset="1"
         id="stop64948" />
    </linearGradient>
    <linearGradient
       xlink:href="#linearGradient40335"
       id="linearGradient169630"
       gradientUnits="userSpaceOnUse"
       x1="11.558397"
       y1="1.422658"
       x2="33.345825"
       y2="29.588509"
       gradientTransform="matrix(4.8442311,-6.1179863,7.9844103,3.7118508,13.843466,263.75189)" />
    <linearGradient
       id="linearGradient40335">
      <stop
         style="stop-color:#9139b4;stop-opacity:1"
         offset="0"
         id="stop40331" />
      <stop
         style="stop-color:#da6d73;stop-opacity:1"
         offset="1"
         id="stop40333" />
    </linearGradient>
    <linearGradient
       xlink:href="#linearGradient57058"
       id="linearGradient36978"
       x1="3.6307125"
       y1="16.017401"
       x2="36.339836"
       y2="16.017401"
       gradientUnits="userSpaceOnUse"
       gradientTransform="matrix(4.8442311,-6.1179863,7.9844103,3.7118508,13.843466,263.75189)" />
    <linearGradient
       id="linearGradient57058">
      <stop
         style="stop-color:#42a6d8;stop-opacity:0.20503789"
         offset="0"
         id="stop57054" />
      <stop
         style="stop-color:#ff3f6e;stop-opacity:1"
         offset="1"
         id="stop57056" />
    </linearGradient>
    <linearGradient
       xlink:href="#linear-gradient-3"
       id="linearGradient148934"
       x1="4.862978"
       y1="8.0491552"
       x2="33.808693"
       y2="31.435778"
       gradientUnits="userSpaceOnUse" />
    <linearGradient
       id="linear-gradient-3"
       x1="325"
       y1="581"
       x2="325"
       y2="69"
       gradientUnits="userSpaceOnUse"
       gradientTransform="matrix(0.99224807,0,0,0.99224807,-66.48062,-66.480619)">
      <stop
         offset="0"
         stop-color="#2274bb"
         id="stop19773" />
      <stop
         offset="1"
         stop-color="#05bbee"
         id="stop19775" />
    </linearGradient>
    <linearGradient
       xlink:href="#linearGradient57444"
       id="linearGradient57446"
       x1="199.0811"
       y1="325.50281"
       x2="388.49496"
       y2="325.50281"
       gradientUnits="userSpaceOnUse" />
    <linearGradient
       id="linearGradient57444">
      <stop
         style="stop-color:#dcb687;stop-opacity:1"
         offset="0"
         id="stop57440" />
      <stop
         style="stop-color:#da6d73;stop-opacity:1"
         offset="1"
         id="stop57442" />
    </linearGradient>
    <linearGradient
       xlink:href="#linearGradient64950"
       id="linearGradient7116"
       gradientUnits="userSpaceOnUse"
       gradientTransform="matrix(1.0741421,0,0,1.0741421,-127.15087,-9.0609849)"
       x1="1433.1198"
       y1="293.9957"
       x2="1749.756"
       y2="293.9957" />
    <linearGradient
       xlink:href="#linearGradient64950"
       id="linearGradient7118"
       gradientUnits="userSpaceOnUse"
       gradientTransform="matrix(1.0741421,0,0,1.0741421,-127.15087,-9.0609849)"
       x1="1433.1198"
       y1="293.9957"
       x2="1749.756"
       y2="293.9957" />
    <linearGradient
       xlink:href="#linearGradient64950"
       id="linearGradient7120"
       gradientUnits="userSpaceOnUse"
       gradientTransform="matrix(1.0741421,0,0,1.0741421,-127.15087,-9.0609849)"
       x1="1433.1198"
       y1="293.9957"
       x2="1749.756"
       y2="293.9957" />
  </defs>
  <g
     id="layer1"
     style="display:inline"
     transform="translate(0.13484778)">
    <g
       id="g2473"
       style="display:inline;mix-blend-mode:normal;stroke-width:2.11946"
       transform="matrix(0.28258291,0,0,0.28125,-0.13484778,0)">
      <rect
         style="display:inline;fill:none;fill-opacity:1;fill-rule:evenodd;stroke:none;stroke-width:6.3584;stroke-linejoin:round;stroke-miterlimit:4;stroke-dasharray:none;stroke-opacity:1;paint-order:markers stroke fill"
         id="rect78305"
         width="1851.7386"
         height="512"
         x="0"
         y="0"
         rx="26.815086"
         ry="26.815086" />
      <g
         id="g77892"
         transform="translate(-2.0147442,-37.343833)"
         style="display:inline;stroke-width:2.11946">
        <g
           aria-label="pari"
           transform="scale(0.99966212,1.000338)"
           id="text27397"
           style="font-size:372.679px;line-height:1.25;font-family:'Poiret One';-inkscape-font-specification:'Poiret One';letter-spacing:21.6626px;fill:#211730;stroke:#211730;stroke-width:27.553;stroke-linejoin:round;paint-order:markers stroke fill">
          <path
             d="M 617.46804,441.6803 V 199.43896 h 11.92573 v 40.99469 q 10.06233,-20.49735 31.30503,-32.79576 21.61538,-12.2984 44.72148,-12.2984 36.89522,0 62.61007,26.08753 26.08753,25.71485 26.08753,61.86471 0,36.14986 -26.08753,62.23739 -25.71485,25.71485 -62.61007,25.71485 -22.36074,0 -43.60344,-11.92573 -21.2427,-12.2984 -32.42307,-32.79575 V 441.6803 Z m 11.18037,-158.01589 q 0,31.30503 22.73342,54.41113 23.10609,22.73342 54.41113,22.73342 31.67771,0 54.03845,-22.73342 22.36074,-23.1061 22.36074,-54.41113 0,-31.67772 -22.73342,-54.78381 -22.36074,-23.1061 -53.66577,-23.1061 -31.30504,0 -54.41113,23.47878 -22.73342,23.10609 -22.73342,54.41113 z"
             id="path6932" />
          <path
             d="M 1018.5179,199.43896 V 367.1445 h -11.9257 v -41.74005 q -10.43501,21.24271 -31.30503,33.54111 -20.87003,12.29841 -44.72148,12.29841 -36.52254,0 -62.61007,-25.71485 -26.08753,-26.08753 -26.08753,-62.23739 0,-36.14986 26.08753,-61.86471 26.08753,-26.08753 62.61007,-26.08753 23.85145,0 45.46683,12.67108 21.98807,12.67109 30.55968,33.54111 v -42.11272 z m -164.72408,84.22545 q 0,31.30503 22.73342,54.41113 23.10609,22.73342 54.41113,22.73342 31.67771,0 54.03845,-22.73342 22.36078,-23.1061 22.36078,-54.41113 0,-31.67772 -22.73346,-54.78381 -22.36074,-23.1061 -53.66577,-23.1061 -31.30504,0 -54.41113,23.47878 -22.73342,23.10609 -22.73342,54.41113 z"
             id="path6934" />
          <path
             d="m 1182.9167,222.17238 q -16.3979,-16.39788 -36.1499,-16.39788 -19.752,0 -35.0318,14.90716 -14.9072,14.90716 -14.9072,34.65915 V 367.1445 h -11.9257 V 199.43896 h 11.9257 v 24.96949 q 6.7082,-12.67109 20.87,-20.87002 14.1618,-8.19894 31.6778,-8.19894 17.5159,0 33.5411,11.92573 z"
             id="path6936" />
          <path
             d="M 1253.0274,199.81164 V 367.1445 h -11.9258 V 199.81164 Z m -5.9629,-40.99469 q -10.8077,0 -10.8077,-10.06233 0,-10.06234 10.8077,-10.06234 10.8077,0 10.8077,10.06234 0,10.06233 -10.8077,10.06233 z"
             id="path6938" />
        </g>
        <g
           aria-label="css"
           id="text21510"
           style="font-size:293.303px;line-height:1.25;font-family:'Poiret One';-inkscape-font-specification:'Poiret One';letter-spacing:8.59314px;display:inline;fill:url(#linearGradient64952)">
          <path
             d="m 1482.9093,376.24504 h -2.6397 q -28.1571,0 -48.395,-20.82452 -20.2379,-20.82451 -20.2379,-48.6883 0,-28.15708 20.5312,-48.39499 20.5312,-20.53121 50.4481,-20.53121 29.9169,0 51.0348,22.58433 v 14.95845 q -9.0924,-13.49194 -23.171,-21.41112 -13.7852,-7.91918 -29.037,-7.91918 -24.3441,0 -42.5289,18.18479 -17.8915,17.89148 -17.8915,42.82224 0,24.93075 17.8915,43.11554 18.1848,17.89148 42.5289,17.89148 15.2518,0 29.037,-7.91918 14.0786,-7.91918 23.171,-21.70442 v 15.25176 q -20.5313,22.58433 -50.7415,22.58433 z"
             id="path6965"
             style="fill:url(#linearGradient7116)" />
          <path
             d="m 1595.9183,245.13859 q -7.6259,0 -13.4919,4.98615 -5.8661,4.98615 -5.8661,12.31873 0,7.33258 6.4527,13.49194 6.7459,6.15936 15.8383,11.43882 9.3857,4.98615 18.7714,10.85221 9.3857,5.86606 15.8384,14.95845 6.7459,9.09239 6.7459,20.82451 0,17.30488 -13.1986,29.62361 -12.9053,12.02542 -31.3834,12.02542 -11.7321,0 -21.9977,-4.98615 -9.9723,-5.27945 -14.6652,-13.78524 v -14.07855 q 11.1455,24.63746 35.783,24.63746 15.2517,0 25.5173,-9.3857 10.5589,-9.3857 10.5589,-20.82451 0,-11.73212 -6.7459,-19.6513 -6.4527,-7.91919 -15.8384,-13.49194 -9.3857,-5.57276 -18.7714,-10.85221 -9.0924,-5.57276 -15.8383,-13.19864 -6.4527,-7.91918 -6.4527,-18.18479 0,-10.5589 8.2125,-17.59818 8.5058,-7.33257 21.7044,-7.33257 13.1986,0 22.5843,10.2656 v 12.02543 q -9.3857,-14.07855 -23.7575,-14.07855 z"
             id="path6967"
             style="fill:url(#linearGradient7118)" />
          <path
             d="m 1705.4076,245.13859 q -7.6259,0 -13.4919,4.98615 -5.8661,4.98615 -5.8661,12.31873 0,7.33258 6.4527,13.49194 6.7459,6.15936 15.8383,11.43882 9.3857,4.98615 18.7714,10.85221 9.3857,5.86606 15.8384,14.95845 6.746,9.09239 6.746,20.82451 0,17.30488 -13.1987,29.62361 -12.9053,12.02542 -31.3834,12.02542 -11.7321,0 -21.9977,-4.98615 -9.9723,-5.27945 -14.6652,-13.78524 v -14.07855 q 11.1455,24.63746 35.783,24.63746 15.2518,0 25.5174,-9.3857 10.5589,-9.3857 10.5589,-20.82451 0,-11.73212 -6.746,-19.6513 -6.4527,-7.91919 -15.8384,-13.49194 -9.3857,-5.57276 -18.7714,-10.85221 -9.0923,-5.57276 -15.8383,-13.19864 -6.4527,-7.91918 -6.4527,-18.18479 0,-10.5589 8.2125,-17.59818 8.5058,-7.33257 21.7044,-7.33257 13.1987,0 22.5844,10.2656 v 12.02543 q -9.3857,-14.07855 -23.7576,-14.07855 z"
             id="path6969"
             style="fill:url(#linearGradient7120)" />
        </g>
        <path
           id="path25853-6"
           style="display:inline;fill:#da6d73;stroke:#010000;stroke-width:1.78254;stroke-linecap:round;stroke-linejoin:round"
           transform="scale(1,-1)"
           d="m 1354.9897,-358.08002 a 17.479429,17.479429 0 0 1 -17.4794,17.47943 17.479429,17.479429 0 0 1 -17.4795,-17.47943 17.479429,17.479429 0 0 1 17.4795,-17.47943 17.479429,17.479429 0 0 1 17.4794,17.47943 z" />
      </g>
      <rect
         style="display:inline;fill:none;fill-opacity:0.997028;fill-rule:evenodd;stroke:none;stroke-width:27.553;stroke-linejoin:round;stroke-miterlimit:4;stroke-dasharray:none;stroke-opacity:1;paint-order:markers stroke fill"
         id="rect75934"
         width="512"
         height="512"
         x="0"
         y="0"
         rx="0.36102441"
         ry="7.6343856" />
      <path
         fill="#fdd888"
         d="m 210.63298,113.63656 c 94.41566,-17.718988 183.4558,7.02669 198.84869,55.25428 15.40886,48.23501 -48.63833,101.68328 -143.04914,119.39615 -3.20716,0.60153 -6.38759,1.03135 -9.58453,1.5372 L 242.97783,246.4058 c 73.43114,-13.77272 124.64425,-50.9985 114.3599,-83.14949 -10.27153,-32.15339 -78.12902,-47.05154 -151.55532,-33.28493 l 0.27424,-0.0567 -0.27738,0.0468 C 121.85914,145.6963 65.273102,194.30174 79.394488,238.50651 c 6.82989,21.3799 29.026192,37.74182 59.519862,47.23911 C 102.15765,275.83943 75.382342,257.46597 67.577561,233.01305 52.171841,184.78786 116.21902,131.3396 210.63298,113.63656 Z"
         id="path147895"
         style="display:inline;mix-blend-mode:normal;fill:url(#linearGradient169630);fill-opacity:1;stroke:url(#linearGradient36978);stroke-width:10.5973;stroke-linejoin:round;stroke-miterlimit:4;stroke-dasharray:none;stroke-opacity:1;paint-order:markers stroke fill" />
      <path
         style="display:inline;mix-blend-mode:normal;fill:#211730;fill-opacity:1;fill-rule:nonzero;stroke:none;stroke-width:2.11946px;stroke-linecap:butt;stroke-linejoin:miter;stroke-opacity:1"
         d="m 166.73975,263.07172 8.44915,21.49016 38.53229,85.7151 39.59305,90.44175 2.11455,5.37831 a 4.8443841,4.8443841 90 0 0 9.0169,-3.54512 l -2.11456,-5.3783 -32.60406,-93.18956 -30.1617,-89.00612 -8.44914,-21.49016 a 13.096415,13.096415 90 0 0 -24.37648,9.58394 z"
         id="path55087" />
      <g
         id="g169642"
         transform="matrix(1.1147788,0,0,1.1147386,-44.908941,-99.896457)"
         style="stroke-width:1.90128">
        <g
           id="g147907"
           transform="matrix(4.345464,-5.4882699,7.162327,3.3297948,52.703197,326.2185)"
           style="display:inline;fill:url(#linearGradient148934);fill-opacity:1;stroke:url(#linearGradient148934);stroke-width:1.29632;stroke-linejoin:round;stroke-miterlimit:4;stroke-dasharray:none;stroke-opacity:1;paint-order:stroke fill markers" />
        <path
           style="fill:#dcb687;fill-opacity:1;fill-rule:evenodd;stroke:url(#linearGradient57446);stroke-width:9.50639;stroke-linejoin:round;stroke-miterlimit:4;stroke-dasharray:none;stroke-opacity:1;paint-order:markers stroke fill"
           id="path167453"
           transform="rotate(-2.0790667,322.15561,299.48406)"
           d="m 322.40634,416.20106 -45.84998,-49.77968 -63.18109,22.54959 33.17487,-58.9887 -40.96996,-53.12058 66.35317,13.32267 37.86027,-55.37991 7.83365,67.22255 64.36888,18.89392 -61.51171,28.22315 z" />
      </g>
    </g>
  </g>
</svg>
