<svg width="1440" height="269" viewBox="0 0 1440 269" fill="none" xmlns="http://www.w3.org/2000/svg">
<rect width="1440" height="269" fill="white"/>
<path d="M692.57 54.4205C692.479 53.5038 692.089 52.7917 691.399 52.2841C690.71 51.7765 689.774 51.5227 688.592 51.5227C687.789 51.5227 687.111 51.6364 686.558 51.8636C686.005 52.0833 685.581 52.3902 685.286 52.7841C684.998 53.178 684.854 53.625 684.854 54.125C684.839 54.5417 684.926 54.9053 685.115 55.2159C685.312 55.5265 685.581 55.7955 685.922 56.0227C686.263 56.2424 686.657 56.4356 687.104 56.6023C687.551 56.7614 688.028 56.8977 688.536 57.0114L690.626 57.5114C691.642 57.7386 692.573 58.0417 693.422 58.4205C694.27 58.7992 695.005 59.2652 695.626 59.8182C696.248 60.3712 696.729 61.0227 697.07 61.7727C697.418 62.5227 697.596 63.3826 697.604 64.3523C697.596 65.7765 697.232 67.0114 696.513 68.0568C695.801 69.0947 694.77 69.9015 693.422 70.4773C692.081 71.0455 690.464 71.3295 688.57 71.3295C686.691 71.3295 685.054 71.0417 683.661 70.4659C682.274 69.8902 681.191 69.0379 680.411 67.9091C679.638 66.7727 679.232 65.3674 679.195 63.6932H683.956C684.009 64.4735 684.232 65.125 684.626 65.6477C685.028 66.1629 685.562 66.553 686.229 66.8182C686.903 67.0758 687.664 67.2045 688.513 67.2045C689.346 67.2045 690.07 67.0833 690.683 66.8409C691.304 66.5985 691.786 66.2614 692.126 65.8295C692.467 65.3977 692.638 64.9015 692.638 64.3409C692.638 63.8182 692.482 63.3788 692.172 63.0227C691.869 62.6667 691.422 62.3636 690.831 62.1136C690.248 61.8636 689.532 61.6364 688.683 61.4318L686.149 60.7955C684.187 60.3182 682.638 59.572 681.501 58.5568C680.365 57.5417 679.801 56.1742 679.808 54.4545C679.801 53.0455 680.176 51.8144 680.933 50.7614C681.698 49.7083 682.748 48.8864 684.081 48.2955C685.414 47.7045 686.929 47.4091 688.626 47.4091C690.354 47.4091 691.861 47.7045 693.149 48.2955C694.445 48.8864 695.452 49.7083 696.172 50.7614C696.892 51.8144 697.263 53.0341 697.286 54.4205H692.57ZM710.607 53.5455V57.1818H700.095V53.5455H710.607ZM702.482 49.3636H707.322V65.6364C707.322 66.0833 707.391 66.4318 707.527 66.6818C707.663 66.9242 707.853 67.0947 708.095 67.1932C708.345 67.2917 708.633 67.3409 708.959 67.3409C709.186 67.3409 709.413 67.322 709.641 67.2841C709.868 67.2386 710.042 67.2045 710.163 67.1818L710.925 70.7841C710.682 70.8598 710.341 70.947 709.902 71.0455C709.463 71.1515 708.929 71.2159 708.3 71.2386C707.133 71.2841 706.11 71.1288 705.232 70.7727C704.36 70.4167 703.682 69.8636 703.197 69.1136C702.713 68.3636 702.474 67.4167 702.482 66.2727V49.3636ZM719.237 71.3295C718.124 71.3295 717.131 71.1364 716.26 70.75C715.389 70.3561 714.699 69.7765 714.192 69.0114C713.692 68.2386 713.442 67.2765 713.442 66.125C713.442 65.1553 713.62 64.3409 713.976 63.6818C714.332 63.0227 714.817 62.4924 715.43 62.0909C716.044 61.6894 716.741 61.3864 717.521 61.1818C718.309 60.9773 719.135 60.8333 719.999 60.75C721.014 60.6439 721.832 60.5455 722.453 60.4545C723.074 60.3561 723.525 60.2121 723.805 60.0227C724.086 59.8333 724.226 59.553 724.226 59.1818V59.1136C724.226 58.3939 723.999 57.8371 723.544 57.4432C723.097 57.0492 722.461 56.8523 721.635 56.8523C720.764 56.8523 720.071 57.0455 719.555 57.4318C719.04 57.8106 718.699 58.2879 718.533 58.8636L714.055 58.5C714.283 57.4394 714.73 56.5227 715.396 55.75C716.063 54.9697 716.923 54.3712 717.976 53.9545C719.036 53.5303 720.264 53.3182 721.658 53.3182C722.627 53.3182 723.555 53.4318 724.442 53.6591C725.336 53.8864 726.127 54.2386 726.817 54.7159C727.514 55.1932 728.063 55.8068 728.464 56.5568C728.866 57.2992 729.067 58.1894 729.067 59.2273V71H724.476V68.5795H724.339C724.059 69.125 723.684 69.6061 723.214 70.0227C722.745 70.4318 722.18 70.7538 721.521 70.9886C720.862 71.2159 720.101 71.3295 719.237 71.3295ZM720.624 67.9886C721.336 67.9886 721.964 67.8485 722.51 67.5682C723.055 67.2803 723.483 66.8939 723.794 66.4091C724.105 65.9242 724.26 65.375 724.26 64.7614V62.9091C724.108 63.0076 723.9 63.0985 723.635 63.1818C723.377 63.2576 723.086 63.3295 722.76 63.3977C722.434 63.4583 722.108 63.5152 721.783 63.5682C721.457 63.6136 721.161 63.6553 720.896 63.6932C720.328 63.7765 719.832 63.9091 719.408 64.0909C718.983 64.2727 718.654 64.5189 718.419 64.8295C718.184 65.1326 718.067 65.5114 718.067 65.9659C718.067 66.625 718.305 67.1288 718.783 67.4773C719.268 67.8182 719.881 67.9886 720.624 67.9886ZM742.607 53.5455V57.1818H732.095V53.5455H742.607ZM734.482 49.3636H739.322V65.6364C739.322 66.0833 739.391 66.4318 739.527 66.6818C739.663 66.9242 739.853 67.0947 740.095 67.1932C740.345 67.2917 740.633 67.3409 740.959 67.3409C741.186 67.3409 741.413 67.322 741.641 67.2841C741.868 67.2386 742.042 67.2045 742.163 67.1818L742.925 70.7841C742.682 70.8598 742.341 70.947 741.902 71.0455C741.463 71.1515 740.929 71.2159 740.3 71.2386C739.133 71.2841 738.11 71.1288 737.232 70.7727C736.36 70.4167 735.682 69.8636 735.197 69.1136C734.713 68.3636 734.474 67.4167 734.482 66.2727V49.3636ZM760.564 58.5227L756.132 58.7955C756.056 58.4167 755.893 58.0758 755.643 57.7727C755.393 57.4621 755.064 57.2159 754.655 57.0341C754.253 56.8447 753.772 56.75 753.212 56.75C752.462 56.75 751.829 56.9091 751.314 57.2273C750.799 57.5379 750.541 57.9545 750.541 58.4773C750.541 58.8939 750.708 59.2462 751.041 59.5341C751.375 59.822 751.946 60.053 752.757 60.2273L755.916 60.8636C757.613 61.2121 758.878 61.7727 759.712 62.5455C760.545 63.3182 760.962 64.3333 760.962 65.5909C760.962 66.7348 760.625 67.7386 759.95 68.6023C759.284 69.4659 758.367 70.1402 757.2 70.625C756.041 71.1023 754.704 71.3409 753.189 71.3409C750.878 71.3409 749.037 70.8598 747.666 69.8977C746.303 68.928 745.503 67.6098 745.268 65.9432L750.03 65.6932C750.174 66.3977 750.522 66.9356 751.075 67.3068C751.628 67.6705 752.337 67.8523 753.2 67.8523C754.049 67.8523 754.731 67.6894 755.246 67.3636C755.768 67.0303 756.034 66.6023 756.041 66.0795C756.034 65.6402 755.848 65.2803 755.484 65C755.121 64.7121 754.56 64.4924 753.803 64.3409L750.78 63.7386C749.075 63.3977 747.806 62.8068 746.973 61.9659C746.147 61.125 745.734 60.053 745.734 58.75C745.734 57.6288 746.037 56.6629 746.643 55.8523C747.257 55.0417 748.117 54.4167 749.223 53.9773C750.337 53.5379 751.64 53.3182 753.132 53.3182C755.337 53.3182 757.071 53.7841 758.337 54.7159C759.609 55.6477 760.352 56.9167 760.564 58.5227Z" fill="black"/>
<rect x="79" y="115" width="300" height="112" rx="12" fill="#F59A1E"/>
<path d="M199.527 140.727V164H194.607V145.398H194.47L189.141 148.739V144.375L194.902 140.727H199.527ZM214.683 164.511C212.729 164.504 211.047 164.023 209.638 163.068C208.236 162.114 207.157 160.731 206.399 158.92C205.649 157.11 205.278 154.932 205.286 152.386C205.286 149.848 205.661 147.686 206.411 145.898C207.168 144.11 208.248 142.75 209.649 141.818C211.058 140.879 212.736 140.409 214.683 140.409C216.63 140.409 218.304 140.879 219.706 141.818C221.115 142.758 222.198 144.121 222.956 145.909C223.714 147.689 224.089 149.848 224.081 152.386C224.081 154.939 223.702 157.121 222.945 158.932C222.195 160.742 221.119 162.125 219.717 163.08C218.316 164.034 216.638 164.511 214.683 164.511ZM214.683 160.432C216.017 160.432 217.081 159.761 217.876 158.42C218.672 157.08 219.066 155.068 219.058 152.386C219.058 150.621 218.876 149.152 218.513 147.977C218.157 146.803 217.649 145.92 216.99 145.33C216.339 144.739 215.57 144.443 214.683 144.443C213.357 144.443 212.297 145.106 211.501 146.432C210.706 147.758 210.304 149.742 210.297 152.386C210.297 154.174 210.475 155.667 210.831 156.864C211.195 158.053 211.706 158.947 212.365 159.545C213.024 160.136 213.797 160.432 214.683 160.432ZM237.214 164.511C235.26 164.504 233.578 164.023 232.169 163.068C230.768 162.114 229.688 160.731 228.93 158.92C228.18 157.11 227.809 154.932 227.817 152.386C227.817 149.848 228.192 147.686 228.942 145.898C229.699 144.11 230.779 142.75 232.18 141.818C233.589 140.879 235.268 140.409 237.214 140.409C239.161 140.409 240.836 140.879 242.237 141.818C243.646 142.758 244.73 144.121 245.487 145.909C246.245 147.689 246.62 149.848 246.612 152.386C246.612 154.939 246.233 157.121 245.476 158.932C244.726 160.742 243.65 162.125 242.249 163.08C240.847 164.034 239.169 164.511 237.214 164.511ZM237.214 160.432C238.548 160.432 239.612 159.761 240.408 158.42C241.203 157.08 241.597 155.068 241.589 152.386C241.589 150.621 241.408 149.152 241.044 147.977C240.688 146.803 240.18 145.92 239.521 145.33C238.87 144.739 238.101 144.443 237.214 144.443C235.889 144.443 234.828 145.106 234.033 146.432C233.237 147.758 232.836 149.742 232.828 152.386C232.828 154.174 233.006 155.667 233.362 156.864C233.726 158.053 234.237 158.947 234.896 159.545C235.555 160.136 236.328 160.432 237.214 160.432ZM257.575 160.455V144.364H261.643V160.455H257.575ZM251.564 154.443V150.375H267.655V154.443H251.564Z" fill="black"/>
<path d="M196.808 191H194.694C194.569 190.392 194.35 189.858 194.038 189.398C193.731 188.938 193.356 188.551 192.913 188.239C192.475 187.92 191.989 187.682 191.455 187.523C190.921 187.364 190.364 187.284 189.785 187.284C188.728 187.284 187.771 187.551 186.913 188.085C186.06 188.619 185.381 189.406 184.876 190.446C184.376 191.486 184.126 192.761 184.126 194.273C184.126 195.784 184.376 197.06 184.876 198.099C185.381 199.139 186.06 199.926 186.913 200.46C187.771 200.994 188.728 201.261 189.785 201.261C190.364 201.261 190.921 201.182 191.455 201.023C191.989 200.864 192.475 200.628 192.913 200.315C193.356 199.997 193.731 199.608 194.038 199.148C194.35 198.682 194.569 198.148 194.694 197.545H196.808C196.648 198.437 196.359 199.236 195.938 199.94C195.518 200.645 194.995 201.244 194.37 201.739C193.745 202.227 193.043 202.599 192.265 202.855C191.492 203.111 190.665 203.239 189.785 203.239C188.296 203.239 186.972 202.875 185.813 202.148C184.654 201.42 183.742 200.386 183.077 199.045C182.413 197.705 182.08 196.114 182.08 194.273C182.08 192.432 182.413 190.841 183.077 189.5C183.742 188.159 184.654 187.125 185.813 186.398C186.972 185.67 188.296 185.307 189.785 185.307C190.665 185.307 191.492 185.435 192.265 185.69C193.043 185.946 193.745 186.321 194.37 186.815C194.995 187.304 195.518 187.901 195.938 188.605C196.359 189.304 196.648 190.102 196.808 191ZM205.768 203.273C204.587 203.273 203.55 202.991 202.658 202.429C201.771 201.866 201.078 201.08 200.578 200.068C200.084 199.057 199.837 197.875 199.837 196.523C199.837 195.159 200.084 193.969 200.578 192.952C201.078 191.935 201.771 191.145 202.658 190.582C203.55 190.02 204.587 189.739 205.768 189.739C206.95 189.739 207.984 190.02 208.871 190.582C209.763 191.145 210.456 191.935 210.95 192.952C211.45 193.969 211.7 195.159 211.7 196.523C211.7 197.875 211.45 199.057 210.95 200.068C210.456 201.08 209.763 201.866 208.871 202.429C207.984 202.991 206.95 203.273 205.768 203.273ZM205.768 201.466C206.666 201.466 207.405 201.236 207.984 200.776C208.564 200.315 208.993 199.71 209.271 198.96C209.55 198.21 209.689 197.398 209.689 196.523C209.689 195.648 209.55 194.832 209.271 194.077C208.993 193.321 208.564 192.71 207.984 192.244C207.405 191.778 206.666 191.545 205.768 191.545C204.871 191.545 204.132 191.778 203.553 192.244C202.973 192.71 202.544 193.321 202.266 194.077C201.987 194.832 201.848 195.648 201.848 196.523C201.848 197.398 201.987 198.21 202.266 198.96C202.544 199.71 202.973 200.315 203.553 200.776C204.132 201.236 204.871 201.466 205.768 201.466ZM223.521 197.648V189.909H225.532V203H223.521V200.784H223.384C223.077 201.449 222.6 202.014 221.952 202.48C221.305 202.94 220.487 203.17 219.498 203.17C218.68 203.17 217.952 202.991 217.316 202.634C216.68 202.27 216.18 201.724 215.816 200.997C215.452 200.264 215.271 199.341 215.271 198.227V189.909H217.282V198.091C217.282 199.045 217.549 199.807 218.083 200.375C218.623 200.943 219.31 201.227 220.146 201.227C220.646 201.227 221.154 201.099 221.671 200.844C222.194 200.588 222.631 200.196 222.984 199.668C223.342 199.139 223.521 198.466 223.521 197.648ZM229.716 203V189.909H231.659V191.886H231.795C232.034 191.239 232.466 190.713 233.091 190.31C233.716 189.906 234.42 189.705 235.205 189.705C235.352 189.705 235.537 189.707 235.759 189.713C235.98 189.719 236.148 189.727 236.261 189.739V191.784C236.193 191.767 236.037 191.741 235.793 191.707C235.554 191.668 235.301 191.648 235.034 191.648C234.398 191.648 233.83 191.781 233.33 192.048C232.835 192.31 232.443 192.673 232.153 193.139C231.869 193.599 231.727 194.125 231.727 194.716V203H229.716ZM248.418 192.841L246.612 193.352C246.498 193.051 246.33 192.759 246.109 192.474C245.893 192.185 245.597 191.946 245.222 191.759C244.847 191.571 244.367 191.477 243.782 191.477C242.981 191.477 242.313 191.662 241.779 192.031C241.251 192.395 240.987 192.858 240.987 193.42C240.987 193.92 241.168 194.315 241.532 194.605C241.896 194.895 242.464 195.136 243.237 195.33L245.18 195.807C246.35 196.091 247.222 196.526 247.796 197.111C248.37 197.69 248.657 198.437 248.657 199.352C248.657 200.102 248.441 200.773 248.009 201.364C247.583 201.955 246.987 202.42 246.219 202.761C245.452 203.102 244.56 203.273 243.543 203.273C242.208 203.273 241.103 202.983 240.228 202.403C239.353 201.824 238.799 200.977 238.566 199.864L240.475 199.386C240.657 200.091 241.001 200.619 241.506 200.972C242.018 201.324 242.685 201.5 243.509 201.5C244.447 201.5 245.191 201.301 245.742 200.903C246.299 200.5 246.577 200.017 246.577 199.455C246.577 199 246.418 198.619 246.1 198.312C245.782 198 245.293 197.767 244.634 197.614L242.452 197.102C241.254 196.818 240.373 196.378 239.81 195.781C239.254 195.179 238.975 194.426 238.975 193.523C238.975 192.784 239.183 192.131 239.597 191.562C240.018 190.994 240.589 190.548 241.31 190.224C242.038 189.901 242.862 189.739 243.782 189.739C245.077 189.739 246.094 190.023 246.833 190.591C247.577 191.159 248.106 191.909 248.418 192.841ZM257.673 203.273C256.412 203.273 255.324 202.994 254.409 202.438C253.5 201.875 252.798 201.091 252.304 200.085C251.815 199.074 251.571 197.898 251.571 196.557C251.571 195.216 251.815 194.034 252.304 193.011C252.798 191.983 253.486 191.182 254.366 190.608C255.253 190.028 256.287 189.739 257.469 189.739C258.151 189.739 258.824 189.852 259.489 190.08C260.153 190.307 260.759 190.676 261.304 191.188C261.849 191.693 262.284 192.364 262.608 193.199C262.932 194.034 263.094 195.062 263.094 196.284V197.136H253.003V195.398H261.048C261.048 194.659 260.901 194 260.605 193.42C260.315 192.841 259.901 192.384 259.361 192.048C258.827 191.713 258.196 191.545 257.469 191.545C256.668 191.545 255.974 191.744 255.389 192.142C254.81 192.534 254.364 193.045 254.051 193.676C253.739 194.307 253.582 194.983 253.582 195.705V196.864C253.582 197.852 253.753 198.69 254.094 199.378C254.44 200.06 254.92 200.58 255.534 200.938C256.148 201.29 256.861 201.466 257.673 201.466C258.202 201.466 258.679 201.392 259.105 201.244C259.537 201.091 259.909 200.864 260.222 200.562C260.534 200.256 260.776 199.875 260.946 199.42L262.889 199.966C262.685 200.625 262.341 201.205 261.858 201.705C261.375 202.199 260.778 202.585 260.068 202.864C259.358 203.136 258.56 203.273 257.673 203.273ZM275.926 192.841L274.119 193.352C274.006 193.051 273.838 192.759 273.616 192.474C273.401 192.185 273.105 191.946 272.73 191.759C272.355 191.571 271.875 191.477 271.29 191.477C270.489 191.477 269.821 191.662 269.287 192.031C268.759 192.395 268.494 192.858 268.494 193.42C268.494 193.92 268.676 194.315 269.04 194.605C269.403 194.895 269.972 195.136 270.744 195.33L272.688 195.807C273.858 196.091 274.73 196.526 275.304 197.111C275.878 197.69 276.165 198.437 276.165 199.352C276.165 200.102 275.949 200.773 275.517 201.364C275.091 201.955 274.494 202.42 273.727 202.761C272.96 203.102 272.068 203.273 271.051 203.273C269.716 203.273 268.611 202.983 267.736 202.403C266.861 201.824 266.307 200.977 266.074 199.864L267.983 199.386C268.165 200.091 268.509 200.619 269.014 200.972C269.526 201.324 270.193 201.5 271.017 201.5C271.955 201.5 272.699 201.301 273.25 200.903C273.807 200.5 274.085 200.017 274.085 199.455C274.085 199 273.926 198.619 273.608 198.312C273.29 198 272.801 197.767 272.142 197.614L269.96 197.102C268.761 196.818 267.881 196.378 267.318 195.781C266.761 195.179 266.483 194.426 266.483 193.523C266.483 192.784 266.69 192.131 267.105 191.562C267.526 190.994 268.097 190.548 268.818 190.224C269.545 189.901 270.369 189.739 271.29 189.739C272.585 189.739 273.602 190.023 274.341 190.591C275.085 191.159 275.614 191.909 275.926 192.841Z" fill="black"/>
<rect x="403" y="115" width="300" height="112" rx="12" fill="#F59A1E"/>
<path d="M522.418 164V160.455L530.702 152.784C531.406 152.102 531.997 151.489 532.474 150.943C532.959 150.398 533.327 149.864 533.577 149.341C533.827 148.811 533.952 148.239 533.952 147.625C533.952 146.943 533.796 146.356 533.486 145.864C533.175 145.364 532.751 144.981 532.213 144.716C531.675 144.443 531.065 144.307 530.384 144.307C529.671 144.307 529.05 144.451 528.52 144.739C527.99 145.027 527.58 145.439 527.293 145.977C527.005 146.515 526.861 147.155 526.861 147.898H522.19C522.19 146.375 522.535 145.053 523.224 143.932C523.914 142.811 524.88 141.943 526.122 141.33C527.365 140.716 528.796 140.409 530.418 140.409C532.084 140.409 533.535 140.705 534.77 141.295C536.012 141.879 536.978 142.689 537.668 143.727C538.357 144.765 538.702 145.955 538.702 147.295C538.702 148.174 538.527 149.042 538.179 149.898C537.838 150.754 537.228 151.705 536.349 152.75C535.471 153.788 534.232 155.034 532.634 156.489L529.236 159.818V159.977H539.009V164H522.418ZM552.199 164.511C550.244 164.504 548.563 164.023 547.153 163.068C545.752 162.114 544.672 160.731 543.915 158.92C543.165 157.11 542.794 154.932 542.801 152.386C542.801 149.848 543.176 147.686 543.926 145.898C544.684 144.11 545.763 142.75 547.165 141.818C548.574 140.879 550.252 140.409 552.199 140.409C554.146 140.409 555.82 140.879 557.222 141.818C558.631 142.758 559.714 144.121 560.472 145.909C561.229 147.689 561.604 149.848 561.597 152.386C561.597 154.939 561.218 157.121 560.46 158.932C559.71 160.742 558.634 162.125 557.233 163.08C555.831 164.034 554.153 164.511 552.199 164.511ZM552.199 160.432C553.532 160.432 554.597 159.761 555.392 158.42C556.188 157.08 556.581 155.068 556.574 152.386C556.574 150.621 556.392 149.152 556.028 147.977C555.672 146.803 555.165 145.92 554.506 145.33C553.854 144.739 553.085 144.443 552.199 144.443C550.873 144.443 549.813 145.106 549.017 146.432C548.222 147.758 547.82 149.742 547.812 152.386C547.812 154.174 547.991 155.667 548.347 156.864C548.71 158.053 549.222 158.947 549.881 159.545C550.54 160.136 551.312 160.432 552.199 160.432ZM572.56 160.455V144.364H576.628V160.455H572.56ZM566.548 154.443V150.375H582.639V154.443H566.548Z" fill="black"/>
<path d="M470.736 203H468.52L474.929 185.545H477.111L483.52 203H481.304L476.088 188.307H475.952L470.736 203ZM471.554 196.182H480.486V198.057H471.554V196.182ZM491.784 203.273C490.557 203.273 489.5 202.983 488.614 202.403C487.727 201.824 487.045 201.026 486.568 200.009C486.091 198.991 485.852 197.83 485.852 196.523C485.852 195.193 486.097 194.02 486.585 193.003C487.08 191.98 487.767 191.182 488.648 190.608C489.534 190.028 490.568 189.739 491.75 189.739C492.67 189.739 493.5 189.909 494.239 190.25C494.977 190.591 495.582 191.068 496.054 191.682C496.526 192.295 496.818 193.011 496.932 193.83H494.92C494.767 193.233 494.426 192.705 493.898 192.244C493.375 191.778 492.67 191.545 491.784 191.545C491 191.545 490.313 191.75 489.722 192.159C489.136 192.562 488.679 193.134 488.349 193.872C488.026 194.605 487.864 195.466 487.864 196.455C487.864 197.466 488.023 198.347 488.341 199.097C488.665 199.847 489.119 200.429 489.705 200.844C490.295 201.259 490.989 201.466 491.784 201.466C492.307 201.466 492.781 201.375 493.207 201.193C493.634 201.011 493.994 200.75 494.29 200.409C494.585 200.068 494.795 199.659 494.92 199.182H496.932C496.818 199.955 496.537 200.651 496.088 201.27C495.645 201.884 495.057 202.372 494.324 202.736C493.597 203.094 492.75 203.273 491.784 203.273ZM505.69 203.273C504.463 203.273 503.406 202.983 502.52 202.403C501.634 201.824 500.952 201.026 500.474 200.009C499.997 198.991 499.759 197.83 499.759 196.523C499.759 195.193 500.003 194.02 500.491 193.003C500.986 191.98 501.673 191.182 502.554 190.608C503.44 190.028 504.474 189.739 505.656 189.739C506.577 189.739 507.406 189.909 508.145 190.25C508.884 190.591 509.489 191.068 509.96 191.682C510.432 192.295 510.724 193.011 510.838 193.83H508.827C508.673 193.233 508.332 192.705 507.804 192.244C507.281 191.778 506.577 191.545 505.69 191.545C504.906 191.545 504.219 191.75 503.628 192.159C503.043 192.562 502.585 193.134 502.256 193.872C501.932 194.605 501.77 195.466 501.77 196.455C501.77 197.466 501.929 198.347 502.247 199.097C502.571 199.847 503.026 200.429 503.611 200.844C504.202 201.259 504.895 201.466 505.69 201.466C506.213 201.466 506.688 201.375 507.114 201.193C507.54 201.011 507.901 200.75 508.196 200.409C508.491 200.068 508.702 199.659 508.827 199.182H510.838C510.724 199.955 510.443 200.651 509.994 201.27C509.551 201.884 508.963 202.372 508.23 202.736C507.503 203.094 506.656 203.273 505.69 203.273ZM514.278 203V189.909H516.222V191.886H516.358C516.597 191.239 517.028 190.713 517.653 190.31C518.278 189.906 518.983 189.705 519.767 189.705C519.915 189.705 520.099 189.707 520.321 189.713C520.543 189.719 520.71 189.727 520.824 189.739V191.784C520.756 191.767 520.599 191.741 520.355 191.707C520.116 191.668 519.864 191.648 519.597 191.648C518.96 191.648 518.392 191.781 517.892 192.048C517.398 192.31 517.006 192.673 516.716 193.139C516.432 193.599 516.29 194.125 516.29 194.716V203H514.278ZM528.798 203.273C527.537 203.273 526.449 202.994 525.534 202.438C524.625 201.875 523.923 201.091 523.429 200.085C522.94 199.074 522.696 197.898 522.696 196.557C522.696 195.216 522.94 194.034 523.429 193.011C523.923 191.983 524.611 191.182 525.491 190.608C526.378 190.028 527.412 189.739 528.594 189.739C529.276 189.739 529.949 189.852 530.614 190.08C531.278 190.307 531.884 190.676 532.429 191.188C532.974 191.693 533.409 192.364 533.733 193.199C534.057 194.034 534.219 195.062 534.219 196.284V197.136H524.128V195.398H532.173C532.173 194.659 532.026 194 531.73 193.42C531.44 192.841 531.026 192.384 530.486 192.048C529.952 191.713 529.321 191.545 528.594 191.545C527.793 191.545 527.099 191.744 526.514 192.142C525.935 192.534 525.489 193.045 525.176 193.676C524.864 194.307 524.707 194.983 524.707 195.705V196.864C524.707 197.852 524.878 198.69 525.219 199.378C525.565 200.06 526.045 200.58 526.659 200.938C527.273 201.29 527.986 201.466 528.798 201.466C529.327 201.466 529.804 201.392 530.23 201.244C530.662 201.091 531.034 200.864 531.347 200.562C531.659 200.256 531.901 199.875 532.071 199.42L534.014 199.966C533.81 200.625 533.466 201.205 532.983 201.705C532.5 202.199 531.903 202.585 531.193 202.864C530.483 203.136 529.685 203.273 528.798 203.273ZM542.722 203.273C541.631 203.273 540.668 202.997 539.832 202.446C538.997 201.889 538.344 201.105 537.872 200.094C537.401 199.077 537.165 197.875 537.165 196.489C537.165 195.114 537.401 193.92 537.872 192.909C538.344 191.898 539 191.116 539.841 190.565C540.682 190.014 541.653 189.739 542.756 189.739C543.608 189.739 544.281 189.881 544.776 190.165C545.276 190.443 545.656 190.761 545.918 191.119C546.185 191.472 546.392 191.761 546.54 191.989H546.71V185.545H548.722V203H546.778V200.989H546.54C546.392 201.227 546.182 201.528 545.909 201.892C545.636 202.25 545.247 202.571 544.741 202.855C544.236 203.134 543.563 203.273 542.722 203.273ZM542.994 201.466C543.801 201.466 544.483 201.256 545.04 200.835C545.597 200.409 546.02 199.821 546.31 199.071C546.599 198.315 546.744 197.443 546.744 196.455C546.744 195.477 546.602 194.622 546.318 193.889C546.034 193.151 545.614 192.577 545.057 192.168C544.5 191.753 543.813 191.545 542.994 191.545C542.142 191.545 541.432 191.764 540.864 192.202C540.301 192.634 539.878 193.222 539.594 193.966C539.315 194.705 539.176 195.534 539.176 196.455C539.176 197.386 539.318 198.233 539.602 198.994C539.892 199.75 540.318 200.352 540.881 200.801C541.449 201.244 542.153 201.466 542.994 201.466ZM553.185 203V189.909H555.196V203H553.185ZM554.207 187.727C553.815 187.727 553.477 187.594 553.193 187.327C552.915 187.06 552.776 186.739 552.776 186.364C552.776 185.989 552.915 185.668 553.193 185.401C553.477 185.134 553.815 185 554.207 185C554.599 185 554.935 185.134 555.213 185.401C555.497 185.668 555.639 185.989 555.639 186.364C555.639 186.739 555.497 187.06 555.213 187.327C554.935 187.594 554.599 187.727 554.207 187.727ZM565.073 189.909V191.614H558.289V189.909H565.073ZM560.266 186.773H562.278V199.25C562.278 199.818 562.36 200.244 562.525 200.528C562.695 200.807 562.911 200.994 563.173 201.091C563.44 201.182 563.721 201.227 564.016 201.227C564.238 201.227 564.42 201.216 564.562 201.193C564.704 201.165 564.817 201.142 564.903 201.125L565.312 202.932C565.175 202.983 564.985 203.034 564.741 203.085C564.496 203.142 564.187 203.17 563.812 203.17C563.244 203.17 562.687 203.048 562.141 202.804C561.602 202.56 561.153 202.188 560.795 201.688C560.442 201.188 560.266 200.557 560.266 199.795V186.773ZM572.451 203.307C571.621 203.307 570.869 203.151 570.192 202.838C569.516 202.52 568.979 202.062 568.582 201.466C568.184 200.864 567.985 200.136 567.985 199.284C567.985 198.534 568.133 197.926 568.428 197.46C568.724 196.989 569.119 196.619 569.613 196.352C570.107 196.085 570.653 195.886 571.249 195.756C571.852 195.619 572.457 195.511 573.065 195.432C573.86 195.33 574.505 195.253 574.999 195.202C575.499 195.145 575.863 195.051 576.09 194.92C576.323 194.79 576.44 194.562 576.44 194.239V194.17C576.44 193.33 576.21 192.676 575.749 192.21C575.295 191.744 574.604 191.511 573.678 191.511C572.718 191.511 571.965 191.722 571.42 192.142C570.874 192.562 570.491 193.011 570.269 193.489L568.36 192.807C568.701 192.011 569.156 191.392 569.724 190.949C570.298 190.5 570.923 190.187 571.599 190.011C572.281 189.83 572.951 189.739 573.61 189.739C574.031 189.739 574.513 189.79 575.059 189.892C575.61 189.989 576.141 190.19 576.653 190.497C577.17 190.804 577.599 191.267 577.94 191.886C578.281 192.506 578.451 193.335 578.451 194.375V203H576.44V201.227H576.337C576.201 201.511 575.974 201.815 575.656 202.139C575.337 202.463 574.914 202.739 574.386 202.966C573.857 203.193 573.212 203.307 572.451 203.307ZM572.758 201.5C573.553 201.5 574.224 201.344 574.769 201.031C575.32 200.719 575.735 200.315 576.013 199.821C576.298 199.327 576.44 198.807 576.44 198.261V196.42C576.354 196.523 576.167 196.616 575.877 196.702C575.593 196.781 575.263 196.852 574.888 196.915C574.519 196.972 574.158 197.023 573.806 197.068C573.46 197.108 573.178 197.142 572.962 197.17C572.44 197.239 571.951 197.349 571.496 197.503C571.048 197.651 570.684 197.875 570.406 198.176C570.133 198.472 569.996 198.875 569.996 199.386C569.996 200.085 570.255 200.614 570.772 200.972C571.295 201.324 571.957 201.5 572.758 201.5ZM588.315 189.909V191.614H581.531V189.909H588.315ZM583.509 186.773H585.52V199.25C585.52 199.818 585.602 200.244 585.767 200.528C585.938 200.807 586.153 200.994 586.415 201.091C586.682 201.182 586.963 201.227 587.259 201.227C587.48 201.227 587.662 201.216 587.804 201.193C587.946 201.165 588.06 201.142 588.145 201.125L588.554 202.932C588.418 202.983 588.227 203.034 587.983 203.085C587.739 203.142 587.429 203.17 587.054 203.17C586.486 203.17 585.929 203.048 585.384 202.804C584.844 202.56 584.395 202.188 584.037 201.688C583.685 201.188 583.509 200.557 583.509 199.795V186.773ZM591.841 203V189.909H593.852V203H591.841ZM592.864 187.727C592.472 187.727 592.134 187.594 591.849 187.327C591.571 187.06 591.432 186.739 591.432 186.364C591.432 185.989 591.571 185.668 591.849 185.401C592.134 185.134 592.472 185 592.864 185C593.256 185 593.591 185.134 593.869 185.401C594.153 185.668 594.295 185.989 594.295 186.364C594.295 186.739 594.153 187.06 593.869 187.327C593.591 187.594 593.256 187.727 592.864 187.727ZM603.354 203.273C602.173 203.273 601.136 202.991 600.244 202.429C599.357 201.866 598.664 201.08 598.164 200.068C597.67 199.057 597.423 197.875 597.423 196.523C597.423 195.159 597.67 193.969 598.164 192.952C598.664 191.935 599.357 191.145 600.244 190.582C601.136 190.02 602.173 189.739 603.354 189.739C604.536 189.739 605.57 190.02 606.457 190.582C607.349 191.145 608.042 191.935 608.536 192.952C609.036 193.969 609.286 195.159 609.286 196.523C609.286 197.875 609.036 199.057 608.536 200.068C608.042 201.08 607.349 201.866 606.457 202.429C605.57 202.991 604.536 203.273 603.354 203.273ZM603.354 201.466C604.252 201.466 604.991 201.236 605.57 200.776C606.15 200.315 606.579 199.71 606.857 198.96C607.136 198.21 607.275 197.398 607.275 196.523C607.275 195.648 607.136 194.832 606.857 194.077C606.579 193.321 606.15 192.71 605.57 192.244C604.991 191.778 604.252 191.545 603.354 191.545C602.457 191.545 601.718 191.778 601.138 192.244C600.559 192.71 600.13 193.321 599.852 194.077C599.573 194.832 599.434 195.648 599.434 196.523C599.434 197.398 599.573 198.21 599.852 198.96C600.13 199.71 600.559 200.315 601.138 200.776C601.718 201.236 602.457 201.466 603.354 201.466ZM614.868 195.125V203H612.857V189.909H614.8V191.955H614.97C615.277 191.29 615.743 190.756 616.368 190.352C616.993 189.943 617.8 189.739 618.788 189.739C619.675 189.739 620.45 189.92 621.115 190.284C621.78 190.642 622.297 191.188 622.666 191.92C623.036 192.648 623.22 193.568 623.22 194.682V203H621.209V194.818C621.209 193.79 620.942 192.989 620.408 192.415C619.874 191.835 619.141 191.545 618.209 191.545C617.567 191.545 616.993 191.685 616.487 191.963C615.987 192.241 615.592 192.648 615.303 193.182C615.013 193.716 614.868 194.364 614.868 195.125ZM636.668 192.841L634.862 193.352C634.748 193.051 634.58 192.759 634.359 192.474C634.143 192.185 633.847 191.946 633.472 191.759C633.097 191.571 632.617 191.477 632.032 191.477C631.231 191.477 630.563 191.662 630.029 192.031C629.501 192.395 629.237 192.858 629.237 193.42C629.237 193.92 629.418 194.315 629.782 194.605C630.146 194.895 630.714 195.136 631.487 195.33L633.43 195.807C634.6 196.091 635.472 196.526 636.046 197.111C636.62 197.69 636.907 198.437 636.907 199.352C636.907 200.102 636.691 200.773 636.259 201.364C635.833 201.955 635.237 202.42 634.469 202.761C633.702 203.102 632.81 203.273 631.793 203.273C630.458 203.273 629.353 202.983 628.478 202.403C627.603 201.824 627.049 200.977 626.816 199.864L628.725 199.386C628.907 200.091 629.251 200.619 629.756 200.972C630.268 201.324 630.935 201.5 631.759 201.5C632.697 201.5 633.441 201.301 633.992 200.903C634.549 200.5 634.827 200.017 634.827 199.455C634.827 199 634.668 198.619 634.35 198.312C634.032 198 633.543 197.767 632.884 197.614L630.702 197.102C629.504 196.818 628.623 196.378 628.06 195.781C627.504 195.179 627.225 194.426 627.225 193.523C627.225 192.784 627.433 192.131 627.847 191.562C628.268 190.994 628.839 190.548 629.56 190.224C630.288 189.901 631.112 189.739 632.032 189.739C633.327 189.739 634.344 190.023 635.083 190.591C635.827 191.159 636.356 191.909 636.668 192.841Z" fill="black"/>
<rect x="727" y="115" width="300" height="112" rx="12" fill="#F59A1E"/>
<path d="M809.074 164V160.455L817.358 152.784C818.063 152.102 818.653 151.489 819.131 150.943C819.616 150.398 819.983 149.864 820.233 149.341C820.483 148.811 820.608 148.239 820.608 147.625C820.608 146.943 820.453 146.356 820.142 145.864C819.831 145.364 819.407 144.981 818.869 144.716C818.331 144.443 817.722 144.307 817.04 144.307C816.328 144.307 815.706 144.451 815.176 144.739C814.646 145.027 814.237 145.439 813.949 145.977C813.661 146.515 813.517 147.155 813.517 147.898H808.847C808.847 146.375 809.191 145.053 809.881 143.932C810.57 142.811 811.536 141.943 812.778 141.33C814.021 140.716 815.453 140.409 817.074 140.409C818.741 140.409 820.191 140.705 821.426 141.295C822.669 141.879 823.634 142.689 824.324 143.727C825.013 144.765 825.358 145.955 825.358 147.295C825.358 148.174 825.184 149.042 824.835 149.898C824.494 150.754 823.884 151.705 823.006 152.75C822.127 153.788 820.888 155.034 819.29 156.489L815.892 159.818V159.977H825.665V164H809.074ZM838.23 164.318C836.624 164.318 835.192 164.023 833.935 163.432C832.685 162.841 831.692 162.027 830.957 160.989C830.223 159.951 829.84 158.761 829.81 157.42H834.582C834.635 158.322 835.014 159.053 835.719 159.614C836.423 160.174 837.26 160.455 838.23 160.455C839.003 160.455 839.685 160.284 840.276 159.943C840.874 159.595 841.34 159.114 841.673 158.5C842.014 157.879 842.185 157.167 842.185 156.364C842.185 155.545 842.01 154.826 841.662 154.205C841.321 153.583 840.848 153.098 840.241 152.75C839.635 152.402 838.942 152.223 838.162 152.216C837.48 152.216 836.817 152.356 836.173 152.636C835.537 152.917 835.041 153.299 834.685 153.784L830.31 153L831.412 140.727H845.639V144.75H835.469L834.866 150.58H835.003C835.412 150.004 836.029 149.527 836.855 149.148C837.681 148.769 838.605 148.58 839.628 148.58C841.029 148.58 842.279 148.909 843.378 149.568C844.476 150.227 845.344 151.133 845.98 152.284C846.616 153.428 846.931 154.746 846.923 156.239C846.931 157.807 846.567 159.201 845.832 160.42C845.105 161.633 844.086 162.587 842.776 163.284C841.473 163.973 839.957 164.318 838.23 164.318ZM855.412 160.818L855.287 162.068C855.188 163.068 854.999 164.064 854.719 165.057C854.446 166.057 854.158 166.962 853.855 167.773C853.56 168.583 853.321 169.22 853.139 169.682H850.003C850.116 169.235 850.272 168.61 850.469 167.807C850.666 167.011 850.851 166.117 851.026 165.125C851.2 164.133 851.31 163.121 851.355 162.091L851.412 160.818H855.412ZM868.48 164.511C866.526 164.504 864.844 164.023 863.435 163.068C862.033 162.114 860.954 160.731 860.196 158.92C859.446 157.11 859.075 154.932 859.082 152.386C859.082 149.848 859.457 147.686 860.207 145.898C860.965 144.11 862.045 142.75 863.446 141.818C864.855 140.879 866.533 140.409 868.48 140.409C870.427 140.409 872.101 140.879 873.503 141.818C874.912 142.758 875.995 144.121 876.753 145.909C877.51 147.689 877.885 149.848 877.878 152.386C877.878 154.939 877.499 157.121 876.741 158.932C875.991 160.742 874.916 162.125 873.514 163.08C872.113 164.034 870.435 164.511 868.48 164.511ZM868.48 160.432C869.813 160.432 870.878 159.761 871.673 158.42C872.469 157.08 872.863 155.068 872.855 152.386C872.855 150.621 872.673 149.152 872.31 147.977C871.954 146.803 871.446 145.92 870.787 145.33C870.135 144.739 869.366 144.443 868.48 144.443C867.154 144.443 866.094 145.106 865.298 146.432C864.503 147.758 864.101 149.742 864.094 152.386C864.094 154.174 864.272 155.667 864.628 156.864C864.991 158.053 865.503 158.947 866.162 159.545C866.821 160.136 867.594 160.432 868.48 160.432ZM891.011 164.511C889.057 164.504 887.375 164.023 885.966 163.068C884.564 162.114 883.485 160.731 882.727 158.92C881.977 157.11 881.606 154.932 881.614 152.386C881.614 149.848 881.989 147.686 882.739 145.898C883.496 144.11 884.576 142.75 885.977 141.818C887.386 140.879 889.064 140.409 891.011 140.409C892.958 140.409 894.633 140.879 896.034 141.818C897.443 142.758 898.527 144.121 899.284 145.909C900.042 147.689 900.417 149.848 900.409 152.386C900.409 154.939 900.03 157.121 899.273 158.932C898.523 160.742 897.447 162.125 896.045 163.08C894.644 164.034 892.966 164.511 891.011 164.511ZM891.011 160.432C892.345 160.432 893.409 159.761 894.205 158.42C895 157.08 895.394 155.068 895.386 152.386C895.386 150.621 895.205 149.152 894.841 147.977C894.485 146.803 893.977 145.92 893.318 145.33C892.667 144.739 891.898 144.443 891.011 144.443C889.686 144.443 888.625 145.106 887.83 146.432C887.034 147.758 886.633 149.742 886.625 152.386C886.625 154.174 886.803 155.667 887.159 156.864C887.523 158.053 888.034 158.947 888.693 159.545C889.352 160.136 890.125 160.432 891.011 160.432ZM913.543 164.511C911.588 164.504 909.906 164.023 908.497 163.068C907.096 162.114 906.016 160.731 905.259 158.92C904.509 157.11 904.137 154.932 904.145 152.386C904.145 149.848 904.52 147.686 905.27 145.898C906.027 144.11 907.107 142.75 908.509 141.818C909.918 140.879 911.596 140.409 913.543 140.409C915.49 140.409 917.164 140.879 918.565 141.818C919.974 142.758 921.058 144.121 921.815 145.909C922.573 147.689 922.948 149.848 922.94 152.386C922.94 154.939 922.562 157.121 921.804 158.932C921.054 160.742 919.978 162.125 918.577 163.08C917.175 164.034 915.497 164.511 913.543 164.511ZM913.543 160.432C914.876 160.432 915.94 159.761 916.736 158.42C917.531 157.08 917.925 155.068 917.918 152.386C917.918 150.621 917.736 149.152 917.372 147.977C917.016 146.803 916.509 145.92 915.849 145.33C915.198 144.739 914.429 144.443 913.543 144.443C912.217 144.443 911.156 145.106 910.361 146.432C909.565 147.758 909.164 149.742 909.156 152.386C909.156 154.174 909.334 155.667 909.69 156.864C910.054 158.053 910.565 158.947 911.224 159.545C911.884 160.136 912.656 160.432 913.543 160.432ZM933.903 160.455V144.364H937.972V160.455H933.903ZM927.892 154.443V150.375H943.983V154.443H927.892Z" fill="black"/>
<path d="M745.305 203V185.545H751.203C752.572 185.545 753.691 185.793 754.561 186.287C755.436 186.776 756.083 187.438 756.504 188.273C756.924 189.108 757.135 190.04 757.135 191.068C757.135 192.097 756.924 193.031 756.504 193.872C756.089 194.713 755.447 195.384 754.578 195.884C753.708 196.378 752.595 196.625 751.237 196.625H747.01V194.75H751.169C752.106 194.75 752.859 194.588 753.427 194.264C753.995 193.94 754.407 193.503 754.663 192.952C754.924 192.395 755.055 191.767 755.055 191.068C755.055 190.369 754.924 189.744 754.663 189.193C754.407 188.642 753.993 188.21 753.419 187.898C752.845 187.58 752.083 187.42 751.135 187.42H747.419V203H745.305ZM760.767 203V189.909H762.71V191.886H762.846C763.085 191.239 763.517 190.713 764.142 190.31C764.767 189.906 765.471 189.705 766.255 189.705C766.403 189.705 766.588 189.707 766.809 189.713C767.031 189.719 767.199 189.727 767.312 189.739V191.784C767.244 191.767 767.088 191.741 766.843 191.707C766.605 191.668 766.352 191.648 766.085 191.648C765.449 191.648 764.88 191.781 764.38 192.048C763.886 192.31 763.494 192.673 763.204 193.139C762.92 193.599 762.778 194.125 762.778 194.716V203H760.767ZM775.116 203.273C773.934 203.273 772.897 202.991 772.005 202.429C771.119 201.866 770.426 201.08 769.926 200.068C769.431 199.057 769.184 197.875 769.184 196.523C769.184 195.159 769.431 193.969 769.926 192.952C770.426 191.935 771.119 191.145 772.005 190.582C772.897 190.02 773.934 189.739 775.116 189.739C776.298 189.739 777.332 190.02 778.218 190.582C779.11 191.145 779.804 191.935 780.298 192.952C780.798 193.969 781.048 195.159 781.048 196.523C781.048 197.875 780.798 199.057 780.298 200.068C779.804 201.08 779.11 201.866 778.218 202.429C777.332 202.991 776.298 203.273 775.116 203.273ZM775.116 201.466C776.014 201.466 776.752 201.236 777.332 200.776C777.912 200.315 778.341 199.71 778.619 198.96C778.897 198.21 779.037 197.398 779.037 196.523C779.037 195.648 778.897 194.832 778.619 194.077C778.341 193.321 777.912 192.71 777.332 192.244C776.752 191.778 776.014 191.545 775.116 191.545C774.218 191.545 773.48 191.778 772.9 192.244C772.321 192.71 771.892 193.321 771.613 194.077C771.335 194.832 771.196 195.648 771.196 196.523C771.196 197.398 771.335 198.21 771.613 198.96C771.892 199.71 772.321 200.315 772.9 200.776C773.48 201.236 774.218 201.466 775.116 201.466ZM790.448 189.909V191.614H783.391V189.909H790.448ZM785.505 203V188.102C785.505 187.352 785.681 186.727 786.033 186.227C786.385 185.727 786.843 185.352 787.405 185.102C787.968 184.852 788.561 184.727 789.186 184.727C789.681 184.727 790.084 184.767 790.397 184.847C790.709 184.926 790.942 185 791.096 185.068L790.516 186.807C790.414 186.773 790.272 186.73 790.09 186.679C789.914 186.628 789.681 186.602 789.391 186.602C788.726 186.602 788.246 186.77 787.951 187.105C787.661 187.44 787.516 187.932 787.516 188.58V203H785.505ZM798.716 203.273C797.455 203.273 796.367 202.994 795.452 202.438C794.543 201.875 793.841 201.091 793.347 200.085C792.858 199.074 792.614 197.898 792.614 196.557C792.614 195.216 792.858 194.034 793.347 193.011C793.841 191.983 794.529 191.182 795.409 190.608C796.296 190.028 797.33 189.739 798.512 189.739C799.194 189.739 799.867 189.852 800.532 190.08C801.196 190.307 801.801 190.676 802.347 191.188C802.892 191.693 803.327 192.364 803.651 193.199C803.975 194.034 804.137 195.062 804.137 196.284V197.136H794.046V195.398H802.091C802.091 194.659 801.944 194 801.648 193.42C801.358 192.841 800.944 192.384 800.404 192.048C799.87 191.713 799.239 191.545 798.512 191.545C797.711 191.545 797.017 191.744 796.432 192.142C795.853 192.534 795.407 193.045 795.094 193.676C794.782 194.307 794.625 194.983 794.625 195.705V196.864C794.625 197.852 794.796 198.69 795.137 199.378C795.483 200.06 795.963 200.58 796.577 200.938C797.191 201.29 797.904 201.466 798.716 201.466C799.245 201.466 799.722 201.392 800.148 201.244C800.58 201.091 800.952 200.864 801.265 200.562C801.577 200.256 801.819 199.875 801.989 199.42L803.932 199.966C803.728 200.625 803.384 201.205 802.901 201.705C802.418 202.199 801.821 202.585 801.111 202.864C800.401 203.136 799.603 203.273 798.716 203.273ZM816.969 192.841L815.162 193.352C815.049 193.051 814.881 192.759 814.659 192.474C814.444 192.185 814.148 191.946 813.773 191.759C813.398 191.571 812.918 191.477 812.333 191.477C811.532 191.477 810.864 191.662 810.33 192.031C809.801 192.395 809.537 192.858 809.537 193.42C809.537 193.92 809.719 194.315 810.083 194.605C810.446 194.895 811.015 195.136 811.787 195.33L813.73 195.807C814.901 196.091 815.773 196.526 816.347 197.111C816.921 197.69 817.208 198.437 817.208 199.352C817.208 200.102 816.992 200.773 816.56 201.364C816.134 201.955 815.537 202.42 814.77 202.761C814.003 203.102 813.111 203.273 812.094 203.273C810.759 203.273 809.654 202.983 808.779 202.403C807.904 201.824 807.35 200.977 807.117 199.864L809.026 199.386C809.208 200.091 809.551 200.619 810.057 200.972C810.569 201.324 811.236 201.5 812.06 201.5C812.998 201.5 813.742 201.301 814.293 200.903C814.85 200.5 815.128 200.017 815.128 199.455C815.128 199 814.969 198.619 814.651 198.312C814.333 198 813.844 197.767 813.185 197.614L811.003 197.102C809.804 196.818 808.924 196.378 808.361 195.781C807.804 195.179 807.526 194.426 807.526 193.523C807.526 192.784 807.733 192.131 808.148 191.562C808.569 190.994 809.14 190.548 809.861 190.224C810.588 189.901 811.412 189.739 812.333 189.739C813.628 189.739 814.645 190.023 815.384 190.591C816.128 191.159 816.657 191.909 816.969 192.841ZM830.008 192.841L828.201 193.352C828.088 193.051 827.92 192.759 827.699 192.474C827.483 192.185 827.187 191.946 826.812 191.759C826.437 191.571 825.957 191.477 825.372 191.477C824.571 191.477 823.903 191.662 823.369 192.031C822.841 192.395 822.576 192.858 822.576 193.42C822.576 193.92 822.758 194.315 823.122 194.605C823.485 194.895 824.054 195.136 824.826 195.33L826.77 195.807C827.94 196.091 828.812 196.526 829.386 197.111C829.96 197.69 830.247 198.437 830.247 199.352C830.247 200.102 830.031 200.773 829.599 201.364C829.173 201.955 828.576 202.42 827.809 202.761C827.042 203.102 826.15 203.273 825.133 203.273C823.798 203.273 822.693 202.983 821.818 202.403C820.943 201.824 820.389 200.977 820.156 199.864L822.065 199.386C822.247 200.091 822.591 200.619 823.096 200.972C823.608 201.324 824.275 201.5 825.099 201.5C826.037 201.5 826.781 201.301 827.332 200.903C827.889 200.5 828.167 200.017 828.167 199.455C828.167 199 828.008 198.619 827.69 198.312C827.372 198 826.883 197.767 826.224 197.614L824.042 197.102C822.843 196.818 821.963 196.378 821.4 195.781C820.843 195.179 820.565 194.426 820.565 193.523C820.565 192.784 820.772 192.131 821.187 191.562C821.608 190.994 822.179 190.548 822.9 190.224C823.627 189.901 824.451 189.739 825.372 189.739C826.667 189.739 827.684 190.023 828.423 190.591C829.167 191.159 829.696 191.909 830.008 192.841ZM833.775 203V189.909H835.786V203H833.775ZM834.797 187.727C834.405 187.727 834.067 187.594 833.783 187.327C833.505 187.06 833.365 186.739 833.365 186.364C833.365 185.989 833.505 185.668 833.783 185.401C834.067 185.134 834.405 185 834.797 185C835.189 185 835.525 185.134 835.803 185.401C836.087 185.668 836.229 185.989 836.229 186.364C836.229 186.739 836.087 187.06 835.803 187.327C835.525 187.594 835.189 187.727 834.797 187.727ZM845.288 203.273C844.106 203.273 843.069 202.991 842.177 202.429C841.291 201.866 840.598 201.08 840.098 200.068C839.603 199.057 839.356 197.875 839.356 196.523C839.356 195.159 839.603 193.969 840.098 192.952C840.598 191.935 841.291 191.145 842.177 190.582C843.069 190.02 844.106 189.739 845.288 189.739C846.47 189.739 847.504 190.02 848.39 190.582C849.282 191.145 849.975 191.935 850.47 192.952C850.97 193.969 851.22 195.159 851.22 196.523C851.22 197.875 850.97 199.057 850.47 200.068C849.975 201.08 849.282 201.866 848.39 202.429C847.504 202.991 846.47 203.273 845.288 203.273ZM845.288 201.466C846.186 201.466 846.924 201.236 847.504 200.776C848.083 200.315 848.512 199.71 848.791 198.96C849.069 198.21 849.208 197.398 849.208 196.523C849.208 195.648 849.069 194.832 848.791 194.077C848.512 193.321 848.083 192.71 847.504 192.244C846.924 191.778 846.186 191.545 845.288 191.545C844.39 191.545 843.652 191.778 843.072 192.244C842.493 192.71 842.064 193.321 841.785 194.077C841.507 194.832 841.368 195.648 841.368 196.523C841.368 197.398 841.507 198.21 841.785 198.96C842.064 199.71 842.493 200.315 843.072 200.776C843.652 201.236 844.39 201.466 845.288 201.466ZM856.801 195.125V203H854.79V189.909H856.733V191.955H856.904C857.211 191.29 857.676 190.756 858.301 190.352C858.926 189.943 859.733 189.739 860.722 189.739C861.608 189.739 862.384 189.92 863.049 190.284C863.713 190.642 864.23 191.188 864.6 191.92C864.969 192.648 865.154 193.568 865.154 194.682V203H863.142V194.818C863.142 193.79 862.875 192.989 862.341 192.415C861.807 191.835 861.074 191.545 860.142 191.545C859.5 191.545 858.926 191.685 858.421 191.963C857.921 192.241 857.526 192.648 857.236 193.182C856.946 193.716 856.801 194.364 856.801 195.125ZM873.181 203.307C872.352 203.307 871.599 203.151 870.923 202.838C870.247 202.52 869.71 202.062 869.312 201.466C868.914 200.864 868.716 200.136 868.716 199.284C868.716 198.534 868.863 197.926 869.159 197.46C869.454 196.989 869.849 196.619 870.343 196.352C870.838 196.085 871.383 195.886 871.98 195.756C872.582 195.619 873.187 195.511 873.795 195.432C874.591 195.33 875.235 195.253 875.73 195.202C876.23 195.145 876.593 195.051 876.821 194.92C877.054 194.79 877.17 194.562 877.17 194.239V194.17C877.17 193.33 876.94 192.676 876.48 192.21C876.025 191.744 875.335 191.511 874.409 191.511C873.449 191.511 872.696 191.722 872.15 192.142C871.605 192.562 871.221 193.011 871 193.489L869.091 192.807C869.431 192.011 869.886 191.392 870.454 190.949C871.028 190.5 871.653 190.187 872.329 190.011C873.011 189.83 873.681 189.739 874.341 189.739C874.761 189.739 875.244 189.79 875.789 189.892C876.341 189.989 876.872 190.19 877.383 190.497C877.9 190.804 878.329 191.267 878.67 191.886C879.011 192.506 879.181 193.335 879.181 194.375V203H877.17V201.227H877.068C876.931 201.511 876.704 201.815 876.386 202.139C876.068 202.463 875.645 202.739 875.116 202.966C874.588 203.193 873.943 203.307 873.181 203.307ZM873.488 201.5C874.284 201.5 874.954 201.344 875.5 201.031C876.051 200.719 876.466 200.315 876.744 199.821C877.028 199.327 877.17 198.807 877.17 198.261V196.42C877.085 196.523 876.897 196.616 876.608 196.702C876.324 196.781 875.994 196.852 875.619 196.915C875.25 196.972 874.889 197.023 874.537 197.068C874.19 197.108 873.909 197.142 873.693 197.17C873.17 197.239 872.681 197.349 872.227 197.503C871.778 197.651 871.414 197.875 871.136 198.176C870.863 198.472 870.727 198.875 870.727 199.386C870.727 200.085 870.985 200.614 871.502 200.972C872.025 201.324 872.687 201.5 873.488 201.5ZM885.364 185.545V203H883.353V185.545H885.364ZM898.821 192.841L897.014 193.352C896.9 193.051 896.733 192.759 896.511 192.474C896.295 192.185 896 191.946 895.625 191.759C895.25 191.571 894.77 191.477 894.184 191.477C893.383 191.477 892.716 191.662 892.181 192.031C891.653 192.395 891.389 192.858 891.389 193.42C891.389 193.92 891.571 194.315 891.934 194.605C892.298 194.895 892.866 195.136 893.639 195.33L895.582 195.807C896.752 196.091 897.625 196.526 898.199 197.111C898.772 197.69 899.059 198.437 899.059 199.352C899.059 200.102 898.843 200.773 898.412 201.364C897.985 201.955 897.389 202.42 896.622 202.761C895.855 203.102 894.963 203.273 893.946 203.273C892.61 203.273 891.505 202.983 890.63 202.403C889.755 201.824 889.201 200.977 888.968 199.864L890.877 199.386C891.059 200.091 891.403 200.619 891.909 200.972C892.42 201.324 893.088 201.5 893.912 201.5C894.849 201.5 895.593 201.301 896.145 200.903C896.701 200.5 896.98 200.017 896.98 199.455C896.98 199 896.821 198.619 896.502 198.312C896.184 198 895.696 197.767 895.037 197.614L892.855 197.102C891.656 196.818 890.775 196.378 890.213 195.781C889.656 195.179 889.377 194.426 889.377 193.523C889.377 192.784 889.585 192.131 890 191.562C890.42 190.994 890.991 190.548 891.713 190.224C892.44 189.901 893.264 189.739 894.184 189.739C895.48 189.739 896.497 190.023 897.235 190.591C897.98 191.159 898.508 191.909 898.821 192.841ZM924.155 191H922.042C921.917 190.392 921.698 189.858 921.385 189.398C921.078 188.938 920.703 188.551 920.26 188.239C919.823 187.92 919.337 187.682 918.803 187.523C918.269 187.364 917.712 187.284 917.132 187.284C916.076 187.284 915.118 187.551 914.26 188.085C913.408 188.619 912.729 189.406 912.223 190.446C911.723 191.486 911.473 192.761 911.473 194.273C911.473 195.784 911.723 197.06 912.223 198.099C912.729 199.139 913.408 199.926 914.26 200.46C915.118 200.994 916.076 201.261 917.132 201.261C917.712 201.261 918.269 201.182 918.803 201.023C919.337 200.864 919.823 200.628 920.26 200.315C920.703 199.997 921.078 199.608 921.385 199.148C921.698 198.682 921.917 198.148 922.042 197.545H924.155C923.996 198.437 923.706 199.236 923.286 199.94C922.865 200.645 922.343 201.244 921.718 201.739C921.093 202.227 920.391 202.599 919.613 202.855C918.84 203.111 918.013 203.239 917.132 203.239C915.644 203.239 914.32 202.875 913.161 202.148C912.002 201.42 911.09 200.386 910.425 199.045C909.76 197.705 909.428 196.114 909.428 194.273C909.428 192.432 909.76 190.841 910.425 189.5C911.09 188.159 912.002 187.125 913.161 186.398C914.32 185.67 915.644 185.307 917.132 185.307C918.013 185.307 918.84 185.435 919.613 185.69C920.391 185.946 921.093 186.321 921.718 186.815C922.343 187.304 922.865 187.901 923.286 188.605C923.706 189.304 923.996 190.102 924.155 191ZM933.287 203.273C932.025 203.273 930.937 202.994 930.022 202.438C929.113 201.875 928.412 201.091 927.917 200.085C927.429 199.074 927.184 197.898 927.184 196.557C927.184 195.216 927.429 194.034 927.917 193.011C928.412 191.983 929.099 191.182 929.98 190.608C930.866 190.028 931.9 189.739 933.082 189.739C933.764 189.739 934.437 189.852 935.102 190.08C935.767 190.307 936.372 190.676 936.917 191.188C937.463 191.693 937.897 192.364 938.221 193.199C938.545 194.034 938.707 195.062 938.707 196.284V197.136H928.616V195.398H936.662C936.662 194.659 936.514 194 936.218 193.42C935.929 192.841 935.514 192.384 934.974 192.048C934.44 191.713 933.809 191.545 933.082 191.545C932.281 191.545 931.588 191.744 931.002 192.142C930.423 192.534 929.977 193.045 929.664 193.676C929.352 194.307 929.196 194.983 929.196 195.705V196.864C929.196 197.852 929.366 198.69 929.707 199.378C930.054 200.06 930.534 200.58 931.147 200.938C931.761 201.29 932.474 201.466 933.287 201.466C933.815 201.466 934.292 201.392 934.718 201.244C935.15 201.091 935.522 200.864 935.835 200.562C936.147 200.256 936.389 199.875 936.559 199.42L938.502 199.966C938.298 200.625 937.954 201.205 937.471 201.705C936.988 202.199 936.392 202.585 935.681 202.864C934.971 203.136 934.173 203.273 933.287 203.273ZM942.267 203V189.909H944.21V191.886H944.346C944.585 191.239 945.017 190.713 945.642 190.31C946.267 189.906 946.971 189.705 947.755 189.705C947.903 189.705 948.088 189.707 948.309 189.713C948.531 189.719 948.699 189.727 948.812 189.739V191.784C948.744 191.767 948.588 191.741 948.343 191.707C948.105 191.668 947.852 191.648 947.585 191.648C946.949 191.648 946.38 191.781 945.88 192.048C945.386 192.31 944.994 192.673 944.704 193.139C944.42 193.599 944.278 194.125 944.278 194.716V203H942.267ZM958.21 189.909V191.614H951.426V189.909H958.21ZM953.403 186.773H955.414V199.25C955.414 199.818 955.497 200.244 955.662 200.528C955.832 200.807 956.048 200.994 956.309 201.091C956.576 201.182 956.858 201.227 957.153 201.227C957.375 201.227 957.556 201.216 957.699 201.193C957.841 201.165 957.954 201.142 958.039 201.125L958.449 202.932C958.312 202.983 958.122 203.034 957.877 203.085C957.633 203.142 957.324 203.17 956.949 203.17C956.38 203.17 955.824 203.048 955.278 202.804C954.738 202.56 954.289 202.188 953.931 201.688C953.579 201.188 953.403 200.557 953.403 199.795V186.773ZM961.735 203V189.909H963.747V203H961.735ZM962.758 187.727C962.366 187.727 962.028 187.594 961.744 187.327C961.466 187.06 961.326 186.739 961.326 186.364C961.326 185.989 961.466 185.668 961.744 185.401C962.028 185.134 962.366 185 962.758 185C963.15 185 963.485 185.134 963.764 185.401C964.048 185.668 964.19 185.989 964.19 186.364C964.19 186.739 964.048 187.06 963.764 187.327C963.485 187.594 963.15 187.727 962.758 187.727ZM973.76 189.909V191.614H966.703V189.909H973.76ZM968.817 203V188.102C968.817 187.352 968.993 186.727 969.346 186.227C969.698 185.727 970.155 185.352 970.718 185.102C971.28 184.852 971.874 184.727 972.499 184.727C972.993 184.727 973.397 184.767 973.709 184.847C974.022 184.926 974.255 185 974.408 185.068L973.828 186.807C973.726 186.773 973.584 186.73 973.402 186.679C973.226 186.628 972.993 186.602 972.703 186.602C972.039 186.602 971.559 186.77 971.263 187.105C970.973 187.44 970.828 187.932 970.828 188.58V203H968.817ZM977.079 203V189.909H979.091V203H977.079ZM978.102 187.727C977.71 187.727 977.372 187.594 977.088 187.327C976.809 187.06 976.67 186.739 976.67 186.364C976.67 185.989 976.809 185.668 977.088 185.401C977.372 185.134 977.71 185 978.102 185C978.494 185 978.829 185.134 979.108 185.401C979.392 185.668 979.534 185.989 979.534 186.364C979.534 186.739 979.392 187.06 979.108 187.327C978.829 187.594 978.494 187.727 978.102 187.727ZM988.763 203.273C987.502 203.273 986.414 202.994 985.499 202.438C984.59 201.875 983.888 201.091 983.394 200.085C982.905 199.074 982.661 197.898 982.661 196.557C982.661 195.216 982.905 194.034 983.394 193.011C983.888 191.983 984.576 191.182 985.456 190.608C986.343 190.028 987.377 189.739 988.559 189.739C989.24 189.739 989.914 189.852 990.578 190.08C991.243 190.307 991.848 190.676 992.394 191.188C992.939 191.693 993.374 192.364 993.698 193.199C994.022 194.034 994.184 195.062 994.184 196.284V197.136H984.093V195.398H992.138C992.138 194.659 991.99 194 991.695 193.42C991.405 192.841 990.99 192.384 990.451 192.048C989.917 191.713 989.286 191.545 988.559 191.545C987.757 191.545 987.064 191.744 986.479 192.142C985.9 192.534 985.453 193.045 985.141 193.676C984.828 194.307 984.672 194.983 984.672 195.705V196.864C984.672 197.852 984.843 198.69 985.184 199.378C985.53 200.06 986.01 200.58 986.624 200.938C987.238 201.29 987.951 201.466 988.763 201.466C989.292 201.466 989.769 201.392 990.195 201.244C990.627 201.091 990.999 200.864 991.311 200.562C991.624 200.256 991.865 199.875 992.036 199.42L993.979 199.966C993.775 200.625 993.431 201.205 992.948 201.705C992.465 202.199 991.868 202.585 991.158 202.864C990.448 203.136 989.65 203.273 988.763 203.273ZM1002.69 203.273C1001.6 203.273 1000.63 202.997 999.797 202.446C998.962 201.889 998.309 201.105 997.837 200.094C997.365 199.077 997.13 197.875 997.13 196.489C997.13 195.114 997.365 193.92 997.837 192.909C998.309 191.898 998.965 191.116 999.806 190.565C1000.65 190.014 1001.62 189.739 1002.72 189.739C1003.57 189.739 1004.25 189.881 1004.74 190.165C1005.24 190.443 1005.62 190.761 1005.88 191.119C1006.15 191.472 1006.36 191.761 1006.5 191.989H1006.68V185.545H1008.69V203H1006.74V200.989H1006.5C1006.36 201.227 1006.15 201.528 1005.87 201.892C1005.6 202.25 1005.21 202.571 1004.71 202.855C1004.2 203.134 1003.53 203.273 1002.69 203.273ZM1002.96 201.466C1003.77 201.466 1004.45 201.256 1005 200.835C1005.56 200.409 1005.98 199.821 1006.27 199.071C1006.56 198.315 1006.71 197.443 1006.71 196.455C1006.71 195.477 1006.57 194.622 1006.28 193.889C1006 193.151 1005.58 192.577 1005.02 192.168C1004.46 191.753 1003.78 191.545 1002.96 191.545C1002.11 191.545 1001.4 191.764 1000.83 192.202C1000.27 192.634 999.843 193.222 999.559 193.966C999.28 194.705 999.141 195.534 999.141 196.455C999.141 197.386 999.283 198.233 999.567 198.994C999.857 199.75 1000.28 200.352 1000.85 200.801C1001.41 201.244 1002.12 201.466 1002.96 201.466Z" fill="black"/>
<rect x="1051" y="115" width="300" height="112" rx="12" fill="#F59A1E"/>
<path d="M1189.87 164.318C1188.12 164.318 1186.56 164.034 1185.19 163.466C1183.84 162.89 1182.77 162.106 1182 161.114C1181.23 160.121 1180.84 158.996 1180.84 157.739C1180.84 156.769 1181.06 155.879 1181.5 155.068C1181.95 154.25 1182.55 153.572 1183.32 153.034C1184.08 152.489 1184.94 152.14 1185.89 151.989V151.83C1184.65 151.58 1183.64 150.977 1182.87 150.023C1182.09 149.061 1181.71 147.943 1181.71 146.67C1181.71 145.466 1182.06 144.394 1182.76 143.455C1183.47 142.508 1184.43 141.765 1185.66 141.227C1186.9 140.682 1188.3 140.409 1189.87 140.409C1191.43 140.409 1192.83 140.682 1194.06 141.227C1195.29 141.773 1196.26 142.519 1196.97 143.466C1197.67 144.405 1198.03 145.473 1198.04 146.67C1198.03 147.951 1197.63 149.068 1196.85 150.023C1196.07 150.977 1195.07 151.58 1193.85 151.83V151.989C1194.79 152.14 1195.63 152.489 1196.39 153.034C1197.15 153.572 1197.76 154.25 1198.21 155.068C1198.66 155.879 1198.89 156.769 1198.9 157.739C1198.89 158.996 1198.5 160.121 1197.73 161.114C1196.96 162.106 1195.89 162.89 1194.52 163.466C1193.17 164.034 1191.62 164.318 1189.87 164.318ZM1189.87 160.705C1190.65 160.705 1191.33 160.564 1191.91 160.284C1192.49 159.996 1192.95 159.602 1193.27 159.102C1193.61 158.595 1193.77 158.011 1193.77 157.352C1193.77 156.678 1193.6 156.083 1193.26 155.568C1192.92 155.045 1192.46 154.636 1191.88 154.341C1191.29 154.038 1190.62 153.886 1189.87 153.886C1189.12 153.886 1188.44 154.038 1187.85 154.341C1187.26 154.636 1186.8 155.045 1186.46 155.568C1186.12 156.083 1185.96 156.678 1185.96 157.352C1185.96 158.011 1186.12 158.595 1186.44 159.102C1186.77 159.602 1187.23 159.996 1187.82 160.284C1188.41 160.564 1189.09 160.705 1189.87 160.705ZM1189.87 150.307C1190.52 150.307 1191.1 150.174 1191.6 149.909C1192.11 149.644 1192.51 149.277 1192.8 148.807C1193.08 148.337 1193.23 147.795 1193.23 147.182C1193.23 146.576 1193.08 146.045 1192.8 145.591C1192.51 145.129 1192.12 144.769 1191.62 144.511C1191.12 144.246 1190.53 144.114 1189.87 144.114C1189.21 144.114 1188.62 144.246 1188.12 144.511C1187.61 144.769 1187.21 145.129 1186.92 145.591C1186.64 146.045 1186.5 146.576 1186.5 147.182C1186.5 147.795 1186.65 148.337 1186.93 148.807C1187.22 149.277 1187.62 149.644 1188.13 149.909C1188.63 150.174 1189.21 150.307 1189.87 150.307ZM1209.79 160.455V144.364H1213.86V160.455H1209.79ZM1203.78 154.443V150.375H1219.87V154.443H1203.78Z" fill="black"/>
<path d="M1120.33 191H1118.22C1118.09 190.392 1117.87 189.858 1117.56 189.398C1117.25 188.938 1116.88 188.551 1116.44 188.239C1116 187.92 1115.51 187.682 1114.98 187.523C1114.44 187.364 1113.89 187.284 1113.31 187.284C1112.25 187.284 1111.29 187.551 1110.44 188.085C1109.58 188.619 1108.9 189.406 1108.4 190.446C1107.9 191.486 1107.65 192.761 1107.65 194.273C1107.65 195.784 1107.9 197.06 1108.4 198.099C1108.9 199.139 1109.58 199.926 1110.44 200.46C1111.29 200.994 1112.25 201.261 1113.31 201.261C1113.89 201.261 1114.44 201.182 1114.98 201.023C1115.51 200.864 1116 200.628 1116.44 200.315C1116.88 199.997 1117.25 199.608 1117.56 199.148C1117.87 198.682 1118.09 198.148 1118.22 197.545H1120.33C1120.17 198.437 1119.88 199.236 1119.46 199.94C1119.04 200.645 1118.52 201.244 1117.89 201.739C1117.27 202.227 1116.57 202.599 1115.79 202.855C1115.02 203.111 1114.19 203.239 1113.31 203.239C1111.82 203.239 1110.5 202.875 1109.34 202.148C1108.18 201.42 1107.27 200.386 1106.6 199.045C1105.94 197.705 1105.6 196.114 1105.6 194.273C1105.6 192.432 1105.94 190.841 1106.6 189.5C1107.27 188.159 1108.18 187.125 1109.34 186.398C1110.5 185.67 1111.82 185.307 1113.31 185.307C1114.19 185.307 1115.02 185.435 1115.79 185.69C1116.57 185.946 1117.27 186.321 1117.89 186.815C1118.52 187.304 1119.04 187.901 1119.46 188.605C1119.88 189.304 1120.17 190.102 1120.33 191ZM1129.29 203.273C1128.11 203.273 1127.07 202.991 1126.18 202.429C1125.29 201.866 1124.6 201.08 1124.1 200.068C1123.61 199.057 1123.36 197.875 1123.36 196.523C1123.36 195.159 1123.61 193.969 1124.1 192.952C1124.6 191.935 1125.29 191.145 1126.18 190.582C1127.07 190.02 1128.11 189.739 1129.29 189.739C1130.47 189.739 1131.51 190.02 1132.39 190.582C1133.29 191.145 1133.98 191.935 1134.47 192.952C1134.97 193.969 1135.22 195.159 1135.22 196.523C1135.22 197.875 1134.97 199.057 1134.47 200.068C1133.98 201.08 1133.29 201.866 1132.39 202.429C1131.51 202.991 1130.47 203.273 1129.29 203.273ZM1129.29 201.466C1130.19 201.466 1130.93 201.236 1131.51 200.776C1132.09 200.315 1132.52 199.71 1132.79 198.96C1133.07 198.21 1133.21 197.398 1133.21 196.523C1133.21 195.648 1133.07 194.832 1132.79 194.077C1132.52 193.321 1132.09 192.71 1131.51 192.244C1130.93 191.778 1130.19 191.545 1129.29 191.545C1128.39 191.545 1127.66 191.778 1127.08 192.244C1126.5 192.71 1126.07 193.321 1125.79 194.077C1125.51 194.832 1125.37 195.648 1125.37 196.523C1125.37 197.398 1125.51 198.21 1125.79 198.96C1126.07 199.71 1126.5 200.315 1127.08 200.776C1127.66 201.236 1128.39 201.466 1129.29 201.466ZM1147.04 197.648V189.909H1149.06V203H1147.04V200.784H1146.91C1146.6 201.449 1146.12 202.014 1145.48 202.48C1144.83 202.94 1144.01 203.17 1143.02 203.17C1142.2 203.17 1141.48 202.991 1140.84 202.634C1140.2 202.27 1139.7 201.724 1139.34 200.997C1138.98 200.264 1138.79 199.341 1138.79 198.227V189.909H1140.81V198.091C1140.81 199.045 1141.07 199.807 1141.61 200.375C1142.15 200.943 1142.83 201.227 1143.67 201.227C1144.17 201.227 1144.68 201.099 1145.19 200.844C1145.72 200.588 1146.15 200.196 1146.51 199.668C1146.87 199.139 1147.04 198.466 1147.04 197.648ZM1155.25 195.125V203H1153.24V189.909H1155.18V191.955H1155.35C1155.66 191.29 1156.13 190.756 1156.75 190.352C1157.38 189.943 1158.18 189.739 1159.17 189.739C1160.06 189.739 1160.83 189.92 1161.5 190.284C1162.16 190.642 1162.68 191.188 1163.05 191.92C1163.42 192.648 1163.6 193.568 1163.6 194.682V203H1161.59V194.818C1161.59 193.79 1161.32 192.989 1160.79 192.415C1160.26 191.835 1159.52 191.545 1158.59 191.545C1157.95 191.545 1157.38 191.685 1156.87 191.963C1156.37 192.241 1155.98 192.648 1155.69 193.182C1155.4 193.716 1155.25 194.364 1155.25 195.125ZM1173.47 189.909V191.614H1166.69V189.909H1173.47ZM1168.66 186.773H1170.68V199.25C1170.68 199.818 1170.76 200.244 1170.92 200.528C1171.09 200.807 1171.31 200.994 1171.57 201.091C1171.84 201.182 1172.12 201.227 1172.41 201.227C1172.64 201.227 1172.82 201.216 1172.96 201.193C1173.1 201.165 1173.22 201.142 1173.3 201.125L1173.71 202.932C1173.57 202.983 1173.38 203.034 1173.14 203.085C1172.89 203.142 1172.59 203.17 1172.21 203.17C1171.64 203.17 1171.09 203.048 1170.54 202.804C1170 202.56 1169.55 202.188 1169.19 201.688C1168.84 201.188 1168.66 200.557 1168.66 199.795V186.773ZM1177 203V189.909H1178.94V191.886H1179.08C1179.32 191.239 1179.75 190.713 1180.37 190.31C1181 189.906 1181.7 189.705 1182.49 189.705C1182.63 189.705 1182.82 189.707 1183.04 189.713C1183.26 189.719 1183.43 189.727 1183.54 189.739V191.784C1183.47 191.767 1183.32 191.741 1183.07 191.707C1182.84 191.668 1182.58 191.648 1182.32 191.648C1181.68 191.648 1181.11 191.781 1180.61 192.048C1180.12 192.31 1179.72 192.673 1179.43 193.139C1179.15 193.599 1179.01 194.125 1179.01 194.716V203H1177ZM1186.43 203V189.909H1188.44V203H1186.43ZM1187.45 187.727C1187.06 187.727 1186.72 187.594 1186.44 187.327C1186.16 187.06 1186.02 186.739 1186.02 186.364C1186.02 185.989 1186.16 185.668 1186.44 185.401C1186.72 185.134 1187.06 185 1187.45 185C1187.84 185 1188.18 185.134 1188.46 185.401C1188.74 185.668 1188.88 185.989 1188.88 186.364C1188.88 186.739 1188.74 187.06 1188.46 187.327C1188.18 187.594 1187.84 187.727 1187.45 187.727ZM1198.11 203.273C1196.85 203.273 1195.76 202.994 1194.85 202.438C1193.94 201.875 1193.24 201.091 1192.74 200.085C1192.25 199.074 1192.01 197.898 1192.01 196.557C1192.01 195.216 1192.25 194.034 1192.74 193.011C1193.24 191.983 1193.92 191.182 1194.8 190.608C1195.69 190.028 1196.72 189.739 1197.91 189.739C1198.59 189.739 1199.26 189.852 1199.93 190.08C1200.59 190.307 1201.2 190.676 1201.74 191.188C1202.29 191.693 1202.72 192.364 1203.05 193.199C1203.37 194.034 1203.53 195.062 1203.53 196.284V197.136H1193.44V195.398H1201.49C1201.49 194.659 1201.34 194 1201.04 193.42C1200.75 192.841 1200.34 192.384 1199.8 192.048C1199.26 191.713 1198.63 191.545 1197.91 191.545C1197.11 191.545 1196.41 191.744 1195.83 192.142C1195.25 192.534 1194.8 193.045 1194.49 193.676C1194.18 194.307 1194.02 194.983 1194.02 195.705V196.864C1194.02 197.852 1194.19 198.69 1194.53 199.378C1194.88 200.06 1195.36 200.58 1195.97 200.938C1196.59 201.29 1197.3 201.466 1198.11 201.466C1198.64 201.466 1199.12 201.392 1199.54 201.244C1199.97 201.091 1200.35 200.864 1200.66 200.562C1200.97 200.256 1201.21 199.875 1201.38 199.42L1203.33 199.966C1203.12 200.625 1202.78 201.205 1202.3 201.705C1201.81 202.199 1201.22 202.585 1200.51 202.864C1199.8 203.136 1199 203.273 1198.11 203.273ZM1216.36 192.841L1214.56 193.352C1214.44 193.051 1214.28 192.759 1214.05 192.474C1213.84 192.185 1213.54 191.946 1213.17 191.759C1212.79 191.571 1212.31 191.477 1211.73 191.477C1210.93 191.477 1210.26 191.662 1209.72 192.031C1209.2 192.395 1208.93 192.858 1208.93 193.42C1208.93 193.92 1209.11 194.315 1209.48 194.605C1209.84 194.895 1210.41 195.136 1211.18 195.33L1213.12 195.807C1214.3 196.091 1215.17 196.526 1215.74 197.111C1216.32 197.69 1216.6 198.437 1216.6 199.352C1216.6 200.102 1216.39 200.773 1215.95 201.364C1215.53 201.955 1214.93 202.42 1214.16 202.761C1213.4 203.102 1212.51 203.273 1211.49 203.273C1210.15 203.273 1209.05 202.983 1208.17 202.403C1207.3 201.824 1206.74 200.977 1206.51 199.864L1208.42 199.386C1208.6 200.091 1208.95 200.619 1209.45 200.972C1209.96 201.324 1210.63 201.5 1211.45 201.5C1212.39 201.5 1213.14 201.301 1213.69 200.903C1214.24 200.5 1214.52 200.017 1214.52 199.455C1214.52 199 1214.36 198.619 1214.05 198.312C1213.73 198 1213.24 197.767 1212.58 197.614L1210.4 197.102C1209.2 196.818 1208.32 196.378 1207.76 195.781C1207.2 195.179 1206.92 194.426 1206.92 193.523C1206.92 192.784 1207.13 192.131 1207.54 191.562C1207.96 190.994 1208.53 190.548 1209.26 190.224C1209.98 189.901 1210.81 189.739 1211.73 189.739C1213.02 189.739 1214.04 190.023 1214.78 190.591C1215.52 191.159 1216.05 191.909 1216.36 192.841ZM1227.65 203V185.545H1233.55C1234.91 185.545 1236.03 185.778 1236.91 186.244C1237.78 186.705 1238.43 187.338 1238.85 188.145C1239.27 188.952 1239.48 189.869 1239.48 190.898C1239.48 191.926 1239.27 192.838 1238.85 193.634C1238.43 194.429 1237.79 195.054 1236.92 195.509C1236.05 195.957 1234.94 196.182 1233.58 196.182H1228.81V194.273H1233.52C1234.45 194.273 1235.2 194.136 1235.77 193.864C1236.34 193.591 1236.75 193.205 1237.01 192.705C1237.27 192.199 1237.4 191.597 1237.4 190.898C1237.4 190.199 1237.27 189.588 1237.01 189.065C1236.75 188.543 1236.33 188.139 1235.76 187.855C1235.18 187.565 1234.43 187.42 1233.48 187.42H1229.77V203H1227.65ZM1235.87 195.159L1240.16 203H1237.71L1233.48 195.159H1235.87ZM1248.58 203.273C1247.32 203.273 1246.23 202.994 1245.32 202.438C1244.41 201.875 1243.7 201.091 1243.21 200.085C1242.72 199.074 1242.48 197.898 1242.48 196.557C1242.48 195.216 1242.72 194.034 1243.21 193.011C1243.7 191.983 1244.39 191.182 1245.27 190.608C1246.16 190.028 1247.19 189.739 1248.38 189.739C1249.06 189.739 1249.73 189.852 1250.39 190.08C1251.06 190.307 1251.66 190.676 1252.21 191.188C1252.76 191.693 1253.19 192.364 1253.51 193.199C1253.84 194.034 1254 195.062 1254 196.284V197.136H1243.91V195.398H1251.95C1251.95 194.659 1251.81 194 1251.51 193.42C1251.22 192.841 1250.81 192.384 1250.27 192.048C1249.73 191.713 1249.1 191.545 1248.38 191.545C1247.57 191.545 1246.88 191.744 1246.3 192.142C1245.72 192.534 1245.27 193.045 1244.96 193.676C1244.64 194.307 1244.49 194.983 1244.49 195.705V196.864C1244.49 197.852 1244.66 198.69 1245 199.378C1245.35 200.06 1245.83 200.58 1246.44 200.938C1247.05 201.29 1247.77 201.466 1248.58 201.466C1249.11 201.466 1249.59 201.392 1250.01 201.244C1250.44 201.091 1250.82 200.864 1251.13 200.562C1251.44 200.256 1251.68 199.875 1251.85 199.42L1253.8 199.966C1253.59 200.625 1253.25 201.205 1252.76 201.705C1252.28 202.199 1251.68 202.585 1250.97 202.864C1250.26 203.136 1249.47 203.273 1248.58 203.273ZM1261.41 203.307C1260.58 203.307 1259.83 203.151 1259.15 202.838C1258.48 202.52 1257.94 202.062 1257.54 201.466C1257.14 200.864 1256.95 200.136 1256.95 199.284C1256.95 198.534 1257.09 197.926 1257.39 197.46C1257.68 196.989 1258.08 196.619 1258.57 196.352C1259.07 196.085 1259.61 195.886 1260.21 195.756C1260.81 195.619 1261.42 195.511 1262.03 195.432C1262.82 195.33 1263.47 195.253 1263.96 195.202C1264.46 195.145 1264.82 195.051 1265.05 194.92C1265.28 194.79 1265.4 194.562 1265.4 194.239V194.17C1265.4 193.33 1265.17 192.676 1264.71 192.21C1264.26 191.744 1263.57 191.511 1262.64 191.511C1261.68 191.511 1260.93 191.722 1260.38 192.142C1259.84 192.562 1259.45 193.011 1259.23 193.489L1257.32 192.807C1257.66 192.011 1258.12 191.392 1258.68 190.949C1259.26 190.5 1259.88 190.187 1260.56 190.011C1261.24 189.83 1261.91 189.739 1262.57 189.739C1262.99 189.739 1263.47 189.79 1264.02 189.892C1264.57 189.989 1265.1 190.19 1265.61 190.497C1266.13 190.804 1266.56 191.267 1266.9 191.886C1267.24 192.506 1267.41 193.335 1267.41 194.375V203H1265.4V201.227H1265.3C1265.16 201.511 1264.93 201.815 1264.62 202.139C1264.3 202.463 1263.88 202.739 1263.35 202.966C1262.82 203.193 1262.17 203.307 1261.41 203.307ZM1261.72 201.5C1262.51 201.5 1263.18 201.344 1263.73 201.031C1264.28 200.719 1264.7 200.315 1264.97 199.821C1265.26 199.327 1265.4 198.807 1265.4 198.261V196.42C1265.32 196.523 1265.13 196.616 1264.84 196.702C1264.55 196.781 1264.22 196.852 1263.85 196.915C1263.48 196.972 1263.12 197.023 1262.77 197.068C1262.42 197.108 1262.14 197.142 1261.92 197.17C1261.4 197.239 1260.91 197.349 1260.46 197.503C1260.01 197.651 1259.64 197.875 1259.37 198.176C1259.09 198.472 1258.96 198.875 1258.96 199.386C1258.96 200.085 1259.22 200.614 1259.73 200.972C1260.26 201.324 1260.92 201.5 1261.72 201.5ZM1276.9 203.273C1275.67 203.273 1274.62 202.983 1273.73 202.403C1272.84 201.824 1272.16 201.026 1271.69 200.009C1271.21 198.991 1270.97 197.83 1270.97 196.523C1270.97 195.193 1271.21 194.02 1271.7 193.003C1272.2 191.98 1272.88 191.182 1273.76 190.608C1274.65 190.028 1275.69 189.739 1276.87 189.739C1277.79 189.739 1278.62 189.909 1279.36 190.25C1280.09 190.591 1280.7 191.068 1281.17 191.682C1281.64 192.295 1281.94 193.011 1282.05 193.83H1280.04C1279.88 193.233 1279.54 192.705 1279.01 192.244C1278.49 191.778 1277.79 191.545 1276.9 191.545C1276.12 191.545 1275.43 191.75 1274.84 192.159C1274.25 192.562 1273.8 193.134 1273.47 193.872C1273.14 194.605 1272.98 195.466 1272.98 196.455C1272.98 197.466 1273.14 198.347 1273.46 199.097C1273.78 199.847 1274.24 200.429 1274.82 200.844C1275.41 201.259 1276.11 201.466 1276.9 201.466C1277.42 201.466 1277.9 201.375 1278.32 201.193C1278.75 201.011 1279.11 200.75 1279.41 200.409C1279.7 200.068 1279.91 199.659 1280.04 199.182H1282.05C1281.94 199.955 1281.65 200.651 1281.21 201.27C1280.76 201.884 1280.17 202.372 1279.44 202.736C1278.71 203.094 1277.87 203.273 1276.9 203.273ZM1287.5 195.125V203H1285.49V185.545H1287.5V191.955H1287.67C1287.98 191.278 1288.44 190.741 1289.05 190.344C1289.67 189.94 1290.5 189.739 1291.52 189.739C1292.42 189.739 1293.2 189.918 1293.87 190.276C1294.54 190.628 1295.06 191.17 1295.43 191.903C1295.8 192.631 1295.99 193.557 1295.99 194.682V203H1293.98V194.818C1293.98 193.778 1293.71 192.974 1293.17 192.406C1292.63 191.832 1291.89 191.545 1290.94 191.545C1290.28 191.545 1289.69 191.685 1289.17 191.963C1288.65 192.241 1288.25 192.648 1287.94 193.182C1287.65 193.716 1287.5 194.364 1287.5 195.125Z" fill="black"/>
</svg>
