<svg width="1440" height="233" viewBox="0 0 1440 233" fill="none" xmlns="http://www.w3.org/2000/svg">
<rect width="1440" height="233" fill="white"/>
<path d="M652.831 59.3636C652.831 61.9015 652.35 64.0606 651.388 65.8409C650.433 67.6212 649.13 68.9811 647.479 69.9205C645.835 70.8523 643.986 71.3182 641.933 71.3182C639.865 71.3182 638.009 70.8485 636.365 69.9091C634.721 68.9697 633.422 67.6098 632.467 65.8295C631.513 64.0492 631.036 61.8939 631.036 59.3636C631.036 56.8258 631.513 54.6667 632.467 52.8864C633.422 51.1061 634.721 49.75 636.365 48.8182C638.009 47.8788 639.865 47.4091 641.933 47.4091C643.986 47.4091 645.835 47.8788 647.479 48.8182C649.13 49.75 650.433 51.1061 651.388 52.8864C652.35 54.6667 652.831 56.8258 652.831 59.3636ZM647.842 59.3636C647.842 57.7197 647.596 56.3333 647.104 55.2045C646.619 54.0758 645.933 53.2197 645.047 52.6364C644.161 52.053 643.123 51.7614 641.933 51.7614C640.744 51.7614 639.706 52.053 638.82 52.6364C637.933 53.2197 637.244 54.0758 636.751 55.2045C636.267 56.3333 636.024 57.7197 636.024 59.3636C636.024 61.0076 636.267 62.3939 636.751 63.5227C637.244 64.6515 637.933 65.5076 638.82 66.0909C639.706 66.6742 640.744 66.9659 641.933 66.9659C643.123 66.9659 644.161 66.6742 645.047 66.0909C645.933 65.5076 646.619 64.6515 647.104 63.5227C647.596 62.3939 647.842 61.0076 647.842 59.3636ZM668.078 63.5682V53.5455H672.919V71H668.271V67.8295H668.089C667.696 68.8523 667.04 69.6742 666.124 70.2955C665.214 70.9167 664.105 71.2273 662.794 71.2273C661.627 71.2273 660.601 70.9621 659.714 70.4318C658.828 69.9015 658.135 69.1477 657.635 68.1705C657.143 67.1932 656.893 66.0227 656.885 64.6591V53.5455H661.726V63.7955C661.733 64.8258 662.01 65.6402 662.555 66.2386C663.101 66.8371 663.832 67.1364 664.749 67.1364C665.332 67.1364 665.877 67.0038 666.385 66.7386C666.893 66.4659 667.302 66.0644 667.612 65.5341C667.93 65.0038 668.086 64.3485 668.078 63.5682ZM677.291 71V53.5455H681.984V56.5909H682.166C682.484 55.5076 683.018 54.6894 683.768 54.1364C684.518 53.5758 685.382 53.2955 686.359 53.2955C686.602 53.2955 686.863 53.3106 687.143 53.3409C687.424 53.3712 687.67 53.4129 687.882 53.4659V57.7614C687.655 57.6932 687.34 57.6326 686.939 57.5795C686.537 57.5265 686.17 57.5 685.837 57.5C685.125 57.5 684.488 57.6553 683.928 57.9659C683.375 58.2689 682.935 58.6932 682.609 59.2386C682.291 59.7841 682.132 60.4129 682.132 61.125V71H677.291ZM719.416 55.875H714.439C714.348 55.2311 714.162 54.6591 713.882 54.1591C713.602 53.6515 713.242 53.2197 712.803 52.8636C712.363 52.5076 711.856 52.2348 711.28 52.0455C710.712 51.8561 710.094 51.7614 709.428 51.7614C708.223 51.7614 707.174 52.0606 706.28 52.6591C705.386 53.25 704.693 54.1136 704.2 55.25C703.708 56.3788 703.462 57.75 703.462 59.3636C703.462 61.0227 703.708 62.4167 704.2 63.5455C704.7 64.6742 705.397 65.5265 706.291 66.1023C707.185 66.678 708.219 66.9659 709.393 66.9659C710.053 66.9659 710.662 66.8788 711.223 66.7045C711.791 66.5303 712.295 66.2765 712.734 65.9432C713.174 65.6023 713.537 65.1894 713.825 64.7045C714.121 64.2197 714.325 63.6667 714.439 63.0455L719.416 63.0682C719.287 64.1364 718.965 65.1667 718.45 66.1591C717.943 67.1439 717.257 68.0265 716.393 68.8068C715.537 69.5795 714.515 70.1932 713.325 70.6477C712.143 71.0947 710.806 71.3182 709.314 71.3182C707.238 71.3182 705.382 70.8485 703.746 69.9091C702.117 68.9697 700.829 67.6098 699.882 65.8295C698.943 64.0492 698.473 61.8939 698.473 59.3636C698.473 56.8258 698.95 54.6667 699.905 52.8864C700.859 51.1061 702.155 49.75 703.791 48.8182C705.428 47.8788 707.268 47.4091 709.314 47.4091C710.662 47.4091 711.912 47.5985 713.064 47.9773C714.223 48.3561 715.25 48.9091 716.143 49.6364C717.037 50.3561 717.765 51.2386 718.325 52.2841C718.893 53.3295 719.257 54.5265 719.416 55.875ZM728.195 47.7273V71H723.354V47.7273H728.195ZM732.572 71V53.5455H737.413V71H732.572ZM735.004 51.2955C734.285 51.2955 733.667 51.0568 733.152 50.5795C732.644 50.0947 732.391 49.5152 732.391 48.8409C732.391 48.1742 732.644 47.6023 733.152 47.125C733.667 46.6402 734.285 46.3977 735.004 46.3977C735.724 46.3977 736.338 46.6402 736.845 47.125C737.36 47.6023 737.618 48.1742 737.618 48.8409C737.618 49.5152 737.36 50.0947 736.845 50.5795C736.338 51.0568 735.724 51.2955 735.004 51.2955ZM749.746 71.3409C747.95 71.3409 746.405 70.9773 745.109 70.25C743.821 69.5152 742.829 68.4773 742.132 67.1364C741.435 65.7879 741.087 64.1932 741.087 62.3523C741.087 60.5568 741.435 58.9811 742.132 57.625C742.829 56.2689 743.81 55.2121 745.075 54.4545C746.348 53.697 747.84 53.3182 749.553 53.3182C750.704 53.3182 751.776 53.5038 752.768 53.875C753.768 54.2386 754.64 54.7879 755.382 55.5227C756.132 56.2576 756.715 57.1818 757.132 58.2955C757.549 59.4015 757.757 60.697 757.757 62.1818V63.5114H743.018V60.5114H753.2C753.2 59.8144 753.049 59.197 752.746 58.6591C752.443 58.1212 752.022 57.7008 751.484 57.3977C750.954 57.0871 750.337 56.9318 749.632 56.9318C748.897 56.9318 748.246 57.1023 747.678 57.4432C747.117 57.7765 746.678 58.2273 746.359 58.7955C746.041 59.3561 745.878 59.9811 745.871 60.6705V63.5227C745.871 64.3864 746.03 65.1326 746.348 65.7614C746.674 66.3902 747.132 66.875 747.723 67.2159C748.314 67.5568 749.015 67.7273 749.825 67.7273C750.363 67.7273 750.856 67.6515 751.303 67.5C751.75 67.3485 752.132 67.1212 752.45 66.8182C752.768 66.5152 753.011 66.1439 753.178 65.7045L757.655 66C757.428 67.0758 756.962 68.0152 756.257 68.8182C755.56 69.6136 754.659 70.2348 753.553 70.6818C752.454 71.1212 751.185 71.3409 749.746 71.3409ZM766.257 60.9091V71H761.416V53.5455H766.03V56.625H766.234C766.621 55.6098 767.268 54.8068 768.178 54.2159C769.087 53.6174 770.189 53.3182 771.484 53.3182C772.696 53.3182 773.753 53.5833 774.655 54.1136C775.556 54.6439 776.257 55.4015 776.757 56.3864C777.257 57.3636 777.507 58.5303 777.507 59.8864V71H772.666V60.75C772.674 59.6818 772.401 58.8485 771.848 58.25C771.295 57.6439 770.534 57.3409 769.564 57.3409C768.912 57.3409 768.337 57.4811 767.837 57.7614C767.344 58.0417 766.958 58.4508 766.678 58.9886C766.405 59.5189 766.265 60.1591 766.257 60.9091ZM791.107 53.5455V57.1818H780.595V53.5455H791.107ZM782.982 49.3636H787.822V65.6364C787.822 66.0833 787.891 66.4318 788.027 66.6818C788.163 66.9242 788.353 67.0947 788.595 67.1932C788.845 67.2917 789.133 67.3409 789.459 67.3409C789.686 67.3409 789.913 67.322 790.141 67.2841C790.368 67.2386 790.542 67.2045 790.663 67.1818L791.425 70.7841C791.182 70.8598 790.841 70.947 790.402 71.0455C789.963 71.1515 789.429 71.2159 788.8 71.2386C787.633 71.2841 786.61 71.1288 785.732 70.7727C784.86 70.4167 784.182 69.8636 783.697 69.1136C783.213 68.3636 782.974 67.4167 782.982 66.2727V49.3636ZM809.064 58.5227L804.632 58.7955C804.556 58.4167 804.393 58.0758 804.143 57.7727C803.893 57.4621 803.564 57.2159 803.155 57.0341C802.753 56.8447 802.272 56.75 801.712 56.75C800.962 56.75 800.329 56.9091 799.814 57.2273C799.299 57.5379 799.041 57.9545 799.041 58.4773C799.041 58.8939 799.208 59.2462 799.541 59.5341C799.875 59.822 800.446 60.053 801.257 60.2273L804.416 60.8636C806.113 61.2121 807.378 61.7727 808.212 62.5455C809.045 63.3182 809.462 64.3333 809.462 65.5909C809.462 66.7348 809.125 67.7386 808.45 68.6023C807.784 69.4659 806.867 70.1402 805.7 70.625C804.541 71.1023 803.204 71.3409 801.689 71.3409C799.378 71.3409 797.537 70.8598 796.166 69.8977C794.803 68.928 794.003 67.6098 793.768 65.9432L798.53 65.6932C798.674 66.3977 799.022 66.9356 799.575 67.3068C800.128 67.6705 800.837 67.8523 801.7 67.8523C802.549 67.8523 803.231 67.6894 803.746 67.3636C804.268 67.0303 804.534 66.6023 804.541 66.0795C804.534 65.6402 804.348 65.2803 803.984 65C803.621 64.7121 803.06 64.4924 802.303 64.3409L799.28 63.7386C797.575 63.3977 796.306 62.8068 795.473 61.9659C794.647 61.125 794.234 60.053 794.234 58.75C794.234 57.6288 794.537 56.6629 795.143 55.8523C795.757 55.0417 796.617 54.4167 797.723 53.9773C798.837 53.5379 800.14 53.3182 801.632 53.3182C803.837 53.3182 805.571 53.7841 806.837 54.7159C808.109 55.6477 808.852 56.9167 809.064 58.5227Z" fill="black"/>
<path fill-rule="evenodd" clip-rule="evenodd" d="M425.768 137.768C426.744 136.791 426.744 135.209 425.768 134.232C424.792 133.256 423.208 133.256 422.232 134.232L407.37 149.094L396.684 134.522C396.213 133.879 395.464 133.5 394.668 133.5H384C383.058 133.5 382.196 134.03 381.77 134.87C381.344 135.71 381.427 136.719 381.984 137.478L397.638 158.826L382.232 174.232C381.256 175.208 381.256 176.792 382.232 177.768C383.209 178.744 384.791 178.744 385.768 177.768L400.63 162.906L411.317 177.479C411.788 178.12 412.536 178.5 413.333 178.5H424C424.942 178.5 425.804 177.971 426.23 177.13C426.656 176.29 426.573 175.281 426.016 174.521L410.361 153.174L425.768 137.768ZM404.926 154.216C405.003 154.345 405.093 154.468 405.195 154.584L419.066 173.5H414.599L388.933 138.5H393.401L404.926 154.216Z" fill="#051344"/>
<g clip-path="url(#clip0_175_3117)">
<path d="M532 132.97C532 130.949 532.676 129.283 534.027 127.97C535.378 126.657 537.135 126 539.297 126C541.421 126 543.139 126.646 544.452 127.939C545.803 129.273 546.479 131.01 546.479 133.152C546.479 135.091 545.822 136.707 544.51 138C543.158 139.333 541.382 140 539.181 140H539.124C537 140 535.282 139.333 533.969 138C532.656 136.667 532 134.99 532 132.97ZM532.753 186V145.515H545.61V186H532.753ZM552.734 186H565.591V163.394C565.591 161.98 565.745 160.889 566.054 160.121C566.595 158.747 567.415 157.586 568.515 156.636C569.616 155.687 570.996 155.212 572.656 155.212C576.981 155.212 579.143 158.263 579.143 164.364V186H592V162.788C592 156.808 590.649 152.273 587.946 149.182C585.243 146.091 581.672 144.545 577.232 144.545C572.251 144.545 568.371 146.788 565.591 151.273V151.394H565.533L565.591 151.273V145.515H552.734C552.811 146.808 552.849 150.828 552.849 157.576C552.849 164.323 552.811 173.798 552.734 186Z" fill="black"/>
</g>
<path d="M741.871 150.194C741.871 144.92 737.613 140.662 732.339 140.662H707.661C702.387 140.662 698.129 144.92 698.129 150.194V161.807C698.129 167.081 702.387 171.34 707.661 171.34H732.339C737.613 171.34 741.871 167.081 741.871 161.807V150.194ZM726.29 156.581L716.468 162.001C716.032 162.243 715.645 161.904 715.645 161.42V150.34C715.645 149.856 716.032 149.517 716.468 149.759L726.387 155.42C726.823 155.711 726.726 156.34 726.29 156.581Z" fill="#333033"/>
<path fill-rule="evenodd" clip-rule="evenodd" d="M893 146.625H881.75V139.125C881.75 138.13 882.145 137.177 882.848 136.473C883.552 135.77 884.505 135.375 885.5 135.375H889.25V126H881.75C878.766 126 875.905 127.185 873.795 129.295C871.685 131.405 870.5 134.266 870.5 137.25V146.625H863V156H870.5V186H881.75V156H889.25L893 146.625Z" fill="#1976D2"/>
<path d="M1049.12 184.125H1022.88C1018.9 184.125 1015.08 182.545 1012.27 179.732C1009.46 176.919 1007.88 173.103 1007.88 169.125V142.875C1007.88 138.897 1009.46 135.081 1012.27 132.268C1015.08 129.455 1018.9 127.875 1022.88 127.875H1049.12C1053.1 127.875 1056.92 129.455 1059.73 132.268C1062.54 135.081 1064.12 138.897 1064.12 142.875V169.125C1064.12 173.103 1062.54 176.919 1059.73 179.732C1056.92 182.545 1053.1 184.125 1049.12 184.125Z" stroke="black" stroke-miterlimit="10"/>
<path d="M1036 169.125C1043.25 169.125 1049.12 163.249 1049.12 156C1049.12 148.751 1043.25 142.875 1036 142.875C1028.75 142.875 1022.88 148.751 1022.88 156C1022.88 163.249 1028.75 169.125 1036 169.125Z" stroke="black" stroke-miterlimit="10"/>
<path d="M1052.88 141C1053.91 141 1054.75 140.161 1054.75 139.125C1054.75 138.089 1053.91 137.25 1052.88 137.25C1051.84 137.25 1051 138.089 1051 139.125C1051 140.161 1051.84 141 1052.88 141Z" stroke="black" stroke-miterlimit="10"/>
<defs>
<clipPath id="clip0_175_3117">
<rect width="60" height="60" fill="white" transform="translate(532 126)"/>
</clipPath>
</defs>
</svg>
