<svg width="1440" height="269" viewBox="0 0 1440 269" fill="none" xmlns="http://www.w3.org/2000/svg">
<rect width="1440" height="269" fill="white"/>
<path d="M692.57 54.4205C692.479 53.5038 692.089 52.7917 691.399 52.2841C690.71 51.7765 689.774 51.5227 688.592 51.5227C687.789 51.5227 687.111 51.6364 686.558 51.8636C686.005 52.0833 685.581 52.3902 685.286 52.7841C684.998 53.178 684.854 53.625 684.854 54.125C684.839 54.5417 684.926 54.9053 685.115 55.2159C685.312 55.5265 685.581 55.7955 685.922 56.0227C686.263 56.2424 686.657 56.4356 687.104 56.6023C687.551 56.7614 688.028 56.8977 688.536 57.0114L690.626 57.5114C691.642 57.7386 692.573 58.0417 693.422 58.4205C694.27 58.7992 695.005 59.2652 695.626 59.8182C696.248 60.3712 696.729 61.0227 697.07 61.7727C697.418 62.5227 697.596 63.3826 697.604 64.3523C697.596 65.7765 697.232 67.0114 696.513 68.0568C695.801 69.0947 694.77 69.9015 693.422 70.4773C692.081 71.0455 690.464 71.3295 688.57 71.3295C686.691 71.3295 685.054 71.0417 683.661 70.4659C682.274 69.8902 681.191 69.0379 680.411 67.9091C679.638 66.7727 679.232 65.3674 679.195 63.6932H683.956C684.009 64.4735 684.232 65.125 684.626 65.6477C685.028 66.1629 685.562 66.553 686.229 66.8182C686.903 67.0758 687.664 67.2045 688.513 67.2045C689.346 67.2045 690.07 67.0833 690.683 66.8409C691.304 66.5985 691.786 66.2614 692.126 65.8295C692.467 65.3977 692.638 64.9015 692.638 64.3409C692.638 63.8182 692.482 63.3788 692.172 63.0227C691.869 62.6667 691.422 62.3636 690.831 62.1136C690.248 61.8636 689.532 61.6364 688.683 61.4318L686.149 60.7955C684.187 60.3182 682.638 59.572 681.501 58.5568C680.365 57.5417 679.801 56.1742 679.808 54.4545C679.801 53.0455 680.176 51.8144 680.933 50.7614C681.698 49.7083 682.748 48.8864 684.081 48.2955C685.414 47.7045 686.929 47.4091 688.626 47.4091C690.354 47.4091 691.861 47.7045 693.149 48.2955C694.445 48.8864 695.452 49.7083 696.172 50.7614C696.892 51.8144 697.263 53.0341 697.286 54.4205H692.57ZM710.607 53.5455V57.1818H700.095V53.5455H710.607ZM702.482 49.3636H707.322V65.6364C707.322 66.0833 707.391 66.4318 707.527 66.6818C707.663 66.9242 707.853 67.0947 708.095 67.1932C708.345 67.2917 708.633 67.3409 708.959 67.3409C709.186 67.3409 709.413 67.322 709.641 67.2841C709.868 67.2386 710.042 67.2045 710.163 67.1818L710.925 70.7841C710.682 70.8598 710.341 70.947 709.902 71.0455C709.463 71.1515 708.929 71.2159 708.3 71.2386C707.133 71.2841 706.11 71.1288 705.232 70.7727C704.36 70.4167 703.682 69.8636 703.197 69.1136C702.713 68.3636 702.474 67.4167 702.482 66.2727V49.3636ZM719.237 71.3295C718.124 71.3295 717.131 71.1364 716.26 70.75C715.389 70.3561 714.699 69.7765 714.192 69.0114C713.692 68.2386 713.442 67.2765 713.442 66.125C713.442 65.1553 713.62 64.3409 713.976 63.6818C714.332 63.0227 714.817 62.4924 715.43 62.0909C716.044 61.6894 716.741 61.3864 717.521 61.1818C718.309 60.9773 719.135 60.8333 719.999 60.75C721.014 60.6439 721.832 60.5455 722.453 60.4545C723.074 60.3561 723.525 60.2121 723.805 60.0227C724.086 59.8333 724.226 59.553 724.226 59.1818V59.1136C724.226 58.3939 723.999 57.8371 723.544 57.4432C723.097 57.0492 722.461 56.8523 721.635 56.8523C720.764 56.8523 720.071 57.0455 719.555 57.4318C719.04 57.8106 718.699 58.2879 718.533 58.8636L714.055 58.5C714.283 57.4394 714.73 56.5227 715.396 55.75C716.063 54.9697 716.923 54.3712 717.976 53.9545C719.036 53.5303 720.264 53.3182 721.658 53.3182C722.627 53.3182 723.555 53.4318 724.442 53.6591C725.336 53.8864 726.127 54.2386 726.817 54.7159C727.514 55.1932 728.063 55.8068 728.464 56.5568C728.866 57.2992 729.067 58.1894 729.067 59.2273V71H724.476V68.5795H724.339C724.059 69.125 723.684 69.6061 723.214 70.0227C722.745 70.4318 722.18 70.7538 721.521 70.9886C720.862 71.2159 720.101 71.3295 719.237 71.3295ZM720.624 67.9886C721.336 67.9886 721.964 67.8485 722.51 67.5682C723.055 67.2803 723.483 66.8939 723.794 66.4091C724.105 65.9242 724.26 65.375 724.26 64.7614V62.9091C724.108 63.0076 723.9 63.0985 723.635 63.1818C723.377 63.2576 723.086 63.3295 722.76 63.3977C722.434 63.4583 722.108 63.5152 721.783 63.5682C721.457 63.6136 721.161 63.6553 720.896 63.6932C720.328 63.7765 719.832 63.9091 719.408 64.0909C718.983 64.2727 718.654 64.5189 718.419 64.8295C718.184 65.1326 718.067 65.5114 718.067 65.9659C718.067 66.625 718.305 67.1288 718.783 67.4773C719.268 67.8182 719.881 67.9886 720.624 67.9886ZM742.607 53.5455V57.1818H732.095V53.5455H742.607ZM734.482 49.3636H739.322V65.6364C739.322 66.0833 739.391 66.4318 739.527 66.6818C739.663 66.9242 739.853 67.0947 740.095 67.1932C740.345 67.2917 740.633 67.3409 740.959 67.3409C741.186 67.3409 741.413 67.322 741.641 67.2841C741.868 67.2386 742.042 67.2045 742.163 67.1818L742.925 70.7841C742.682 70.8598 742.341 70.947 741.902 71.0455C741.463 71.1515 740.929 71.2159 740.3 71.2386C739.133 71.2841 738.11 71.1288 737.232 70.7727C736.36 70.4167 735.682 69.8636 735.197 69.1136C734.713 68.3636 734.474 67.4167 734.482 66.2727V49.3636ZM760.564 58.5227L756.132 58.7955C756.056 58.4167 755.893 58.0758 755.643 57.7727C755.393 57.4621 755.064 57.2159 754.655 57.0341C754.253 56.8447 753.772 56.75 753.212 56.75C752.462 56.75 751.829 56.9091 751.314 57.2273C750.799 57.5379 750.541 57.9545 750.541 58.4773C750.541 58.8939 750.708 59.2462 751.041 59.5341C751.375 59.822 751.946 60.053 752.757 60.2273L755.916 60.8636C757.613 61.2121 758.878 61.7727 759.712 62.5455C760.545 63.3182 760.962 64.3333 760.962 65.5909C760.962 66.7348 760.625 67.7386 759.95 68.6023C759.284 69.4659 758.367 70.1402 757.2 70.625C756.041 71.1023 754.704 71.3409 753.189 71.3409C750.878 71.3409 749.037 70.8598 747.666 69.8977C746.303 68.928 745.503 67.6098 745.268 65.9432L750.03 65.6932C750.174 66.3977 750.522 66.9356 751.075 67.3068C751.628 67.6705 752.337 67.8523 753.2 67.8523C754.049 67.8523 754.731 67.6894 755.246 67.3636C755.768 67.0303 756.034 66.6023 756.041 66.0795C756.034 65.6402 755.848 65.2803 755.484 65C755.121 64.7121 754.56 64.4924 753.803 64.3409L750.78 63.7386C749.075 63.3977 747.806 62.8068 746.973 61.9659C746.147 61.125 745.734 60.053 745.734 58.75C745.734 57.6288 746.037 56.6629 746.643 55.8523C747.257 55.0417 748.117 54.4167 749.223 53.9773C750.337 53.5379 751.64 53.3182 753.132 53.3182C755.337 53.3182 757.071 53.7841 758.337 54.7159C759.609 55.6477 760.352 56.9167 760.564 58.5227Z" fill="black"/>
<rect x="79" y="115" width="300" height="112" rx="12" fill="#F59A1E"/>
<path d="M199.527 140.727V164H194.607V145.398H194.47L189.141 148.739V144.375L194.902 140.727H199.527ZM214.683 164.511C212.729 164.504 211.047 164.023 209.638 163.068C208.236 162.114 207.157 160.731 206.399 158.92C205.649 157.11 205.278 154.932 205.286 152.386C205.286 149.848 205.661 147.686 206.411 145.898C207.168 144.11 208.248 142.75 209.649 141.818C211.058 140.879 212.736 140.409 214.683 140.409C216.63 140.409 218.304 140.879 219.706 141.818C221.115 142.758 222.198 144.121 222.956 145.909C223.714 147.689 224.089 149.848 224.081 152.386C224.081 154.939 223.702 157.121 222.945 158.932C222.195 160.742 221.119 162.125 219.717 163.08C218.316 164.034 216.638 164.511 214.683 164.511ZM214.683 160.432C216.017 160.432 217.081 159.761 217.876 158.42C218.672 157.08 219.066 155.068 219.058 152.386C219.058 150.621 218.876 149.152 218.513 147.977C218.157 146.803 217.649 145.92 216.99 145.33C216.339 144.739 215.57 144.443 214.683 144.443C213.357 144.443 212.297 145.106 211.501 146.432C210.706 147.758 210.304 149.742 210.297 152.386C210.297 154.174 210.475 155.667 210.831 156.864C211.195 158.053 211.706 158.947 212.365 159.545C213.024 160.136 213.797 160.432 214.683 160.432ZM237.214 164.511C235.26 164.504 233.578 164.023 232.169 163.068C230.768 162.114 229.688 160.731 228.93 158.92C228.18 157.11 227.809 154.932 227.817 152.386C227.817 149.848 228.192 147.686 228.942 145.898C229.699 144.11 230.779 142.75 232.18 141.818C233.589 140.879 235.268 140.409 237.214 140.409C239.161 140.409 240.836 140.879 242.237 141.818C243.646 142.758 244.73 144.121 245.487 145.909C246.245 147.689 246.62 149.848 246.612 152.386C246.612 154.939 246.233 157.121 245.476 158.932C244.726 160.742 243.65 162.125 242.249 163.08C240.847 164.034 239.169 164.511 237.214 164.511ZM237.214 160.432C238.548 160.432 239.612 159.761 240.408 158.42C241.203 157.08 241.597 155.068 241.589 152.386C241.589 150.621 241.408 149.152 241.044 147.977C240.688 146.803 240.18 145.92 239.521 145.33C238.87 144.739 238.101 144.443 237.214 144.443C235.889 144.443 234.828 145.106 234.033 146.432C233.237 147.758 232.836 149.742 232.828 152.386C232.828 154.174 233.006 155.667 233.362 156.864C233.726 158.053 234.237 158.947 234.896 159.545C235.555 160.136 236.328 160.432 237.214 160.432ZM257.575 160.455V144.364H261.643V160.455H257.575ZM251.564 154.443V150.375H267.655V154.443H251.564Z" fill="black"/>
<path d="M196.808 191H194.694C194.569 190.392 194.35 189.858 194.038 189.398C193.731 188.938 193.356 188.551 192.913 188.239C192.475 187.92 191.989 187.682 191.455 187.523C190.921 187.364 190.364 187.284 189.785 187.284C188.728 187.284 187.771 187.551 186.913 188.085C186.06 188.619 185.381 189.406 184.876 190.446C184.376 191.486 184.126 192.761 184.126 194.273C184.126 195.784 184.376 197.06 184.876 198.099C185.381 199.139 186.06 199.926 186.913 200.46C187.771 200.994 188.728 201.261 189.785 201.261C190.364 201.261 190.921 201.182 191.455 201.023C191.989 200.864 192.475 200.628 192.913 200.315C193.356 199.997 193.731 199.608 194.038 199.148C194.35 198.682 194.569 198.148 194.694 197.545H196.808C196.648 198.437 196.359 199.236 195.938 199.94C195.518 200.645 194.995 201.244 194.37 201.739C193.745 202.227 193.043 202.599 192.265 202.855C191.492 203.111 190.665 203.239 189.785 203.239C188.296 203.239 186.972 202.875 185.813 202.148C184.654 201.42 183.742 200.386 183.077 199.045C182.413 197.705 182.08 196.114 182.08 194.273C182.08 192.432 182.413 190.841 183.077 189.5C183.742 188.159 184.654 187.125 185.813 186.398C186.972 185.67 188.296 185.307 189.785 185.307C190.665 185.307 191.492 185.435 192.265 185.69C193.043 185.946 193.745 186.321 194.37 186.815C194.995 187.304 195.518 187.901 195.938 188.605C196.359 189.304 196.648 190.102 196.808 191ZM205.768 203.273C204.587 203.273 203.55 202.991 202.658 202.429C201.771 201.866 201.078 201.08 200.578 200.068C200.084 199.057 199.837 197.875 199.837 196.523C199.837 195.159 200.084 193.969 200.578 192.952C201.078 191.935 201.771 191.145 202.658 190.582C203.55 190.02 204.587 189.739 205.768 189.739C206.95 189.739 207.984 190.02 208.871 190.582C209.763 191.145 210.456 191.935 210.95 192.952C211.45 193.969 211.7 195.159 211.7 196.523C211.7 197.875 211.45 199.057 210.95 200.068C210.456 201.08 209.763 201.866 208.871 202.429C207.984 202.991 206.95 203.273 205.768 203.273ZM205.768 201.466C206.666 201.466 207.405 201.236 207.984 200.776C208.564 200.315 208.993 199.71 209.271 198.96C209.55 198.21 209.689 197.398 209.689 196.523C209.689 195.648 209.55 194.832 209.271 194.077C208.993 193.321 208.564 192.71 207.984 192.244C207.405 191.778 206.666 191.545 205.768 191.545C204.871 191.545 204.132 191.778 203.553 192.244C202.973 192.71 202.544 193.321 202.266 194.077C201.987 194.832 201.848 195.648 201.848 196.523C201.848 197.398 201.987 198.21 202.266 198.96C202.544 199.71 202.973 200.315 203.553 200.776C204.132 201.236 204.871 201.466 205.768 201.466ZM223.521 197.648V189.909H225.532V203H223.521V200.784H223.384C223.077 201.449 222.6 202.014 221.952 202.48C221.305 202.94 220.487 203.17 219.498 203.17C218.68 203.17 217.952 202.991 217.316 202.634C216.68 202.27 216.18 201.724 215.816 200.997C215.452 200.264 215.271 199.341 215.271 198.227V189.909H217.282V198.091C217.282 199.045 217.549 199.807 218.083 200.375C218.623 200.943 219.31 201.227 220.146 201.227C220.646 201.227 221.154 201.099 221.671 200.844C222.194 200.588 222.631 200.196 222.984 199.668C223.342 199.139 223.521 198.466 223.521 197.648ZM229.716 203V189.909H231.659V191.886H231.795C232.034 191.239 232.466 190.713 233.091 190.31C233.716 189.906 234.42 189.705 235.205 189.705C235.352 189.705 235.537 189.707 235.759 189.713C235.98 189.719 236.148 189.727 236.261 189.739V191.784C236.193 191.767 236.037 191.741 235.793 191.707C235.554 191.668 235.301 191.648 235.034 191.648C234.398 191.648 233.83 191.781 233.33 192.048C232.835 192.31 232.443 192.673 232.153 193.139C231.869 193.599 231.727 194.125 231.727 194.716V203H229.716ZM248.418 192.841L246.612 193.352C246.498 193.051 246.33 192.759 246.109 192.474C245.893 192.185 245.597 191.946 245.222 191.759C244.847 191.571 244.367 191.477 243.782 191.477C242.981 191.477 242.313 191.662 241.779 192.031C241.251 192.395 240.987 192.858 240.987 193.42C240.987 193.92 241.168 194.315 241.532 194.605C241.896 194.895 242.464 195.136 243.237 195.33L245.18 195.807C246.35 196.091 247.222 196.526 247.796 197.111C248.37 197.69 248.657 198.437 248.657 199.352C248.657 200.102 248.441 200.773 248.009 201.364C247.583 201.955 246.987 202.42 246.219 202.761C245.452 203.102 244.56 203.273 243.543 203.273C242.208 203.273 241.103 202.983 240.228 202.403C239.353 201.824 238.799 200.977 238.566 199.864L240.475 199.386C240.657 200.091 241.001 200.619 241.506 200.972C242.018 201.324 242.685 201.5 243.509 201.5C244.447 201.5 245.191 201.301 245.742 200.903C246.299 200.5 246.577 200.017 246.577 199.455C246.577 199 246.418 198.619 246.1 198.312C245.782 198 245.293 197.767 244.634 197.614L242.452 197.102C241.254 196.818 240.373 196.378 239.81 195.781C239.254 195.179 238.975 194.426 238.975 193.523C238.975 192.784 239.183 192.131 239.597 191.562C240.018 190.994 240.589 190.548 241.31 190.224C242.038 189.901 242.862 189.739 243.782 189.739C245.077 189.739 246.094 190.023 246.833 190.591C247.577 191.159 248.106 191.909 248.418 192.841ZM257.673 203.273C256.412 203.273 255.324 202.994 254.409 202.438C253.5 201.875 252.798 201.091 252.304 200.085C251.815 199.074 251.571 197.898 251.571 196.557C251.571 195.216 251.815 194.034 252.304 193.011C252.798 191.983 253.486 191.182 254.366 190.608C255.253 190.028 256.287 189.739 257.469 189.739C258.151 189.739 258.824 189.852 259.489 190.08C260.153 190.307 260.759 190.676 261.304 191.188C261.849 191.693 262.284 192.364 262.608 193.199C262.932 194.034 263.094 195.062 263.094 196.284V197.136H253.003V195.398H261.048C261.048 194.659 260.901 194 260.605 193.42C260.315 192.841 259.901 192.384 259.361 192.048C258.827 191.713 258.196 191.545 257.469 191.545C256.668 191.545 255.974 191.744 255.389 192.142C254.81 192.534 254.364 193.045 254.051 193.676C253.739 194.307 253.582 194.983 253.582 195.705V196.864C253.582 197.852 253.753 198.69 254.094 199.378C254.44 200.06 254.92 200.58 255.534 200.938C256.148 201.29 256.861 201.466 257.673 201.466C258.202 201.466 258.679 201.392 259.105 201.244C259.537 201.091 259.909 200.864 260.222 200.562C260.534 200.256 260.776 199.875 260.946 199.42L262.889 199.966C262.685 200.625 262.341 201.205 261.858 201.705C261.375 202.199 260.778 202.585 260.068 202.864C259.358 203.136 258.56 203.273 257.673 203.273ZM275.926 192.841L274.119 193.352C274.006 193.051 273.838 192.759 273.616 192.474C273.401 192.185 273.105 191.946 272.73 191.759C272.355 191.571 271.875 191.477 271.29 191.477C270.489 191.477 269.821 191.662 269.287 192.031C268.759 192.395 268.494 192.858 268.494 193.42C268.494 193.92 268.676 194.315 269.04 194.605C269.403 194.895 269.972 195.136 270.744 195.33L272.688 195.807C273.858 196.091 274.73 196.526 275.304 197.111C275.878 197.69 276.165 198.437 276.165 199.352C276.165 200.102 275.949 200.773 275.517 201.364C275.091 201.955 274.494 202.42 273.727 202.761C272.96 203.102 272.068 203.273 271.051 203.273C269.716 203.273 268.611 202.983 267.736 202.403C266.861 201.824 266.307 200.977 266.074 199.864L267.983 199.386C268.165 200.091 268.509 200.619 269.014 200.972C269.526 201.324 270.193 201.5 271.017 201.5C271.955 201.5 272.699 201.301 273.25 200.903C273.807 200.5 274.085 200.017 274.085 199.455C274.085 199 273.926 198.619 273.608 198.312C273.29 198 272.801 197.767 272.142 197.614L269.96 197.102C268.761 196.818 267.881 196.378 267.318 195.781C266.761 195.179 266.483 194.426 266.483 193.523C266.483 192.784 266.69 192.131 267.105 191.562C267.526 190.994 268.097 190.548 268.818 190.224C269.545 189.901 270.369 189.739 271.29 189.739C272.585 189.739 273.602 190.023 274.341 190.591C275.085 191.159 275.614 191.909 275.926 192.841Z" fill="black"/>
<rect x="403" y="115" width="300" height="112" rx="12" fill="#F59A1E"/>
<path d="M523.527 140.727V164H518.607V145.398H518.47L513.141 148.739V144.375L518.902 140.727H523.527ZM538.683 164.511C536.729 164.504 535.047 164.023 533.638 163.068C532.236 162.114 531.157 160.731 530.399 158.92C529.649 157.11 529.278 154.932 529.286 152.386C529.286 149.848 529.661 147.686 530.411 145.898C531.168 144.11 532.248 142.75 533.649 141.818C535.058 140.879 536.736 140.409 538.683 140.409C540.63 140.409 542.304 140.879 543.706 141.818C545.115 142.758 546.198 144.121 546.956 145.909C547.714 147.689 548.089 149.848 548.081 152.386C548.081 154.939 547.702 157.121 546.945 158.932C546.195 160.742 545.119 162.125 543.717 163.08C542.316 164.034 540.638 164.511 538.683 164.511ZM538.683 160.432C540.017 160.432 541.081 159.761 541.876 158.42C542.672 157.08 543.066 155.068 543.058 152.386C543.058 150.621 542.876 149.152 542.513 147.977C542.157 146.803 541.649 145.92 540.99 145.33C540.339 144.739 539.57 144.443 538.683 144.443C537.357 144.443 536.297 145.106 535.501 146.432C534.706 147.758 534.304 149.742 534.297 152.386C534.297 154.174 534.475 155.667 534.831 156.864C535.195 158.053 535.706 158.947 536.365 159.545C537.024 160.136 537.797 160.432 538.683 160.432ZM561.214 164.511C559.26 164.504 557.578 164.023 556.169 163.068C554.768 162.114 553.688 160.731 552.93 158.92C552.18 157.11 551.809 154.932 551.817 152.386C551.817 149.848 552.192 147.686 552.942 145.898C553.699 144.11 554.779 142.75 556.18 141.818C557.589 140.879 559.268 140.409 561.214 140.409C563.161 140.409 564.836 140.879 566.237 141.818C567.646 142.758 568.73 144.121 569.487 145.909C570.245 147.689 570.62 149.848 570.612 152.386C570.612 154.939 570.233 157.121 569.476 158.932C568.726 160.742 567.65 162.125 566.249 163.08C564.847 164.034 563.169 164.511 561.214 164.511ZM561.214 160.432C562.548 160.432 563.612 159.761 564.408 158.42C565.203 157.08 565.597 155.068 565.589 152.386C565.589 150.621 565.408 149.152 565.044 147.977C564.688 146.803 564.18 145.92 563.521 145.33C562.87 144.739 562.101 144.443 561.214 144.443C559.889 144.443 558.828 145.106 558.033 146.432C557.237 147.758 556.836 149.742 556.828 152.386C556.828 154.174 557.006 155.667 557.362 156.864C557.726 158.053 558.237 158.947 558.896 159.545C559.555 160.136 560.328 160.432 561.214 160.432ZM581.575 160.455V144.364H585.643V160.455H581.575ZM575.564 154.443V150.375H591.655V154.443H575.564Z" fill="black"/>
<path d="M520.808 191H518.694C518.569 190.392 518.35 189.858 518.038 189.398C517.731 188.938 517.356 188.551 516.913 188.239C516.475 187.92 515.989 187.682 515.455 187.523C514.921 187.364 514.364 187.284 513.785 187.284C512.728 187.284 511.771 187.551 510.913 188.085C510.06 188.619 509.381 189.406 508.876 190.446C508.376 191.486 508.126 192.761 508.126 194.273C508.126 195.784 508.376 197.06 508.876 198.099C509.381 199.139 510.06 199.926 510.913 200.46C511.771 200.994 512.728 201.261 513.785 201.261C514.364 201.261 514.921 201.182 515.455 201.023C515.989 200.864 516.475 200.628 516.913 200.315C517.356 199.997 517.731 199.608 518.038 199.148C518.35 198.682 518.569 198.148 518.694 197.545H520.808C520.648 198.437 520.359 199.236 519.938 199.94C519.518 200.645 518.995 201.244 518.37 201.739C517.745 202.227 517.043 202.599 516.265 202.855C515.492 203.111 514.665 203.239 513.785 203.239C512.296 203.239 510.972 202.875 509.813 202.148C508.654 201.42 507.742 200.386 507.077 199.045C506.413 197.705 506.08 196.114 506.08 194.273C506.08 192.432 506.413 190.841 507.077 189.5C507.742 188.159 508.654 187.125 509.813 186.398C510.972 185.67 512.296 185.307 513.785 185.307C514.665 185.307 515.492 185.435 516.265 185.69C517.043 185.946 517.745 186.321 518.37 186.815C518.995 187.304 519.518 187.901 519.938 188.605C520.359 189.304 520.648 190.102 520.808 191ZM529.768 203.273C528.587 203.273 527.55 202.991 526.658 202.429C525.771 201.866 525.078 201.08 524.578 200.068C524.084 199.057 523.837 197.875 523.837 196.523C523.837 195.159 524.084 193.969 524.578 192.952C525.078 191.935 525.771 191.145 526.658 190.582C527.55 190.02 528.587 189.739 529.768 189.739C530.95 189.739 531.984 190.02 532.871 190.582C533.763 191.145 534.456 191.935 534.95 192.952C535.45 193.969 535.7 195.159 535.7 196.523C535.7 197.875 535.45 199.057 534.95 200.068C534.456 201.08 533.763 201.866 532.871 202.429C531.984 202.991 530.95 203.273 529.768 203.273ZM529.768 201.466C530.666 201.466 531.405 201.236 531.984 200.776C532.564 200.315 532.993 199.71 533.271 198.96C533.55 198.21 533.689 197.398 533.689 196.523C533.689 195.648 533.55 194.832 533.271 194.077C532.993 193.321 532.564 192.71 531.984 192.244C531.405 191.778 530.666 191.545 529.768 191.545C528.871 191.545 528.132 191.778 527.553 192.244C526.973 192.71 526.544 193.321 526.266 194.077C525.987 194.832 525.848 195.648 525.848 196.523C525.848 197.398 525.987 198.21 526.266 198.96C526.544 199.71 526.973 200.315 527.553 200.776C528.132 201.236 528.871 201.466 529.768 201.466ZM547.521 197.648V189.909H549.532V203H547.521V200.784H547.384C547.077 201.449 546.6 202.014 545.952 202.48C545.305 202.94 544.487 203.17 543.498 203.17C542.68 203.17 541.952 202.991 541.316 202.634C540.68 202.27 540.18 201.724 539.816 200.997C539.452 200.264 539.271 199.341 539.271 198.227V189.909H541.282V198.091C541.282 199.045 541.549 199.807 542.083 200.375C542.623 200.943 543.31 201.227 544.146 201.227C544.646 201.227 545.154 201.099 545.671 200.844C546.194 200.588 546.631 200.196 546.984 199.668C547.342 199.139 547.521 198.466 547.521 197.648ZM553.716 203V189.909H555.659V191.886H555.795C556.034 191.239 556.466 190.713 557.091 190.31C557.716 189.906 558.42 189.705 559.205 189.705C559.352 189.705 559.537 189.707 559.759 189.713C559.98 189.719 560.148 189.727 560.261 189.739V191.784C560.193 191.767 560.037 191.741 559.793 191.707C559.554 191.668 559.301 191.648 559.034 191.648C558.398 191.648 557.83 191.781 557.33 192.048C556.835 192.31 556.443 192.673 556.153 193.139C555.869 193.599 555.727 194.125 555.727 194.716V203H553.716ZM572.418 192.841L570.612 193.352C570.498 193.051 570.33 192.759 570.109 192.474C569.893 192.185 569.597 191.946 569.222 191.759C568.847 191.571 568.367 191.477 567.782 191.477C566.981 191.477 566.313 191.662 565.779 192.031C565.251 192.395 564.987 192.858 564.987 193.42C564.987 193.92 565.168 194.315 565.532 194.605C565.896 194.895 566.464 195.136 567.237 195.33L569.18 195.807C570.35 196.091 571.222 196.526 571.796 197.111C572.37 197.69 572.657 198.437 572.657 199.352C572.657 200.102 572.441 200.773 572.009 201.364C571.583 201.955 570.987 202.42 570.219 202.761C569.452 203.102 568.56 203.273 567.543 203.273C566.208 203.273 565.103 202.983 564.228 202.403C563.353 201.824 562.799 200.977 562.566 199.864L564.475 199.386C564.657 200.091 565.001 200.619 565.506 200.972C566.018 201.324 566.685 201.5 567.509 201.5C568.447 201.5 569.191 201.301 569.742 200.903C570.299 200.5 570.577 200.017 570.577 199.455C570.577 199 570.418 198.619 570.1 198.312C569.782 198 569.293 197.767 568.634 197.614L566.452 197.102C565.254 196.818 564.373 196.378 563.81 195.781C563.254 195.179 562.975 194.426 562.975 193.523C562.975 192.784 563.183 192.131 563.597 191.562C564.018 190.994 564.589 190.548 565.31 190.224C566.038 189.901 566.862 189.739 567.782 189.739C569.077 189.739 570.094 190.023 570.833 190.591C571.577 191.159 572.106 191.909 572.418 192.841ZM581.673 203.273C580.412 203.273 579.324 202.994 578.409 202.438C577.5 201.875 576.798 201.091 576.304 200.085C575.815 199.074 575.571 197.898 575.571 196.557C575.571 195.216 575.815 194.034 576.304 193.011C576.798 191.983 577.486 191.182 578.366 190.608C579.253 190.028 580.287 189.739 581.469 189.739C582.151 189.739 582.824 189.852 583.489 190.08C584.153 190.307 584.759 190.676 585.304 191.188C585.849 191.693 586.284 192.364 586.608 193.199C586.932 194.034 587.094 195.062 587.094 196.284V197.136H577.003V195.398H585.048C585.048 194.659 584.901 194 584.605 193.42C584.315 192.841 583.901 192.384 583.361 192.048C582.827 191.713 582.196 191.545 581.469 191.545C580.668 191.545 579.974 191.744 579.389 192.142C578.81 192.534 578.364 193.045 578.051 193.676C577.739 194.307 577.582 194.983 577.582 195.705V196.864C577.582 197.852 577.753 198.69 578.094 199.378C578.44 200.06 578.92 200.58 579.534 200.938C580.148 201.29 580.861 201.466 581.673 201.466C582.202 201.466 582.679 201.392 583.105 201.244C583.537 201.091 583.909 200.864 584.222 200.562C584.534 200.256 584.776 199.875 584.946 199.42L586.889 199.966C586.685 200.625 586.341 201.205 585.858 201.705C585.375 202.199 584.778 202.585 584.068 202.864C583.358 203.136 582.56 203.273 581.673 203.273ZM599.926 192.841L598.119 193.352C598.006 193.051 597.838 192.759 597.616 192.474C597.401 192.185 597.105 191.946 596.73 191.759C596.355 191.571 595.875 191.477 595.29 191.477C594.489 191.477 593.821 191.662 593.287 192.031C592.759 192.395 592.494 192.858 592.494 193.42C592.494 193.92 592.676 194.315 593.04 194.605C593.403 194.895 593.972 195.136 594.744 195.33L596.688 195.807C597.858 196.091 598.73 196.526 599.304 197.111C599.878 197.69 600.165 198.437 600.165 199.352C600.165 200.102 599.949 200.773 599.517 201.364C599.091 201.955 598.494 202.42 597.727 202.761C596.96 203.102 596.068 203.273 595.051 203.273C593.716 203.273 592.611 202.983 591.736 202.403C590.861 201.824 590.307 200.977 590.074 199.864L591.983 199.386C592.165 200.091 592.509 200.619 593.014 200.972C593.526 201.324 594.193 201.5 595.017 201.5C595.955 201.5 596.699 201.301 597.25 200.903C597.807 200.5 598.085 200.017 598.085 199.455C598.085 199 597.926 198.619 597.608 198.312C597.29 198 596.801 197.767 596.142 197.614L593.96 197.102C592.761 196.818 591.881 196.378 591.318 195.781C590.761 195.179 590.483 194.426 590.483 193.523C590.483 192.784 590.69 192.131 591.105 191.562C591.526 190.994 592.097 190.548 592.818 190.224C593.545 189.901 594.369 189.739 595.29 189.739C596.585 189.739 597.602 190.023 598.341 190.591C599.085 191.159 599.614 191.909 599.926 192.841Z" fill="black"/>
<rect x="727" y="115" width="300" height="112" rx="12" fill="#F59A1E"/>
<path d="M847.527 140.727V164H842.607V145.398H842.47L837.141 148.739V144.375L842.902 140.727H847.527ZM862.683 164.511C860.729 164.504 859.047 164.023 857.638 163.068C856.236 162.114 855.157 160.731 854.399 158.92C853.649 157.11 853.278 154.932 853.286 152.386C853.286 149.848 853.661 147.686 854.411 145.898C855.168 144.11 856.248 142.75 857.649 141.818C859.058 140.879 860.736 140.409 862.683 140.409C864.63 140.409 866.304 140.879 867.706 141.818C869.115 142.758 870.198 144.121 870.956 145.909C871.714 147.689 872.089 149.848 872.081 152.386C872.081 154.939 871.702 157.121 870.945 158.932C870.195 160.742 869.119 162.125 867.717 163.08C866.316 164.034 864.638 164.511 862.683 164.511ZM862.683 160.432C864.017 160.432 865.081 159.761 865.876 158.42C866.672 157.08 867.066 155.068 867.058 152.386C867.058 150.621 866.876 149.152 866.513 147.977C866.157 146.803 865.649 145.92 864.99 145.33C864.339 144.739 863.57 144.443 862.683 144.443C861.357 144.443 860.297 145.106 859.501 146.432C858.706 147.758 858.304 149.742 858.297 152.386C858.297 154.174 858.475 155.667 858.831 156.864C859.195 158.053 859.706 158.947 860.365 159.545C861.024 160.136 861.797 160.432 862.683 160.432ZM885.214 164.511C883.26 164.504 881.578 164.023 880.169 163.068C878.768 162.114 877.688 160.731 876.93 158.92C876.18 157.11 875.809 154.932 875.817 152.386C875.817 149.848 876.192 147.686 876.942 145.898C877.699 144.11 878.779 142.75 880.18 141.818C881.589 140.879 883.268 140.409 885.214 140.409C887.161 140.409 888.836 140.879 890.237 141.818C891.646 142.758 892.73 144.121 893.487 145.909C894.245 147.689 894.62 149.848 894.612 152.386C894.612 154.939 894.233 157.121 893.476 158.932C892.726 160.742 891.65 162.125 890.249 163.08C888.847 164.034 887.169 164.511 885.214 164.511ZM885.214 160.432C886.548 160.432 887.612 159.761 888.408 158.42C889.203 157.08 889.597 155.068 889.589 152.386C889.589 150.621 889.408 149.152 889.044 147.977C888.688 146.803 888.18 145.92 887.521 145.33C886.87 144.739 886.101 144.443 885.214 144.443C883.889 144.443 882.828 145.106 882.033 146.432C881.237 147.758 880.836 149.742 880.828 152.386C880.828 154.174 881.006 155.667 881.362 156.864C881.726 158.053 882.237 158.947 882.896 159.545C883.555 160.136 884.328 160.432 885.214 160.432ZM905.575 160.455V144.364H909.643V160.455H905.575ZM899.564 154.443V150.375H915.655V154.443H899.564Z" fill="black"/>
<path d="M844.808 191H842.694C842.569 190.392 842.35 189.858 842.038 189.398C841.731 188.938 841.356 188.551 840.913 188.239C840.475 187.92 839.989 187.682 839.455 187.523C838.921 187.364 838.364 187.284 837.785 187.284C836.728 187.284 835.771 187.551 834.913 188.085C834.06 188.619 833.381 189.406 832.876 190.446C832.376 191.486 832.126 192.761 832.126 194.273C832.126 195.784 832.376 197.06 832.876 198.099C833.381 199.139 834.06 199.926 834.913 200.46C835.771 200.994 836.728 201.261 837.785 201.261C838.364 201.261 838.921 201.182 839.455 201.023C839.989 200.864 840.475 200.628 840.913 200.315C841.356 199.997 841.731 199.608 842.038 199.148C842.35 198.682 842.569 198.148 842.694 197.545H844.808C844.648 198.437 844.359 199.236 843.938 199.94C843.518 200.645 842.995 201.244 842.37 201.739C841.745 202.227 841.043 202.599 840.265 202.855C839.492 203.111 838.665 203.239 837.785 203.239C836.296 203.239 834.972 202.875 833.813 202.148C832.654 201.42 831.742 200.386 831.077 199.045C830.413 197.705 830.08 196.114 830.08 194.273C830.08 192.432 830.413 190.841 831.077 189.5C831.742 188.159 832.654 187.125 833.813 186.398C834.972 185.67 836.296 185.307 837.785 185.307C838.665 185.307 839.492 185.435 840.265 185.69C841.043 185.946 841.745 186.321 842.37 186.815C842.995 187.304 843.518 187.901 843.938 188.605C844.359 189.304 844.648 190.102 844.808 191ZM853.768 203.273C852.587 203.273 851.55 202.991 850.658 202.429C849.771 201.866 849.078 201.08 848.578 200.068C848.084 199.057 847.837 197.875 847.837 196.523C847.837 195.159 848.084 193.969 848.578 192.952C849.078 191.935 849.771 191.145 850.658 190.582C851.55 190.02 852.587 189.739 853.768 189.739C854.95 189.739 855.984 190.02 856.871 190.582C857.763 191.145 858.456 191.935 858.95 192.952C859.45 193.969 859.7 195.159 859.7 196.523C859.7 197.875 859.45 199.057 858.95 200.068C858.456 201.08 857.763 201.866 856.871 202.429C855.984 202.991 854.95 203.273 853.768 203.273ZM853.768 201.466C854.666 201.466 855.405 201.236 855.984 200.776C856.564 200.315 856.993 199.71 857.271 198.96C857.55 198.21 857.689 197.398 857.689 196.523C857.689 195.648 857.55 194.832 857.271 194.077C856.993 193.321 856.564 192.71 855.984 192.244C855.405 191.778 854.666 191.545 853.768 191.545C852.871 191.545 852.132 191.778 851.553 192.244C850.973 192.71 850.544 193.321 850.266 194.077C849.987 194.832 849.848 195.648 849.848 196.523C849.848 197.398 849.987 198.21 850.266 198.96C850.544 199.71 850.973 200.315 851.553 200.776C852.132 201.236 852.871 201.466 853.768 201.466ZM871.521 197.648V189.909H873.532V203H871.521V200.784H871.384C871.077 201.449 870.6 202.014 869.952 202.48C869.305 202.94 868.487 203.17 867.498 203.17C866.68 203.17 865.952 202.991 865.316 202.634C864.68 202.27 864.18 201.724 863.816 200.997C863.452 200.264 863.271 199.341 863.271 198.227V189.909H865.282V198.091C865.282 199.045 865.549 199.807 866.083 200.375C866.623 200.943 867.31 201.227 868.146 201.227C868.646 201.227 869.154 201.099 869.671 200.844C870.194 200.588 870.631 200.196 870.984 199.668C871.342 199.139 871.521 198.466 871.521 197.648ZM877.716 203V189.909H879.659V191.886H879.795C880.034 191.239 880.466 190.713 881.091 190.31C881.716 189.906 882.42 189.705 883.205 189.705C883.352 189.705 883.537 189.707 883.759 189.713C883.98 189.719 884.148 189.727 884.261 189.739V191.784C884.193 191.767 884.037 191.741 883.793 191.707C883.554 191.668 883.301 191.648 883.034 191.648C882.398 191.648 881.83 191.781 881.33 192.048C880.835 192.31 880.443 192.673 880.153 193.139C879.869 193.599 879.727 194.125 879.727 194.716V203H877.716ZM896.418 192.841L894.612 193.352C894.498 193.051 894.33 192.759 894.109 192.474C893.893 192.185 893.597 191.946 893.222 191.759C892.847 191.571 892.367 191.477 891.782 191.477C890.981 191.477 890.313 191.662 889.779 192.031C889.251 192.395 888.987 192.858 888.987 193.42C888.987 193.92 889.168 194.315 889.532 194.605C889.896 194.895 890.464 195.136 891.237 195.33L893.18 195.807C894.35 196.091 895.222 196.526 895.796 197.111C896.37 197.69 896.657 198.437 896.657 199.352C896.657 200.102 896.441 200.773 896.009 201.364C895.583 201.955 894.987 202.42 894.219 202.761C893.452 203.102 892.56 203.273 891.543 203.273C890.208 203.273 889.103 202.983 888.228 202.403C887.353 201.824 886.799 200.977 886.566 199.864L888.475 199.386C888.657 200.091 889.001 200.619 889.506 200.972C890.018 201.324 890.685 201.5 891.509 201.5C892.447 201.5 893.191 201.301 893.742 200.903C894.299 200.5 894.577 200.017 894.577 199.455C894.577 199 894.418 198.619 894.1 198.312C893.782 198 893.293 197.767 892.634 197.614L890.452 197.102C889.254 196.818 888.373 196.378 887.81 195.781C887.254 195.179 886.975 194.426 886.975 193.523C886.975 192.784 887.183 192.131 887.597 191.562C888.018 190.994 888.589 190.548 889.31 190.224C890.038 189.901 890.862 189.739 891.782 189.739C893.077 189.739 894.094 190.023 894.833 190.591C895.577 191.159 896.106 191.909 896.418 192.841ZM905.673 203.273C904.412 203.273 903.324 202.994 902.409 202.438C901.5 201.875 900.798 201.091 900.304 200.085C899.815 199.074 899.571 197.898 899.571 196.557C899.571 195.216 899.815 194.034 900.304 193.011C900.798 191.983 901.486 191.182 902.366 190.608C903.253 190.028 904.287 189.739 905.469 189.739C906.151 189.739 906.824 189.852 907.489 190.08C908.153 190.307 908.759 190.676 909.304 191.188C909.849 191.693 910.284 192.364 910.608 193.199C910.932 194.034 911.094 195.062 911.094 196.284V197.136H901.003V195.398H909.048C909.048 194.659 908.901 194 908.605 193.42C908.315 192.841 907.901 192.384 907.361 192.048C906.827 191.713 906.196 191.545 905.469 191.545C904.668 191.545 903.974 191.744 903.389 192.142C902.81 192.534 902.364 193.045 902.051 193.676C901.739 194.307 901.582 194.983 901.582 195.705V196.864C901.582 197.852 901.753 198.69 902.094 199.378C902.44 200.06 902.92 200.58 903.534 200.938C904.148 201.29 904.861 201.466 905.673 201.466C906.202 201.466 906.679 201.392 907.105 201.244C907.537 201.091 907.909 200.864 908.222 200.562C908.534 200.256 908.776 199.875 908.946 199.42L910.889 199.966C910.685 200.625 910.341 201.205 909.858 201.705C909.375 202.199 908.778 202.585 908.068 202.864C907.358 203.136 906.56 203.273 905.673 203.273ZM923.926 192.841L922.119 193.352C922.006 193.051 921.838 192.759 921.616 192.474C921.401 192.185 921.105 191.946 920.73 191.759C920.355 191.571 919.875 191.477 919.29 191.477C918.489 191.477 917.821 191.662 917.287 192.031C916.759 192.395 916.494 192.858 916.494 193.42C916.494 193.92 916.676 194.315 917.04 194.605C917.403 194.895 917.972 195.136 918.744 195.33L920.688 195.807C921.858 196.091 922.73 196.526 923.304 197.111C923.878 197.69 924.165 198.437 924.165 199.352C924.165 200.102 923.949 200.773 923.517 201.364C923.091 201.955 922.494 202.42 921.727 202.761C920.96 203.102 920.068 203.273 919.051 203.273C917.716 203.273 916.611 202.983 915.736 202.403C914.861 201.824 914.307 200.977 914.074 199.864L915.983 199.386C916.165 200.091 916.509 200.619 917.014 200.972C917.526 201.324 918.193 201.5 919.017 201.5C919.955 201.5 920.699 201.301 921.25 200.903C921.807 200.5 922.085 200.017 922.085 199.455C922.085 199 921.926 198.619 921.608 198.312C921.29 198 920.801 197.767 920.142 197.614L917.96 197.102C916.761 196.818 915.881 196.378 915.318 195.781C914.761 195.179 914.483 194.426 914.483 193.523C914.483 192.784 914.69 192.131 915.105 191.562C915.526 190.994 916.097 190.548 916.818 190.224C917.545 189.901 918.369 189.739 919.29 189.739C920.585 189.739 921.602 190.023 922.341 190.591C923.085 191.159 923.614 191.909 923.926 192.841Z" fill="black"/>
<rect x="1051" y="115" width="300" height="112" rx="12" fill="#F59A1E"/>
<path d="M1171.53 140.727V164H1166.61V145.398H1166.47L1161.14 148.739V144.375L1166.9 140.727H1171.53ZM1186.68 164.511C1184.73 164.504 1183.05 164.023 1181.64 163.068C1180.24 162.114 1179.16 160.731 1178.4 158.92C1177.65 157.11 1177.28 154.932 1177.29 152.386C1177.29 149.848 1177.66 147.686 1178.41 145.898C1179.17 144.11 1180.25 142.75 1181.65 141.818C1183.06 140.879 1184.74 140.409 1186.68 140.409C1188.63 140.409 1190.3 140.879 1191.71 141.818C1193.12 142.758 1194.2 144.121 1194.96 145.909C1195.71 147.689 1196.09 149.848 1196.08 152.386C1196.08 154.939 1195.7 157.121 1194.94 158.932C1194.19 160.742 1193.12 162.125 1191.72 163.08C1190.32 164.034 1188.64 164.511 1186.68 164.511ZM1186.68 160.432C1188.02 160.432 1189.08 159.761 1189.88 158.42C1190.67 157.08 1191.07 155.068 1191.06 152.386C1191.06 150.621 1190.88 149.152 1190.51 147.977C1190.16 146.803 1189.65 145.92 1188.99 145.33C1188.34 144.739 1187.57 144.443 1186.68 144.443C1185.36 144.443 1184.3 145.106 1183.5 146.432C1182.71 147.758 1182.3 149.742 1182.3 152.386C1182.3 154.174 1182.47 155.667 1182.83 156.864C1183.19 158.053 1183.71 158.947 1184.37 159.545C1185.02 160.136 1185.8 160.432 1186.68 160.432ZM1209.21 164.511C1207.26 164.504 1205.58 164.023 1204.17 163.068C1202.77 162.114 1201.69 160.731 1200.93 158.92C1200.18 157.11 1199.81 154.932 1199.82 152.386C1199.82 149.848 1200.19 147.686 1200.94 145.898C1201.7 144.11 1202.78 142.75 1204.18 141.818C1205.59 140.879 1207.27 140.409 1209.21 140.409C1211.16 140.409 1212.84 140.879 1214.24 141.818C1215.65 142.758 1216.73 144.121 1217.49 145.909C1218.24 147.689 1218.62 149.848 1218.61 152.386C1218.61 154.939 1218.23 157.121 1217.48 158.932C1216.73 160.742 1215.65 162.125 1214.25 163.08C1212.85 164.034 1211.17 164.511 1209.21 164.511ZM1209.21 160.432C1210.55 160.432 1211.61 159.761 1212.41 158.42C1213.2 157.08 1213.6 155.068 1213.59 152.386C1213.59 150.621 1213.41 149.152 1213.04 147.977C1212.69 146.803 1212.18 145.92 1211.52 145.33C1210.87 144.739 1210.1 144.443 1209.21 144.443C1207.89 144.443 1206.83 145.106 1206.03 146.432C1205.24 147.758 1204.84 149.742 1204.83 152.386C1204.83 154.174 1205.01 155.667 1205.36 156.864C1205.73 158.053 1206.24 158.947 1206.9 159.545C1207.56 160.136 1208.33 160.432 1209.21 160.432ZM1229.58 160.455V144.364H1233.64V160.455H1229.58ZM1223.56 154.443V150.375H1239.65V154.443H1223.56Z" fill="black"/>
<path d="M1168.81 191H1166.69C1166.57 190.392 1166.35 189.858 1166.04 189.398C1165.73 188.938 1165.36 188.551 1164.91 188.239C1164.48 187.92 1163.99 187.682 1163.46 187.523C1162.92 187.364 1162.36 187.284 1161.78 187.284C1160.73 187.284 1159.77 187.551 1158.91 188.085C1158.06 188.619 1157.38 189.406 1156.88 190.446C1156.38 191.486 1156.13 192.761 1156.13 194.273C1156.13 195.784 1156.38 197.06 1156.88 198.099C1157.38 199.139 1158.06 199.926 1158.91 200.46C1159.77 200.994 1160.73 201.261 1161.78 201.261C1162.36 201.261 1162.92 201.182 1163.46 201.023C1163.99 200.864 1164.48 200.628 1164.91 200.315C1165.36 199.997 1165.73 199.608 1166.04 199.148C1166.35 198.682 1166.57 198.148 1166.69 197.545H1168.81C1168.65 198.437 1168.36 199.236 1167.94 199.94C1167.52 200.645 1167 201.244 1166.37 201.739C1165.75 202.227 1165.04 202.599 1164.26 202.855C1163.49 203.111 1162.67 203.239 1161.78 203.239C1160.3 203.239 1158.97 202.875 1157.81 202.148C1156.65 201.42 1155.74 200.386 1155.08 199.045C1154.41 197.705 1154.08 196.114 1154.08 194.273C1154.08 192.432 1154.41 190.841 1155.08 189.5C1155.74 188.159 1156.65 187.125 1157.81 186.398C1158.97 185.67 1160.3 185.307 1161.78 185.307C1162.67 185.307 1163.49 185.435 1164.26 185.69C1165.04 185.946 1165.75 186.321 1166.37 186.815C1167 187.304 1167.52 187.901 1167.94 188.605C1168.36 189.304 1168.65 190.102 1168.81 191ZM1177.77 203.273C1176.59 203.273 1175.55 202.991 1174.66 202.429C1173.77 201.866 1173.08 201.08 1172.58 200.068C1172.08 199.057 1171.84 197.875 1171.84 196.523C1171.84 195.159 1172.08 193.969 1172.58 192.952C1173.08 191.935 1173.77 191.145 1174.66 190.582C1175.55 190.02 1176.59 189.739 1177.77 189.739C1178.95 189.739 1179.98 190.02 1180.87 190.582C1181.76 191.145 1182.46 191.935 1182.95 192.952C1183.45 193.969 1183.7 195.159 1183.7 196.523C1183.7 197.875 1183.45 199.057 1182.95 200.068C1182.46 201.08 1181.76 201.866 1180.87 202.429C1179.98 202.991 1178.95 203.273 1177.77 203.273ZM1177.77 201.466C1178.67 201.466 1179.4 201.236 1179.98 200.776C1180.56 200.315 1180.99 199.71 1181.27 198.96C1181.55 198.21 1181.69 197.398 1181.69 196.523C1181.69 195.648 1181.55 194.832 1181.27 194.077C1180.99 193.321 1180.56 192.71 1179.98 192.244C1179.4 191.778 1178.67 191.545 1177.77 191.545C1176.87 191.545 1176.13 191.778 1175.55 192.244C1174.97 192.71 1174.54 193.321 1174.27 194.077C1173.99 194.832 1173.85 195.648 1173.85 196.523C1173.85 197.398 1173.99 198.21 1174.27 198.96C1174.54 199.71 1174.97 200.315 1175.55 200.776C1176.13 201.236 1176.87 201.466 1177.77 201.466ZM1195.52 197.648V189.909H1197.53V203H1195.52V200.784H1195.38C1195.08 201.449 1194.6 202.014 1193.95 202.48C1193.3 202.94 1192.49 203.17 1191.5 203.17C1190.68 203.17 1189.95 202.991 1189.32 202.634C1188.68 202.27 1188.18 201.724 1187.82 200.997C1187.45 200.264 1187.27 199.341 1187.27 198.227V189.909H1189.28V198.091C1189.28 199.045 1189.55 199.807 1190.08 200.375C1190.62 200.943 1191.31 201.227 1192.15 201.227C1192.65 201.227 1193.15 201.099 1193.67 200.844C1194.19 200.588 1194.63 200.196 1194.98 199.668C1195.34 199.139 1195.52 198.466 1195.52 197.648ZM1201.72 203V189.909H1203.66V191.886H1203.8C1204.03 191.239 1204.47 190.713 1205.09 190.31C1205.72 189.906 1206.42 189.705 1207.2 189.705C1207.35 189.705 1207.54 189.707 1207.76 189.713C1207.98 189.719 1208.15 189.727 1208.26 189.739V191.784C1208.19 191.767 1208.04 191.741 1207.79 191.707C1207.55 191.668 1207.3 191.648 1207.03 191.648C1206.4 191.648 1205.83 191.781 1205.33 192.048C1204.84 192.31 1204.44 192.673 1204.15 193.139C1203.87 193.599 1203.73 194.125 1203.73 194.716V203H1201.72ZM1220.42 192.841L1218.61 193.352C1218.5 193.051 1218.33 192.759 1218.11 192.474C1217.89 192.185 1217.6 191.946 1217.22 191.759C1216.85 191.571 1216.37 191.477 1215.78 191.477C1214.98 191.477 1214.31 191.662 1213.78 192.031C1213.25 192.395 1212.99 192.858 1212.99 193.42C1212.99 193.92 1213.17 194.315 1213.53 194.605C1213.9 194.895 1214.46 195.136 1215.24 195.33L1217.18 195.807C1218.35 196.091 1219.22 196.526 1219.8 197.111C1220.37 197.69 1220.66 198.437 1220.66 199.352C1220.66 200.102 1220.44 200.773 1220.01 201.364C1219.58 201.955 1218.99 202.42 1218.22 202.761C1217.45 203.102 1216.56 203.273 1215.54 203.273C1214.21 203.273 1213.1 202.983 1212.23 202.403C1211.35 201.824 1210.8 200.977 1210.57 199.864L1212.48 199.386C1212.66 200.091 1213 200.619 1213.51 200.972C1214.02 201.324 1214.69 201.5 1215.51 201.5C1216.45 201.5 1217.19 201.301 1217.74 200.903C1218.3 200.5 1218.58 200.017 1218.58 199.455C1218.58 199 1218.42 198.619 1218.1 198.312C1217.78 198 1217.29 197.767 1216.63 197.614L1214.45 197.102C1213.25 196.818 1212.37 196.378 1211.81 195.781C1211.25 195.179 1210.98 194.426 1210.98 193.523C1210.98 192.784 1211.18 192.131 1211.6 191.562C1212.02 190.994 1212.59 190.548 1213.31 190.224C1214.04 189.901 1214.86 189.739 1215.78 189.739C1217.08 189.739 1218.09 190.023 1218.83 190.591C1219.58 191.159 1220.11 191.909 1220.42 192.841ZM1229.67 203.273C1228.41 203.273 1227.32 202.994 1226.41 202.438C1225.5 201.875 1224.8 201.091 1224.3 200.085C1223.82 199.074 1223.57 197.898 1223.57 196.557C1223.57 195.216 1223.82 194.034 1224.3 193.011C1224.8 191.983 1225.49 191.182 1226.37 190.608C1227.25 190.028 1228.29 189.739 1229.47 189.739C1230.15 189.739 1230.82 189.852 1231.49 190.08C1232.15 190.307 1232.76 190.676 1233.3 191.188C1233.85 191.693 1234.28 192.364 1234.61 193.199C1234.93 194.034 1235.09 195.062 1235.09 196.284V197.136H1225V195.398H1233.05C1233.05 194.659 1232.9 194 1232.61 193.42C1232.32 192.841 1231.9 192.384 1231.36 192.048C1230.83 191.713 1230.2 191.545 1229.47 191.545C1228.67 191.545 1227.97 191.744 1227.39 192.142C1226.81 192.534 1226.36 193.045 1226.05 193.676C1225.74 194.307 1225.58 194.983 1225.58 195.705V196.864C1225.58 197.852 1225.75 198.69 1226.09 199.378C1226.44 200.06 1226.92 200.58 1227.53 200.938C1228.15 201.29 1228.86 201.466 1229.67 201.466C1230.2 201.466 1230.68 201.392 1231.11 201.244C1231.54 201.091 1231.91 200.864 1232.22 200.562C1232.53 200.256 1232.78 199.875 1232.95 199.42L1234.89 199.966C1234.68 200.625 1234.34 201.205 1233.86 201.705C1233.38 202.199 1232.78 202.585 1232.07 202.864C1231.36 203.136 1230.56 203.273 1229.67 203.273ZM1247.93 192.841L1246.12 193.352C1246.01 193.051 1245.84 192.759 1245.62 192.474C1245.4 192.185 1245.11 191.946 1244.73 191.759C1244.36 191.571 1243.88 191.477 1243.29 191.477C1242.49 191.477 1241.82 191.662 1241.29 192.031C1240.76 192.395 1240.49 192.858 1240.49 193.42C1240.49 193.92 1240.68 194.315 1241.04 194.605C1241.4 194.895 1241.97 195.136 1242.74 195.33L1244.69 195.807C1245.86 196.091 1246.73 196.526 1247.3 197.111C1247.88 197.69 1248.16 198.437 1248.16 199.352C1248.16 200.102 1247.95 200.773 1247.52 201.364C1247.09 201.955 1246.49 202.42 1245.73 202.761C1244.96 203.102 1244.07 203.273 1243.05 203.273C1241.72 203.273 1240.61 202.983 1239.74 202.403C1238.86 201.824 1238.31 200.977 1238.07 199.864L1239.98 199.386C1240.16 200.091 1240.51 200.619 1241.01 200.972C1241.53 201.324 1242.19 201.5 1243.02 201.5C1243.95 201.5 1244.7 201.301 1245.25 200.903C1245.81 200.5 1246.09 200.017 1246.09 199.455C1246.09 199 1245.93 198.619 1245.61 198.312C1245.29 198 1244.8 197.767 1244.14 197.614L1241.96 197.102C1240.76 196.818 1239.88 196.378 1239.32 195.781C1238.76 195.179 1238.48 194.426 1238.48 193.523C1238.48 192.784 1238.69 192.131 1239.11 191.562C1239.53 190.994 1240.1 190.548 1240.82 190.224C1241.55 189.901 1242.37 189.739 1243.29 189.739C1244.59 189.739 1245.6 190.023 1246.34 190.591C1247.09 191.159 1247.61 191.909 1247.93 192.841Z" fill="black"/>
</svg>
